<svg width="132" height="132" viewBox="0 0 132 132" fill="none" xmlns="http://www.w3.org/2000/svg">
<g id="Bouton t&#195;&#169;l&#195;&#169;phone">
<circle id="Ellipse 15" cx="65.8946" cy="65.8951" r="60.2037" fill="#862D2D" stroke="#F1E7E7" stroke-width="11.3818"/>
<g id="Picto t&#195;&#169;l&#195;&#169;phone">
<path id="Vector" d="M85.2182 77.3049C85.0198 76.7299 84.8366 76.2007 84.6636 75.8954C79.6565 66.899 75.7639 60.3959 74.9497 59.4393C74.0439 58.3809 73.0364 58.1824 73.0364 58.1824C72.8583 58.1468 72.6904 58.1316 72.5327 58.1316C67.9429 58.0959 62.2692 58.1316 62.2692 58.1316C61.852 58.1366 61.1447 58.1417 60.2542 58.1316C59.6995 58.2486 58.6208 58.559 57.7405 59.4902C57.481 59.765 57.2825 60.0448 57.135 60.2942C53.914 65.9016 50.6879 71.4532 47.7874 77.1573C47.477 77.7629 47.5228 78.4905 47.5228 79.2182C47.5228 80.0222 47.4974 80.8312 47.5585 81.5741C47.5992 82.0474 48.1385 84.3932 49.9857 85.0547C50.179 85.1259 50.3978 85.1819 50.6421 85.2073C61.0582 85.2226 71.4794 85.2429 81.8955 85.2582C82.3992 85.1666 83.6459 84.8766 84.5109 83.7978C85.03 83.1516 85.2996 82.5257 85.3149 81.9863C85.3811 80.1494 85.6457 78.5821 85.2182 77.3049ZM66.4876 78.348C63.1394 78.348 60.4221 75.6308 60.4221 72.2826C60.4221 68.9344 63.1394 66.2171 66.4876 66.2171C69.8358 66.2171 72.553 68.9344 72.553 72.2826C72.553 75.6308 69.8358 78.348 66.4876 78.348Z" fill="#F1E7E7"/>
<path id="Vector_2" d="M46.7141 61.8568C48.3424 61.8415 49.9707 61.8212 51.594 61.8059C51.9298 61.755 52.4081 61.638 52.8508 61.3022C53.2019 61.0376 53.5479 60.6254 54.1077 58.8343C54.6878 56.9821 54.647 56.3765 55.3136 55.6641C55.5375 55.425 55.8021 55.2163 56.372 54.911C58.2192 53.9086 60.0408 53.6084 60.7481 53.5015C61.4961 53.3896 63.0939 53.181 66.3862 53.2013C67.3835 53.2064 68.4928 53.2522 70.7164 53.354C73.3014 53.471 74.7007 53.5779 76.1509 54.4633C76.3036 54.5548 76.6649 54.7584 77.0567 55.1197C77.25 55.2927 77.7894 55.8219 78.3135 56.9312C79.087 58.5697 78.5374 59.1854 79.1684 60.3048C79.4279 60.7628 79.9062 61.3581 80.8781 61.867C82.5878 61.9179 84.3027 61.9688 86.0124 62.0196C86.2363 61.9637 86.5009 61.8721 86.7655 61.7194C87.6814 61.1902 88.0529 60.3048 88.175 59.9588C88.175 58.6002 88.348 57.2314 88.175 55.8829C88.1546 55.7201 88.0681 55.486 87.9257 55.2265C87.5796 54.621 86.9334 54.1121 86.567 53.8679C83.9007 52.0666 84.094 52.2345 83.4478 51.8529C80.0182 49.848 78.1202 49.1712 76.7819 48.7336C74.7058 48.0518 73.0419 47.7719 71.8766 47.5786C71.0421 47.4412 68.9813 47.1257 66.7169 47.0748C61.1806 46.9527 56.7181 48.4741 54.2451 49.3392C54.2451 49.3392 49.8181 50.8861 45.6557 54.2394C45.2894 54.5345 45.0502 54.911 45.0502 54.911C44.8619 55.2163 44.7652 55.5064 44.7144 55.715V60.2132C44.8212 60.4168 44.9739 60.6508 45.1825 60.8849C45.7168 61.4853 46.3478 61.755 46.709 61.8772L46.7141 61.8568Z" fill="#F1E7E7"/>
</g>
</g>
</svg>
