<svg width="38" height="43" viewBox="0 0 38 43" fill="none" xmlns="http://www.w3.org/2000/svg">
<g id="cake-candles-solid 1" clip-path="url(#clip0_359_12755)">
<path id="Vector" d="M7.25104 0.461914L5.18651 3.99766C4.8676 4.54355 4.69975 5.17344 4.69975 5.81172V6.04688C4.69975 7.90293 6.20199 9.40625 8.05671 9.40625C9.91143 9.40625 11.4137 7.90293 11.4137 6.04688V5.81172C11.4137 5.17344 11.2458 4.55195 10.9269 3.99766L8.86238 0.461914C8.69453 0.176367 8.39241 0 8.05671 0C7.72101 0 7.41889 0.176367 7.25104 0.461914ZM17.9933 0.461914L15.9288 3.99766C15.6099 4.54355 15.442 5.17344 15.442 5.81172V6.04688C15.442 7.90293 16.9443 9.40625 18.799 9.40625C20.6537 9.40625 22.156 7.90293 22.156 6.04688V5.81172C22.156 5.17344 21.9881 4.55195 21.6692 3.99766L19.6047 0.461914C19.4368 0.176367 19.1347 0 18.799 0C18.4633 0 18.1612 0.176367 17.9933 0.461914ZM26.6711 3.99766C26.3522 4.54355 26.1843 5.17344 26.1843 5.81172V6.04688C26.1843 7.90293 27.6866 9.40625 29.5413 9.40625C31.396 9.40625 32.8982 7.90293 32.8982 6.04688V5.81172C32.8982 5.17344 32.7304 4.55195 32.4115 3.99766L30.3469 0.461914C30.1791 0.176367 29.877 0 29.5413 0C29.2056 0 28.9035 0.176367 28.7356 0.461914L26.6711 3.99766ZM10.7423 14.7812C10.7423 13.2947 9.54217 12.0938 8.05671 12.0938C6.57126 12.0938 5.37114 13.2947 5.37114 14.7812V18.8125C2.40862 18.8125 0 21.2229 0 24.1875V30.1504C0.69657 30.5871 1.51903 30.9062 2.41701 30.9062C3.54999 30.9062 4.69975 30.3939 5.6397 29.7809C6.09289 29.4869 6.47055 29.1846 6.73071 28.9662C6.8566 28.857 6.95731 28.7646 7.02445 28.7059C7.05801 28.6723 7.08319 28.6555 7.09158 28.6387L7.09998 28.6303C7.36014 28.3615 7.72101 28.2188 8.09867 28.2271C8.47633 28.2355 8.82042 28.4035 9.07219 28.6807L9.08058 28.6891C9.08898 28.6975 9.11415 28.7227 9.13933 28.7479C9.19808 28.8066 9.282 28.8906 9.3995 28.9998C9.63448 29.2182 9.97018 29.5121 10.3898 29.7977C11.2458 30.3939 12.3201 30.8979 13.4362 30.8979C14.5524 30.8979 15.6267 30.3939 16.4827 29.7977C16.9023 29.5037 17.238 29.2182 17.473 28.9998C17.5905 28.8906 17.6744 28.8066 17.7332 28.7479C17.7583 28.7227 17.7835 28.6975 17.7919 28.6891L17.8003 28.6807C18.0521 28.3867 18.4213 28.2271 18.8074 28.2271C19.1934 28.2271 19.5627 28.3951 19.8145 28.6807L19.8229 28.6891C19.8313 28.6975 19.8564 28.7227 19.8816 28.7479C19.9404 28.8066 20.0243 28.8906 20.1418 28.9998C20.3768 29.2182 20.7125 29.5121 21.1321 29.7977C21.9881 30.3939 23.0623 30.8979 24.1785 30.8979C25.2947 30.8979 26.3689 30.3939 27.225 29.7977C27.6446 29.5037 27.9803 29.2182 28.2153 28.9998C28.3328 28.8906 28.4167 28.8066 28.4754 28.7479C28.5006 28.7227 28.5258 28.6975 28.5342 28.6891L28.5426 28.6807C28.786 28.3951 29.1384 28.2355 29.5161 28.2271C29.8938 28.2188 30.2462 28.3615 30.5148 28.6303L30.5232 28.6387C30.54 28.6555 30.5568 28.6723 30.5903 28.7059C30.6575 28.7646 30.7498 28.857 30.8841 28.9662C31.1442 29.1846 31.5135 29.4869 31.9751 29.7809C32.915 30.3939 34.0648 30.9062 35.1978 30.9062C36.0957 30.9062 36.9182 30.5787 37.6148 30.1504V24.1875C37.6148 21.2229 35.2062 18.8125 32.2436 18.8125V14.7812C32.2436 13.2947 31.0435 12.0938 29.5581 12.0938C28.0726 12.0938 26.8725 13.2947 26.8725 14.7812V18.8125H21.4846V14.7812C21.4846 13.2947 20.2845 12.0938 18.799 12.0938C17.3135 12.0938 16.1134 13.2947 16.1134 14.7812V18.8125H10.7423V14.7812ZM37.598 33.1402C36.8846 33.4174 36.0706 33.5938 35.181 33.5938C33.2927 33.5938 31.6226 32.7623 30.498 32.0316C30.1539 31.8049 29.8434 31.5781 29.5832 31.3766C29.3482 31.5781 29.0713 31.7965 28.7608 32.0064C27.6782 32.7539 26.0668 33.5938 24.1701 33.5938C22.2735 33.5938 20.6621 32.7539 19.5879 32.0064C19.2941 31.8049 19.0256 31.5949 18.799 31.4018C18.5724 31.5949 18.3038 31.7965 18.0101 32.0064C16.9359 32.7539 15.3245 33.5938 13.4279 33.5938C11.5312 33.5938 9.91983 32.7539 8.8456 32.0064C8.53508 31.7881 8.25813 31.5697 8.02314 31.3766C7.76298 31.5781 7.45246 31.8049 7.10837 32.0316C5.97539 32.7623 4.30531 33.5938 2.41701 33.5938C1.52742 33.5938 0.713355 33.409 0 33.1402V40.3125C0 41.799 1.20011 43 2.68557 43H34.9124C36.3979 43 37.598 41.799 37.598 40.3125V33.1402Z" fill="#441E1E"/>
</g>
<defs>
<clipPath id="clip0_359_12755">
<rect width="37.598" height="43" fill="white"/>
</clipPath>
</defs>
</svg>
