<svg width="18" height="19" viewBox="0 0 18 19" fill="none" xmlns="http://www.w3.org/2000/svg">
<g id="Double fl&#195;&#168;che 2">
<path id="Vector" d="M16.5445 10.3385C16.9839 9.87466 16.9839 9.12134 16.5445 8.65747L10.9195 2.71997C10.48 2.2561 9.76636 2.2561 9.3269 2.71997C8.88745 3.18384 8.88745 3.93716 9.3269 4.40103L14.1574 9.49985L9.33042 14.5987C8.89097 15.0625 8.89097 15.8159 9.33042 16.2797C9.76987 16.7436 10.4835 16.7436 10.923 16.2797L16.548 10.3422L16.5445 10.3385ZM4.16948 16.276L9.79448 10.3385C10.2339 9.87466 10.2339 9.12134 9.79448 8.65747L4.16948 2.71997C3.73003 2.2561 3.01636 2.2561 2.5769 2.71997C2.13745 3.18384 2.13745 3.93716 2.5769 4.40103L7.40737 9.49985L2.58042 14.5987C2.14097 15.0625 2.14097 15.8159 2.58042 16.2797C3.01987 16.7436 3.73354 16.7436 4.173 16.2797L4.16948 16.276Z" fill="#862D2D"/>
</g>
</svg>
