<svg width="18" height="19" viewBox="0 0 18 19" fill="none" xmlns="http://www.w3.org/2000/svg">
<g id="Double fl&#195;&#168;che 2">
<path id="Vector" d="M16.5447 10.3385C16.9842 9.87466 16.9842 9.12134 16.5447 8.65747L10.9197 2.71997C10.4803 2.2561 9.7666 2.2561 9.32715 2.71997C8.88769 3.18384 8.88769 3.93716 9.32715 4.40103L14.1576 9.49985L9.33066 14.5987C8.89121 15.0625 8.89121 15.8159 9.33066 16.2797C9.77012 16.7436 10.4838 16.7436 10.9232 16.2797L16.5482 10.3422L16.5447 10.3385ZM4.16973 16.276L9.79473 10.3385C10.2342 9.87466 10.2342 9.12134 9.79473 8.65747L4.16973 2.71997C3.73027 2.2561 3.0166 2.2561 2.57715 2.71997C2.1377 3.18384 2.1377 3.93716 2.57715 4.40103L7.40762 9.49985L2.58066 14.5987C2.14121 15.0625 2.14121 15.8159 2.58066 16.2797C3.02012 16.7436 3.73379 16.7436 4.17324 16.2797L4.16973 16.276Z" fill="#441E1E"/>
</g>
</svg>
