<svg width="76" height="46" viewBox="0 0 76 46" fill="none" xmlns="http://www.w3.org/2000/svg">
<g id="Fl&#195;&#168;che maison 2 1" clip-path="url(#clip0_49_12)">
<g id="Group">
<g id="Group_2">
<path id="Vector" d="M2.13014 0.209987C3.85014 -0.310012 5.03014 0.229988 6.20014 0.849988C9.69014 2.59999 13.0101 4.65999 16.1401 6.97999C28.2001 16.11 37.5601 30.34 37.9301 45.74C36.3601 41.11 34.7301 36.47 32.3701 32.2C26.6301 21.75 17.0901 13.8 6.51014 8.58999C5.46014 8.06999 4.39014 7.59999 3.32014 7.15999C2.25014 6.75999 1.15014 6.31999 0.54014 4.98999C-0.54986 3.17999 0.0201399 0.869987 2.13014 0.209987Z" fill="black" fill-opacity="0.73"/>
</g>
<g id="Group_3">
<path id="Vector_2" d="M75.3397 4.98C74.7297 6.31 73.6297 6.75 72.5597 7.15C69.3197 8.49 66.1897 10.13 63.2197 12.01C55.1797 17 48.0997 23.82 43.5097 32.18C41.1497 36.45 39.5197 41.09 37.9497 45.72C38.0797 35.58 42.5697 25.75 48.6897 17.76C53.4497 11.66 59.5097 6.56 66.2297 2.69C67.3497 2.04 68.4997 1.42 69.6797 0.830002C70.8497 0.210002 72.0297 -0.319998 73.7497 0.190002C75.8497 0.840002 76.4397 3.17 75.3397 4.96V4.98Z" fill="black" fill-opacity="0.73"/>
</g>
</g>
<g id="Group_4">
<g id="Group_5">
<path id="Vector_3" d="M23.7802 1.22997C25.1302 0.649969 25.8502 1.65997 26.9102 2.12997C33.0602 5.75997 38.0402 12.48 37.9402 19.81C36.7802 17.04 35.7502 14.46 33.8902 12.17C31.5102 9.30997 28.4702 7.05997 25.1202 5.48997C24.3102 4.96997 23.1602 5.10997 22.8702 3.94997L22.7402 3.32997C22.5502 2.44997 23.0002 1.57997 23.7802 1.21997V1.22997Z" fill="#862D2D"/>
</g>
<g id="Group_6">
<path id="Vector_4" d="M53.01 3.95979C52.86 4.65979 52.43 4.81979 52.01 4.95979C47.33 6.87979 42.97 10.0998 40.39 14.5198C39.37 16.1498 38.77 17.9698 37.94 19.8198C37.8 15.7198 39.54 11.6798 41.95 8.40979C44.13 5.42979 47.09 3.04979 50.37 1.35979C50.84 1.08979 51.33 0.869789 52.1 1.23979C53.21 1.76979 53.35 2.91979 53.01 3.96979V3.95979Z" fill="#862D2D"/>
</g>
</g>
</g>
<defs>
<clipPath id="clip0_49_12">
<rect width="75.88" height="45.73" fill="white"/>
</clipPath>
</defs>
</svg>
