<svg width="457" height="361" viewBox="0 0 457 361" fill="none" xmlns="http://www.w3.org/2000/svg">
<g clip-path="url(#clip0_517_86)">
<path d="M264.469 119.186C267.667 126.545 269.385 150.696 268.874 156.373C267.905 167.063 265.456 171.703 263.432 174.575C262.411 176.02 259.996 179.368 255.813 181.816C247.921 186.438 239.196 184.671 233.533 183.447C218.09 180.099 192.681 155.897 191.388 154.639" stroke="black" stroke-width="1.43846" stroke-miterlimit="10"/>
<path d="M250.285 192.047C251.578 192.2 256.493 192.914 260.235 197.129C260.422 197.35 264.963 202.635 263.908 209.281C263.534 211.66 262.309 215.042 250.2 224.934C240.268 233.041 239.723 231.902 237.683 234.689C232.869 241.267 234.655 250.19 238.431 267.746C241.152 280.391 243.533 292.509 246.595 305.375C247.173 307.771 160.111 279.983 161.591 280.697C159.159 286.935 156.727 293.172 154.278 299.393C159.788 301.823 243.465 341.202 257.445 342.681C262.36 343.191 264.061 343.837 265.711 343.038C276.273 338.007 265.32 207.088 268.84 149.302" stroke="black" stroke-width="1.43846" stroke-miterlimit="10"/>
<path d="M158.615 232.395L135.434 298.305L98.3743 285.677L121.879 215.994L158.615 232.395Z" stroke="black" stroke-width="1.43846" stroke-miterlimit="10"/>
<path d="M98.3742 285.677C90.9589 285.524 51.4675 284.266 31.9259 278.947C11.84 273.491 -1.834 267.882 1.82261 258.994C5.03702 251.193 6.8058 225.801 9.08481 214.855C10.8196 206.494 17.4695 187.662 22.5547 183.464C27.725 179.181 42.4535 177.873 47.1306 178.977C51.8076 180.082 121.862 215.994 121.862 215.994" stroke="black" stroke-width="1.43846" stroke-miterlimit="10"/>
<path d="M264.639 119.458C271.663 116.602 284.912 108.138 291.46 96.5813C292.072 95.5105 292.532 94.5927 292.838 93.9469C291.783 95.3576 289.964 97.448 287.157 99.2156C284.929 100.626 282.956 101.255 280.711 101.986C276.187 103.431 274.946 103.006 271.476 104.246C269.861 104.824 267.514 105.844 264.86 107.765C267.718 106.371 271.306 104.28 275.065 101.221C279.181 97.8559 280.439 95.4765 283.314 92.7402C286.341 89.8849 291.205 86.4517 299.216 84.3443C292.77 82.9166 288.263 83.8344 285.303 84.9561C283.433 85.6699 283.739 85.8739 277.293 89.409C270.881 92.9272 269.759 93.1651 267.156 95.0516C265.354 96.3603 262.82 98.4848 260.217 101.799C261.765 95.6635 264.826 92.4343 266.476 90.9896C268.041 89.596 270.303 88.5082 274.793 86.3328C278.977 84.3103 281.749 82.9846 285.661 82.1518C288.705 81.489 291.273 81.387 292.974 81.387C289.045 79.8404 285.78 79.4835 283.62 79.4155C281.273 79.3475 282.14 79.6874 273.84 80.5202C270.575 80.8431 268.415 80.9961 265.439 81.9988C263.925 82.5087 262.735 83.0526 261.935 83.4605C263.007 82.2708 264.877 80.4862 267.65 79.2455C272.548 77.0701 275.235 78.9056 280.575 76.4922C281.902 75.8973 284.572 74.6566 286.749 71.9713C288.79 69.4729 288.314 68.2662 290.253 65.7848C293.365 61.8078 297.464 61.196 297.26 60.4991C297.022 59.6833 291.086 59.5814 286.273 62.8276C283.092 64.969 283.637 66.3967 280.388 68.4532C278.347 69.7279 277.293 69.7109 270.728 71.4104C266.102 72.6171 263.789 73.212 262.82 73.6369C259.928 74.9116 256.153 77.7159 252.938 84.7012C253.244 81.5739 254.231 77.0361 257.666 73.6199C261.969 69.337 265.405 71.4614 271.697 67.1275C277.463 63.1335 281.545 56.5221 282.429 49.9107C282.667 48.1772 282.633 46.7325 282.565 45.7298C282.106 47.0894 281.273 49.0779 279.64 51.1004C277.514 53.7518 274.895 55.3834 270.728 57.2189C262.939 60.6521 262.513 59.1904 258.125 61.4849C248.261 66.6346 244.043 77.376 243.295 79.2625C242.972 80.0783 242.734 80.7751 242.598 81.234C242.649 78.7187 243.057 75.6424 244.315 72.3622C248.635 61.077 259.928 56.1312 263.228 54.6696C266.935 53.038 270.184 52.2562 272.327 51.8653C268.823 49.7238 265.745 49.3839 264.163 49.3159C258.874 49.1289 253.482 51.6103 250.047 55.0095C248.057 56.981 247.207 58.7826 243.89 61.23C242.257 62.4367 240.778 63.2525 239.757 63.7623C240.744 61.3999 242.445 58.1707 245.302 54.9245C249.775 49.8597 254.112 49.7748 258.721 45.8147C261.391 43.5203 264.673 39.6113 266.714 32.575C265.779 33.3908 264.333 34.6315 262.598 36.1611C257.054 41.0559 255.983 42.2626 254.01 43.7922C249.214 47.5313 245.676 48.0922 243.21 49.4349C238.55 52.0012 233.924 59.4794 234.723 81.489C233.924 79.4495 232.92 76.4752 232.291 72.7701C231.492 68.0623 230.522 62.3007 232.665 56.828C235.437 49.8088 240.2 51.2704 244.605 43.1124C245.897 40.733 248.533 34.9374 247.632 27.7822C247.071 23.3803 245.387 20.1171 244.196 18.2305C244.094 19.6412 243.805 21.7487 243.006 24.1791C242.155 26.7114 240.676 29.7877 236.407 34.7845C230.233 42.0077 229.06 40.597 226.798 44.591C223.362 50.6755 224.247 57.2019 224.553 59.4114C225.046 63.0315 226.202 65.8358 227.087 67.6204C225.216 65.4109 221.695 60.6351 220.437 53.5478C219.791 49.9107 218.26 41.4298 223.022 34.8524C226.628 29.8727 231.288 29.4818 236.832 21.6127C237.989 19.9811 238.805 18.5534 239.315 17.6017C237.597 19.0633 234.859 21.2048 231.186 23.2103C227.308 25.3178 224.842 25.9636 223.396 26.6435C219.689 28.411 215.607 33.9517 214.858 51.2194C214.11 49.7068 210.743 42.4836 213.634 33.5438C215.726 27.1023 222.546 26.2186 225.267 19.3862C227.172 14.5934 226.338 9.88557 225.42 6.80933C225.131 8.91681 224.434 12.044 222.58 15.3582C218.804 22.0716 212.954 24.57 210.539 26.5585C205.521 30.6545 203.344 42.2456 215.607 75.0136C211.355 69.048 208.6 63.6603 206.831 59.7513C203.344 52.0352 201.371 47.5313 201.899 41.5148C202.358 36.1781 204.212 36.3141 204.79 30.3655C205.13 26.8134 205.912 18.8764 201.252 13.5737C198.939 10.9393 196.388 10.1915 192.289 5.10975C191.337 3.93704 190.623 2.91729 190.147 2.22046C189.347 7.40418 189.823 11.3982 190.504 14.2365C191.15 16.9218 191.762 17.6867 192.119 20.0491C192.885 25.0289 191.133 28.0711 190.3 31.7932C188.565 39.4923 191.643 46.2736 196.099 56.0972C198.038 60.3632 200.096 63.7793 201.797 66.3117C198.021 62.9125 192.732 57.2189 189.534 48.84C186.048 39.6962 187.748 34.4615 184.891 26.3375C182.918 20.7289 178.513 12.9618 167.288 5.53464C168.156 8.45793 169.601 12.8428 171.931 17.9416C175.027 24.6549 177.051 26.9324 178.82 31.0114C182.578 39.7302 180.622 46.4266 180.894 52.0012C181.269 60.1762 186.575 71.3085 208.43 84.0723C204.705 83.4775 192.732 81.0811 183.122 70.5267C180.469 67.6204 169.414 55.5533 172.085 43.4353C172.578 41.1579 173.462 39.3563 172.935 36.637C171.846 30.9434 165.809 27.4423 160.758 25.3518C161.948 27.3233 163.496 30.4335 164.142 34.4955C165.146 40.75 163.088 43.4523 163.054 50.0467C163.054 52.1372 163.003 59.3944 167.067 65.8698C171.642 73.161 179.194 75.9653 182.731 77.0021C173.496 76.6452 168.666 73.6709 165.945 70.9176C161.2 66.1247 161.863 60.975 156.71 52.953C152.356 46.1717 148.257 46.7835 146.573 42.0417C144.447 36.0931 147.73 29.3628 150.876 24.57C149.107 25.7257 144.941 28.7849 142.594 34.3426C139.668 41.2939 141.573 47.4123 142.185 49.2309C143.614 53.5648 146.08 56.2332 147.322 57.6438C156.353 67.9943 155.451 75.1155 162.56 86.0269C166.234 91.6525 172.442 98.9097 183.514 105.47C174.551 103.397 169.329 99.6405 166.268 96.6832C160.809 91.4145 159.907 86.4857 152.322 74.9626C148.291 68.8441 147.645 66.2947 144.532 64.2212C139.243 60.6861 132.814 60.89 128.443 61.5529C130.824 63.0485 134.056 65.5639 136.454 69.5749C139.804 75.1835 138.087 78.0048 140.349 83.5455C143.75 91.8904 151.931 96.0374 158.768 99.5045C164.397 102.36 169.669 103.821 173.785 104.603C174.619 104.756 162.526 104.977 150.859 101.731C145.961 100.371 143.478 99.7935 141.012 98.3658C130.263 92.1114 128.698 76.7471 128.409 70.5946C127.015 73.331 125.076 78.0048 124.753 83.9704C124.6 86.9276 124.089 96.7172 130.28 103.091C132.882 105.759 135.825 106.983 150.774 109.719C161.064 111.589 166.642 109.311 173.53 113.339C176.507 115.073 178.496 117.146 179.653 118.523C177.391 117.707 173.887 116.619 169.482 116.007C160.468 114.75 156.285 116.653 149.567 115.651C141.726 114.478 142.866 110.365 134.345 108.546C128.477 107.289 125.841 108.444 121.215 106.286C117.15 104.382 114.582 101.34 113.035 99.0117C113.885 107.561 116.827 110.739 119.242 112.098C122.797 114.07 125.161 112.098 131.165 113.883C137.508 115.77 136.811 118.591 142.679 120.443C147.9 122.109 149.856 120.307 159.38 120.987C163.632 121.293 167.067 121.922 169.261 122.398C164.72 127.055 160.826 128.227 158.36 128.55C155.383 128.941 152.611 128.329 137.814 121.514C130.518 118.149 129.345 117.452 126.811 117.401C120.739 117.299 115.569 121.191 112.099 124.556C114.837 124.658 119.072 125.168 123.375 127.395C131.028 131.355 130.416 136.351 136.454 139.36C144.805 143.524 155.74 138.833 162.22 136.046C168.224 133.462 172.68 130.25 175.571 127.854C175.724 130.08 175.605 133.292 174.006 136.623C169.261 146.515 155.893 148.198 152.662 148.605C149.924 148.945 139.192 150.135 130.297 143.218C127.219 140.821 125.297 138.17 124.157 136.317C124.464 138.799 125.688 146.345 132.117 151.682C141.063 159.126 153.07 156.475 154.142 156.22C161.302 154.537 163.071 150.73 174.142 147.263C177.935 146.073 181.133 145.461 183.224 145.121C180.843 149.03 178.275 151.648 176.524 153.211C175.061 154.52 165.469 162.848 152.373 162.321C149.907 162.219 147.934 161.845 146.726 161.556C153.921 166.502 159.142 166.264 161.812 165.754C163.734 165.38 166.54 163.953 172.119 161.08C180.231 156.916 179.687 156.475 182.442 155.744C187.833 154.299 187.902 156.458 190.895 154.826C192.817 153.364 191.082 145.58 190.504 140.889C189.024 128.788 192.562 117.605 193.208 116.364C194.739 113.424 200.521 101.867 210.113 101.731C215.045 101.646 218.77 104.62 220.488 106.252C217.359 102.989 214.093 99.0627 215.148 97.533C215.573 96.9212 216.542 96.9212 217.818 96.8362C223.022 96.4963 224.995 95.1706 227.665 94.8307C233.363 94.0999 239.094 98.2468 242.615 100.847C255.489 110.365 261.221 120.732 264.571 119.373L264.639 119.458Z" stroke="#AE1B40" stroke-width="1.43846" stroke-miterlimit="10"/>
<path d="M312.436 162.721H297.018V130.49H299.513V160.383H312.436V162.721ZM316.122 162.721L328.327 130.49H330.754L342.846 162.721H340.082L336.485 153.034H322.438L318.842 162.721H316.122ZM323.337 150.651H335.586L330.192 136.087C330.042 135.682 329.922 135.338 329.833 135.053C329.743 134.753 329.63 134.386 329.495 133.952H329.406C329.271 134.401 329.151 134.776 329.046 135.075C328.941 135.36 328.829 135.69 328.709 136.064L323.337 150.651ZM314.998 193.828H305.693V223.721H303.221V193.828H293.916V191.49H314.998V193.828ZM336.216 223.721H320.213V191.49H335.497V193.828H322.708V206.234H334.553V208.572H322.708V221.383H336.216V223.721ZM324.236 188.523H322.281L327.225 180.994H328.574L333.474 188.523H331.406L327.855 183.197L324.236 188.523ZM360.804 193.828H351.499V223.721H349.027V193.828H339.722V191.49H360.804V193.828ZM382.022 223.721H366.019V191.49H381.302V193.828H368.514V206.234H380.358V208.572H368.514V221.383H382.022V223.721ZM313.021 284.721H297.018V252.49H312.301V254.828H299.513V267.234H311.357V269.572H299.513V282.383H313.021V284.721ZM344.262 284.721H342.172L323.427 258.739C323.217 258.469 323.022 258.207 322.843 257.952C322.663 257.682 322.438 257.353 322.168 256.963H322.056C322.071 257.173 322.086 257.427 322.101 257.727C322.116 258.027 322.123 258.379 322.123 258.784V284.721H319.629V252.49H321.876L340.441 278.225C340.651 278.51 340.861 278.81 341.071 279.124C341.28 279.424 341.498 279.761 341.722 280.136H341.835C341.805 279.611 341.782 279.102 341.767 278.607C341.767 278.098 341.767 277.596 341.767 277.101V252.49H344.262V284.721Z" fill="black"/>
<path d="M313.066 316.097H300.322V328.437H312.144V330.999H300.322V345.721H297.467V313.49H313.066V316.097ZM340.554 345.721H337.227L332.44 336.393C331.466 334.55 330.552 333.321 329.698 332.707C328.844 332.093 327.78 331.801 326.506 331.831H322.618V345.721H319.763V313.49H328.776C331.563 313.49 333.841 314.232 335.609 315.715C337.377 317.199 338.261 319.304 338.261 322.031C338.261 324.279 337.639 326.189 336.396 327.762C335.167 329.336 333.429 330.407 331.181 330.977V331.066C331.87 331.366 332.522 331.846 333.137 332.505C333.751 333.164 334.373 334.071 335.002 335.224L340.554 345.721ZM322.618 316.097V329.246H328.012C330.185 329.246 331.938 328.617 333.271 327.358C334.62 326.099 335.294 324.414 335.294 322.301C335.294 320.353 334.695 318.832 333.496 317.738C332.297 316.644 330.567 316.097 328.304 316.097H322.618ZM349.409 345.721H346.555V313.49H349.409V345.721ZM380.336 344.305C378.868 344.994 377.429 345.496 376.021 345.811C374.627 346.125 373.114 346.283 371.48 346.283C366.895 346.283 363.224 344.807 360.467 341.855C357.725 338.888 356.354 335.015 356.354 330.235C356.354 324.99 357.868 320.802 360.894 317.671C363.921 314.524 367.817 312.951 372.582 312.951C373.93 312.951 375.226 313.078 376.47 313.333C377.729 313.573 379.01 313.962 380.313 314.502L379.302 316.907C378.148 316.412 377.024 316.06 375.931 315.85C374.852 315.64 373.683 315.536 372.424 315.536C368.529 315.536 365.367 316.847 362.94 319.469C360.527 322.091 359.321 325.605 359.321 330.01C359.321 334.221 360.467 337.554 362.76 340.012C365.052 342.454 368.019 343.675 371.66 343.675C372.994 343.675 374.267 343.541 375.481 343.271C376.71 342.986 377.961 342.552 379.235 341.967L380.336 344.305ZM410.723 345.721H407.891V330.572H390.135V345.721H387.281V313.49H390.135V327.987H407.891V313.49H410.723V345.721ZM435.851 345.721H419.511V313.49H435.11V316.097H422.366V328.122H434.188V330.707H422.366V343.136H435.851V345.721Z" fill="#A8072B"/>
</g>
<defs>
<clipPath id="clip0_517_86">
<rect width="455.512" height="359.615" fill="white" transform="translate(0.598145 0.520996)"/>
</clipPath>
</defs>
</svg>
