<?xml version="1.0" encoding="UTF-8"?>
<svg id="Calque_1" data-name="Calque 1" xmlns="http://www.w3.org/2000/svg" viewBox="0 0 36 36">
  <g id="Calque_1-2" data-name="Calque 1-2">
    <g>
      <path d="m36,18.02l-.05.04-.05-.04s-.03.03-.04.04c-1.3-1.45-2.95-2.62-4.74-3.42.03-.03.05-.07.08-.1,1.81.8,3.49,2,4.8,3.48h0Z"/>
      <path d="m35.95,18.06l.05.04c-1.38,1.54-3.03,2.73-4.84,3.5-.02-.03-.05-.07-.08-.1,1.78-.76,3.42-1.93,4.78-3.44.01.01.03.03.04.04l.05-.04h0Z"/>
      <path d="m35.95,18.06l-.05.04s-.02-.03-.04-.04c.01-.01.03-.03.04-.04l.05.04h0Z"/>
      <path d="m33.58,9.08h.06c-.42,2.03-1.26,3.89-2.44,5.47-.04-.02-.08-.04-.12-.05,1.16-1.55,2-3.38,2.42-5.37.02,0,.04.01.05.02l.02-.06h0Z"/>
      <path d="m33.56,26.86l.04.12s-.02,0-.03.01c0-.04-.02-.08-.02-.13h.01s0,0,0,0Z"/>
      <path d="m33.6,9.02l-.02.06h-.06s0,.03-.01.04c-1.85-.61-3.87-.8-5.81-.59l.02-.13c1.97-.21,4.02,0,5.89.61h0Z"/>
      <path d="m33.58,9.08l-.02.06s-.04-.01-.05-.02c0-.02,0-.04.01-.06h.06s0,.01,0,.01Z"/>
      <path d="m33.57,26.99s0,.02,0,.03l-.12.02s0,0,0-.01c.04-.01.08-.03.12-.04Z"/>
      <path d="m33.55,26.86s.02.08.02.13c-.04.01-.08.03-.12.04,0-.04-.02-.08-.02-.12.04-.01.08-.03.12-.04h0Z"/>
      <path d="m33.55,26.86s-.08.03-.12.04c-.37-1.88-1.19-3.67-2.38-5.25.04-.02.08-.03.12-.05,1.19,1.59,2.01,3.37,2.38,5.26h0Z"/>
      <path d="m33.43,26.91s.02.08.02.12c-1.31.45-2.7.67-4.11.67-.58,0-1.17-.04-1.76-.11,0-.04-.01-.09-.02-.13,2.01.26,4,.08,5.86-.55h0Z"/>
      <path d="m35.87,18.06c-1.36,1.51-3,2.68-4.78,3.44-.84-1.11-1.87-2.11-3.05-2.98-.25-.19-.53-.37-.81-.53.5-.27.95-.56,1.36-.83.96-.71,1.81-1.56,2.54-2.51,1.79.79,3.44,1.97,4.74,3.42h0Z"/>
      <path d="m33.5,9.12c-.42,1.99-1.26,3.82-2.42,5.37-1.47-.64-3.02-1.02-4.54-1.09-.19,0-.38-.01-.57,0,.3-.49.55-.97.77-1.41.48-1.1.79-2.26.94-3.45,1.94-.21,3.96-.02,5.81.59Z"/>
      <path d="m31.04,21.66c1.19,1.58,2.01,3.37,2.38,5.25-1.86.63-3.85.81-5.86.55-.18-1.34-.56-2.68-1.13-3.98-.12-.29-.27-.58-.43-.86.12,0,.24,0,.36,0,.43,0,.84-.02,1.23-.04,1.19-.14,2.35-.45,3.46-.91h0Z"/>
      <path d="m31.09,14.49s.08.03.12.05c-.03.04-.05.07-.08.1-.04-.02-.08-.04-.12-.05.03-.03.05-.07.08-.1h0Z"/>
      <path d="m31.01,14.59s.08.03.12.05c-.73.95-1.58,1.8-2.54,2.51-.41.27-.86.56-1.36.83-.04-.03-.09-.05-.13-.07.52-.28.99-.57,1.42-.86.94-.7,1.78-1.53,2.49-2.46h0Z"/>
      <path d="m31.09,21.5s.05.07.08.1c-.04.02-.08.04-.12.05-.03-.04-.05-.07-.08-.1.04-.02.08-.03.12-.05h0Z"/>
      <path d="m31.09,14.49s-.05.07-.08.1c-1.45-.63-2.98-1-4.47-1.06-.22,0-.43-.01-.64,0,.03-.04.05-.08.08-.13.19,0,.38,0,.57,0,1.52.07,3.07.45,4.54,1.09h0Z"/>
      <path d="m30.97,21.55s.05.07.08.1c-1.11.46-2.27.77-3.46.91-.39.02-.8.04-1.23.04-.12,0-.24,0-.36,0-.03-.04-.05-.09-.08-.13.59.02,1.15,0,1.66-.03,1.16-.13,2.3-.43,3.39-.89h0Z"/>
      <path d="m31.09,21.5s-.08.03-.12.05c-.83-1.09-1.84-2.07-3.01-2.93-.27-.21-.56-.39-.87-.56.04-.02.09-.05.13-.07.28.16.55.34.81.53,1.18.87,2.21,1.88,3.05,2.98h0Z"/>
      <path d="m31.01,14.59c-.72.93-1.55,1.76-2.49,2.46-.43.28-.9.58-1.42.86-1.25-.68-2.77-1.06-4.48-1.11.08-.05.16-.09.25-.14,1.36-.85,2.32-2.01,3.03-3.14.21,0,.43,0,.64,0,1.49.06,3.02.44,4.47,1.06h0Z"/>
      <path d="m27.96,18.62c1.16.86,2.17,1.84,3.01,2.93-1.09.45-2.23.75-3.39.89-.51.03-1.07.05-1.66.03-.75-1.21-1.87-2.3-3.32-3.2.09,0,.18,0,.28,0,1.61-.05,3.03-.58,4.22-1.22.31.17.6.36.87.56h0Z"/>
      <path d="m27.09,2.46c.64,1.96.85,3.99.61,5.94-.04,0-.09,0-.13.01.23-1.92.04-3.92-.59-5.86.02,0,.04,0,.05-.01v-.06s.05-.02.05-.02h0Z"/>
      <path d="m27.71,8.4l-.02.13s-.09,0-.13.01c0-.04.01-.09.02-.13.04,0,.09,0,.13-.01h0Z"/>
      <path d="m27.58,27.58c.26,2.01.08,4.01-.55,5.87-.04,0-.08-.02-.12-.02.63-1.86.81-3.85.55-5.86.04,0,.09.01.13.02h0Z"/>
      <path d="m27.56,8.55s.09-.01.13-.01c-.15,1.19-.47,2.35-.94,3.45-.22.45-.48.93-.77,1.41-.05,0-.1,0-.15,0,.31-.5.58-1.01.81-1.47.47-1.08.78-2.21.93-3.38h0Z"/>
      <path d="m26.99,2.56c.63,1.93.82,3.93.59,5.86-1.59.18-3.13.63-4.47,1.33-.15.08-.3.16-.45.25,0-.52-.02-1.05-.08-1.58-.13-1.17-.45-2.31-.94-3.43,1.59-1.16,3.44-2.02,5.36-2.42Z"/>
      <path d="m27.57,27.45s.01.09.02.13c-.04,0-.09-.01-.13-.02,0-.04-.01-.09-.02-.13.04,0,.09.01.13.02h0Z"/>
      <path d="m27.58,8.42s-.01.09-.02.13c-1.56.18-3.07.62-4.4,1.31-.18.09-.35.19-.51.29,0-.05,0-.1,0-.15.15-.09.3-.17.45-.25,1.35-.7,2.88-1.15,4.47-1.33h0Z"/>
      <path d="m27.57,27.45s-.09-.01-.13-.02c-.18-1.31-.56-2.63-1.12-3.92-.13-.31-.29-.62-.47-.92.05,0,.1,0,.15,0,.17.28.31.57.43.86.57,1.31.95,2.65,1.13,3.98h0Z"/>
      <path d="m27.45,27.57c.26,2.01.08,4.01-.55,5.86-1.92-.38-3.74-1.23-5.35-2.46.51-1.25.85-2.6,1.01-4.02.04-.31.06-.63.05-.95.28.16.56.3.85.43,1.31.57,2.65.95,3.99,1.13h0Z"/>
      <path d="m27.43,27.43s.01.09.02.13c-1.34-.18-2.68-.56-3.99-1.13-.29-.12-.57-.26-.85-.43,0-.05,0-.1,0-.15.29.18.59.33.9.46,1.28.56,2.6.94,3.92,1.12h0Z"/>
      <path d="m27.09,17.92s.09.05.13.07c-.04.02-.09.05-.13.07-.04-.02-.09-.05-.13-.07.05-.02.09-.05.13-.07h0Z"/>
      <path d="m26.96,17.99s.09.05.13.07c-1.19.63-2.6,1.16-4.22,1.22-.09,0-.19,0-.28,0-.07-.04-.14-.09-.22-.13.16,0,.33,0,.5,0,1.55-.05,2.93-.56,4.08-1.16h0Z"/>
      <path d="m27.09,17.92s-.09.05-.13.07c-1.27-.67-2.83-1.03-4.56-1.06.07-.04.15-.08.22-.12,1.7.05,3.22.43,4.48,1.11h0Z"/>
      <path d="m27.03,2.48v.06s-.02,0-.04.01c0-.02-.01-.04-.02-.05l.06-.02h0Z"/>
      <path d="m27.04,33.45l-.02.13s-.02,0-.03,0c.02-.04.03-.08.04-.12,0,0,0,0,.01,0h0Z"/>
      <path d="m27.03,33.45s-.03.08-.04.12c-.04,0-.08-.02-.12-.02l.04-.12s.08.02.12.02Z"/>
      <path d="m27.02,2.42v.06s-.05.02-.05.02c0,.02.01.04.02.05-1.92.4-3.77,1.26-5.36,2.42-.02-.04-.03-.08-.05-.12,1.61-1.18,3.5-2.04,5.44-2.44Z"/>
      <path d="m26.99,33.57s0,.02,0,.03l-.12-.04s0,0,0-.01c.04,0,.08.02.12.02h0Z"/>
      <path d="m26.91,33.43l-.04.12c-1.92-.38-3.75-1.23-5.36-2.46.02-.04.03-.08.05-.12,1.61,1.23,3.43,2.08,5.35,2.46h0Z"/>
      <path d="m27.56,8.55c-.15,1.17-.46,2.3-.93,3.38-.23.46-.5.96-.81,1.47-1.54.03-2.97.39-4.25,1.05.66-1.28,1.03-2.75,1.08-4.3.17-.1.34-.2.51-.29,1.32-.69,2.83-1.13,4.4-1.31h0Z"/>
      <path d="m26.31,23.52c.56,1.28.94,2.6,1.12,3.92-1.32-.18-2.63-.56-3.92-1.12-.31-.13-.61-.28-.9-.46-.04-1.43-.47-2.95-1.28-4.45.08.05.16.09.24.14,1.43.76,2.91,1.01,4.26,1.06.18.3.34.61.47.92h0Z"/>
      <path d="m26,22.6s-.1,0-.15,0c-.03-.04-.05-.09-.08-.13.05,0,.1,0,.15,0,.03.04.05.09.08.13Z"/>
      <path d="m25.82,13.4c.05,0,.1,0,.15,0-.03.04-.05.08-.08.13-.05,0-.1,0-.15,0,.03-.04.05-.09.08-.13h0Z"/>
      <path d="m25.76,22.47s.05.09.08.13c-1.34-.05-2.83-.3-4.26-1.06-.08-.05-.16-.09-.24-.14-.04-.07-.08-.15-.12-.22.14.09.28.17.43.25,1.37.73,2.81.98,4.12,1.04h0Z"/>
      <path d="m25.74,13.53c.05,0,.1,0,.15,0-.71,1.14-1.67,2.29-3.03,3.14-.08.05-.16.09-.25.14-.08,0-.17,0-.25,0,.14-.08.29-.16.43-.24,1.31-.82,2.25-1.93,2.95-3.03h0Z"/>
      <path d="m25.82,13.4s-.05.09-.08.13c-1.55.05-2.99.43-4.28,1.12.04-.07.07-.13.11-.2,1.28-.66,2.72-1.02,4.25-1.05Z"/>
      <path d="m25.92,22.47c-.05,0-.1,0-.15,0-.77-1.22-1.93-2.31-3.42-3.2.08,0,.17,0,.25,0,1.44.9,2.57,1.99,3.32,3.2h0Z"/>
      <path d="m22.57,8.41c.07.54.09,1.06.08,1.58-.04.03-.08.05-.13.08.01-.54-.02-1.09-.08-1.64-.13-1.15-.44-2.27-.92-3.37.04-.03.07-.05.11-.08.49,1.12.81,2.27.94,3.43h0Z"/>
      <path d="m22.52,10.07s.08-.05.13-.08c0,.05,0,.1,0,.15l-.13.08c0-.05,0-.1,0-.15h0Z"/>
      <path d="m22.52,10.22l.13-.08c-.04,1.56-.41,3.02-1.08,4.3-.07.03-.13.07-.2.1.7-1.28,1.09-2.76,1.15-4.33h0Z"/>
      <path d="m22.62,26c0,.32-.02.64-.05.95-.16,1.41-.5,2.77-1.01,4.02-.04-.03-.07-.05-.1-.08.5-1.23.83-2.56.99-3.95.04-.33.06-.67.05-1.01.04.03.08.05.13.08h0Z"/>
      <path d="m22.62,25.86s0,.1,0,.15c-.04-.02-.09-.05-.13-.08,0-.05,0-.1,0-.15.04.03.09.05.13.08h0Z"/>
      <path d="m22.62,25.86s-.09-.05-.13-.08c-.05-1.45-.51-2.98-1.36-4.51.07.05.14.09.22.13.81,1.51,1.24,3.02,1.28,4.45h0Z"/>
      <path d="m22.44,8.43c.07.56.09,1.11.08,1.64-1.34.8-2.42,1.84-3.21,3.07-.07-1.44-.48-2.89-1.22-4.27.1-.17.2-.34.3-.5.79-1.25,1.87-2.38,3.12-3.31.48,1.1.79,2.23.92,3.37h0Z"/>
      <path d="m22.52,10.07c0,.05,0,.1,0,.15-1.34.82-2.42,1.88-3.19,3.15,0-.08,0-.15,0-.23.79-1.23,1.87-2.27,3.21-3.07Z"/>
      <path d="m22.49,25.93c0,.34-.01.68-.05,1.01-.15,1.39-.49,2.72-.99,3.95-1.05-.82-2-1.8-2.83-2.93-.21-.27-.39-.56-.56-.86.63-1.19,1.16-2.6,1.22-4.22,0-.09,0-.19,0-.28.9,1.45,2,2.59,3.22,3.33h0Z"/>
      <path d="m22.49,25.78s0,.1,0,.15c-1.22-.75-2.32-1.88-3.22-3.33,0-.08,0-.17,0-.25.9,1.5,2,2.67,3.22,3.44h0Z"/>
      <path d="m22.62,16.81c-.07.04-.15.08-.22.12-.05,0-.1,0-.15,0-.04,0-.08,0-.12,0,.08-.04.16-.08.24-.12.08,0,.17,0,.25,0h0Z"/>
      <path d="m22.38,19.14c.07.04.15.09.22.13-.08,0-.17,0-.25,0l-.13-.08s-.07-.04-.1-.06c.09,0,.18,0,.27.01h0Z"/>
      <path d="m22.24,16.92c.05,0,.1,0,.15,0-.83.44-1.66.78-2.47.99-.45.09-.89.13-1.33.16h0c-.11-.01-.23-.02-.34-.03.07-.03.13-.06.2-.09.48-.02.96-.06,1.45-.16.73-.2,1.48-.49,2.23-.87.04,0,.08,0,.12,0h0Z"/>
      <path d="m22.28,19.08s.07.04.1.06c-.09,0-.18,0-.27-.01-1.13-.67-2.38-.82-3.7-.94-.06-.03-.12-.06-.18-.1.12,0,.24,0,.36-.02h0c1.31.12,2.55.3,3.68,1h0Z"/>
      <path d="m22.25,16.8s.08,0,.12,0c-.08.04-.16.08-.24.12-1.31-.02-2.47.48-3.68,1.03-.05,0-.09,0-.14,0,.11-.08.22-.15.33-.23,1.17-.53,2.31-.97,3.6-.93h0Z"/>
      <path d="m22.21,19.19l.13.08c-.94-.03-1.82-.15-2.63-.37-.43-.14-.83-.33-1.22-.52-.09-.07-.19-.13-.28-.2,0,0,0,0,0,0,.07,0,.14.01.21.02.42.22.86.43,1.33.58.73.2,1.53.32,2.37.36.03.02.07.04.1.06h0Z"/>
      <path d="m18.45,17.96c1.2-.56,2.37-1.05,3.68-1.03-.75.38-1.5.68-2.23.87-.48.1-.97.14-1.45.16Z"/>
      <path d="m21.58,4.86s.04.08.05.12c-.04.02-.07.05-.11.08-.02-.04-.03-.08-.05-.12.03-.03.07-.05.11-.08Z"/>
      <path d="m21.58,4.86s-.07.05-.11.08c-.75-1.68-1.9-3.3-3.45-4.85l.09-.09c1.55,1.55,2.71,3.18,3.47,4.86h0Z"/>
      <path d="m21.57,14.45c-.03.07-.07.13-.11.2-.07.04-.14.08-.21.12.04-.07.08-.14.12-.21.07-.04.13-.07.2-.1h0Z"/>
      <path d="m21.56,30.97s-.03.08-.05.12c-.03-.03-.07-.05-.1-.08.02-.04.03-.08.05-.12.03.03.07.05.1.08h0Z"/>
      <path d="m21.47,4.94s.04.08.05.12c-1.25.93-2.33,2.06-3.12,3.31-.11.17-.21.33-.3.5-.02-.04-.05-.09-.07-.13.08-.15.17-.3.27-.44.81-1.27,1.9-2.42,3.18-3.36h0Z"/>
      <path d="m21.4,31.01s.07.05.1.08c-.78,1.87-1.94,3.51-3.41,4.8-.03-.03-.07-.06-.1-.08,1.47-1.29,2.63-2.93,3.4-4.8h0Z"/>
      <path d="m21.45,30.89s-.03.08-.05.12c-1.07-.83-2.04-1.83-2.88-2.98-.19-.25-.37-.53-.53-.81.02-.04.05-.09.07-.13.17.31.36.6.56.86.83,1.13,1.79,2.11,2.83,2.93h0Z"/>
      <path d="m21.37,14.56c-.04.07-.08.14-.12.21-.62.36-1.21.8-1.75,1.31-.47.47-.83,1.02-1.19,1.61.11-.24.22-.49.33-.74.23-.34.48-.66.78-.96.6-.57,1.25-1.05,1.96-1.43h0Z"/>
      <path d="m21.25,14.77c.07-.04.14-.08.21-.12-.48.87-1.09,1.65-1.84,2.32-.32.27-.65.52-.98.76-.15.07-.3.14-.45.21.01-.02.02-.04.03-.07.45-.32.9-.64,1.32-1,.68-.61,1.25-1.32,1.71-2.1h0Z"/>
      <path d="m21.22,21.18c.04.07.08.15.12.22-.07-.04-.15-.09-.22-.13-.02-.04-.05-.09-.07-.13-.02-.03-.04-.07-.06-.1.07.05.15.1.22.14h0Z"/>
      <path d="m21.16,21.08s.04.07.06.1c-.08-.05-.15-.09-.22-.14-.63-1.12-1.6-1.87-2.66-2.62-.03-.06-.06-.12-.09-.18.08.04.16.09.25.13,1.07.76,2.05,1.54,2.68,2.7h0Z"/>
      <path d="m18.02.09c1.55,1.55,2.7,3.17,3.45,4.85-1.27.95-2.37,2.09-3.18,3.36-.09.15-.18.29-.27.44-.25-.45-.54-.9-.86-1.33-.72-.97-1.58-1.82-2.6-2.55.75-1.65,1.89-3.25,3.42-4.77h.04,0Z"/>
      <path d="m21.05,21.14s.05.09.07.13c-.8-.5-1.5-1.05-2.09-1.64-.11-.12-.21-.25-.31-.38-.08-.2-.17-.39-.26-.58.2.3.42.59.66.87.54.54,1.16,1.04,1.87,1.49.02.03.04.07.06.1h0Z"/>
      <path d="m21.4,31.01c-.78,1.87-1.93,3.51-3.4,4.8-1.44-1.26-2.58-2.86-3.35-4.68.95-.73,1.8-1.58,2.52-2.54.27-.41.56-.86.83-1.36.16.29.34.56.53.81.84,1.15,1.82,2.15,2.88,2.98Z"/>
      <path d="m21,21.04c-.71-.46-1.33-.96-1.87-1.49-.25-.28-.46-.57-.66-.87-.04-.09-.08-.17-.13-.26,1.06.75,2.03,1.5,2.66,2.62Z"/>
      <path d="m18.41,18.19c1.32.12,2.57.28,3.7.94-.84-.04-1.64-.16-2.37-.36-.47-.16-.91-.36-1.33-.58h0Z"/>
      <path d="m21.25,14.77c-.45.79-1.03,1.49-1.71,2.1-.42.36-.87.68-1.32,1,.03-.06.05-.12.08-.18,0,0,0,0,0,0,.36-.58.72-1.14,1.19-1.61.54-.51,1.13-.95,1.75-1.31h0Z"/>
      <path d="m19.33,13.37c.02.99-.12,1.98-.43,2.92-.08.22-.17.44-.25.65-.15.22-.29.45-.44.68.21-.45.41-.91.57-1.37.29-.87.43-1.77.43-2.67.04-.07.08-.14.12-.21h0Z"/>
      <path d="m19.32,13.14c0,.08,0,.15,0,.23-.04.07-.08.14-.12.21,0-.08,0-.16,0-.25.04-.07.08-.13.12-.19h0Z"/>
      <path d="m19.32,13.14c-.04.06-.08.13-.12.19-.04-1.46-.43-2.93-1.17-4.32.02-.04.05-.09.07-.13.74,1.37,1.15,2.82,1.22,4.27h0Z"/>
      <path d="m19.27,22.6c0,.09,0,.18,0,.28-.05,1.61-.58,3.03-1.22,4.22-.02-.04-.05-.09-.07-.13.61-1.16,1.11-2.53,1.16-4.09,0-.17,0-.33,0-.49.04.07.09.15.13.22h0Z"/>
      <path d="m19.27,22.34c0,.08,0,.17,0,.25-.05-.07-.09-.14-.13-.22,0-.09,0-.18-.01-.27.02.03.04.07.06.1l.08.13h0Z"/>
      <path d="m19.27,22.34l-.08-.13s-.04-.07-.06-.1c-.04-.84-.16-1.63-.36-2.37-.12-.35-.26-.68-.42-1,.12.17.24.34.37.51.06.15.12.3.17.45.22.81.34,1.7.37,2.64h0Z"/>
      <path d="m19.2,13.33c0,.08,0,.16,0,.25-.36.62-.65,1.29-.86,2.01-.17.65-.21,1.31-.23,2-.03-.27-.05-.54-.09-.81.03-.41.09-.81.19-1.22.24-.79.56-1.54.98-2.22h0Z"/>
      <path d="m19.14,22.38s-.04-.07-.06-.1c-.7-1.13-.88-2.36-1-3.67,0-.09,0-.18.01-.27.03.05.07.11.11.17.12,1.29.28,2.51.94,3.61,0,.09,0,.18.01.27h0Z"/>
      <path d="m19.2,13.58c0,.91-.14,1.81-.43,2.67-.17.47-.37.93-.57,1.37-.02.04-.05.08-.07.12,0-.05,0-.11-.01-.16.02-.69.05-1.35.23-2,.21-.71.5-1.38.86-2.01h0Z"/>
      <path d="m18.77,19.74c.2.73.32,1.53.36,2.37-.65-1.1-.82-2.32-.94-3.61.05.08.11.16.16.25.16.32.3.65.42,1h0Z"/>
      <path d="m18.46,18.68c.09.19.18.38.26.58-.13-.17-.25-.34-.37-.51-.05-.11-.11-.22-.17-.33,0-.03,0-.07,0-.1.03.02.06.04.08.06.07.1.13.21.2.31h0Z"/>
      <path d="m18.65,17.73c-.11.08-.22.16-.33.23-.05,0-.09,0-.13,0,0-.01.01-.02.02-.03.15-.07.3-.14.45-.21h0Z"/>
      <path d="m18.64,16.94c-.11.25-.22.5-.33.74,0,0,0,0,0,0-.04.07-.08.14-.13.21,0,0,0,0,0,0-.01,0-.02.02-.03.02,0-.05,0-.1-.01-.15.02-.05.05-.1.07-.15.14-.23.29-.46.44-.68h0Z"/>
      <path d="m18.33,18.42c.04.08.09.17.13.26-.07-.1-.14-.2-.2-.31.03.02.05.03.07.05Z"/>
      <path d="m18.25,18.05c.11,0,.23.02.34.03-.12,0-.24.01-.36.02l-.03-.02s.04-.02.06-.03h0Z"/>
      <path d="m18.41,18.19c-.07,0-.14-.01-.21-.02-.01-.03-.03-.05-.04-.07.02,0,.04,0,.07,0,.06.03.12.06.18.1Z"/>
      <path d="m18.33,18.42s-.05-.03-.07-.05c-.03-.05-.06-.1-.09-.15,0,0,0-.01,0-.02.03.01.05.03.07.04.03.06.06.12.09.18Z"/>
      <path d="m18.32,17.96s.09,0,.14,0c-.07.03-.13.06-.2.09-.02,0-.03,0-.05,0,.04-.03.07-.05.11-.08h0Z"/>
      <path d="m18.18,17.97s.09,0,.13,0c-.04.03-.07.05-.11.08-.02,0-.03,0-.05,0,0,0,0,0,0-.01.01-.02.02-.04.03-.06h0Z"/>
      <path d="m18.31,17.69c-.03.06-.05.12-.08.18-.02.01-.03.02-.05.03,0,0,0,0,0,0,.04-.07.08-.14.13-.21h0Z"/>
      <path d="m18.21,18.17c.1.07.19.13.28.2-.08-.04-.16-.08-.25-.13-.01-.02-.03-.05-.04-.07Z"/>
      <path d="m18.25,18.05s-.04.02-.06.03h-.02s.02-.02.03-.03c.02,0,.03,0,.05,0h0Z"/>
      <path d="m18.19,18.41c.06.11.11.22.17.33-.05-.08-.11-.16-.16-.25v-.09s0,0,0,0Z"/>
      <path d="m18.21,18.17s.03.05.04.07c-.03-.01-.05-.03-.07-.04,0-.01,0-.03,0-.04.01,0,.02,0,.04,0,0,0,0,0,0,0h0Z"/>
      <path d="m18.2,18.07l.03.02s-.04,0-.07,0c0,0,0,0,0,0,.01,0,.02-.01.03-.02h0Z"/>
      <path d="m18.18,17.9s.03-.02.05-.03c-.01.02-.02.04-.03.07-.02,0-.03.01-.05.02,0,0,0,0,0,0,.01-.02.02-.03.03-.05h0Z"/>
      <path d="m18.2,18.17s0,0,0,0c0,0,0,0,0,0h0Z"/>
      <path d="m18.26,18.37s-.06-.04-.08-.06c0-.03,0-.06,0-.09.03.05.06.1.09.15Z"/>
      <path d="m18.2,18.17h0l-.04-.03s0-.03,0-.05h0s.03.05.04.07h0Z"/>
      <path d="m18.2,18.04s-.02.01-.03.02c0,0-.01,0-.02-.01,0,0,0,0,0-.01.02,0,.03,0,.05,0Z"/>
      <path d="m18.2,18.17s-.02,0-.04,0c0,0,0-.02,0-.02l.04.03h0Z"/>
      <path d="m18.13,17.74s.05-.08.07-.12c-.02.05-.05.1-.07.15,0-.01,0-.02,0-.03h0Z"/>
      <path d="m18.2,18.07s-.02.01-.03.02c0,0,0,0,0,0h0s.02-.02.02-.02h.02Z"/>
      <path d="m18.2,17.93s-.01.02-.02.03c-.01,0-.02,0-.03,0h0s.03-.03.05-.03h0Z"/>
      <path d="m18.19,18.41v.09c-.03-.05-.06-.11-.1-.17,0-.03,0-.06,0-.08,0,0,.01,0,.02.01.03.05.05.1.08.15h0Z"/>
      <path d="m18.18,17.97s-.02.04-.03.06c0-.02,0-.04,0-.06.01,0,.02,0,.03,0h0Z"/>
      <path d="m18.18,18.31s0,.07,0,.1c-.03-.05-.05-.1-.08-.15.02.02.05.03.07.05Z"/>
      <path d="m18.18,17.9s-.02.03-.03.05c0,0,0-.02,0-.03.01,0,.02-.02.03-.02h0Z"/>
      <path d="m18.17,18.22s0,.06,0,.09c-.02-.02-.05-.03-.07-.05,0,0-.01-.02-.02-.03,0-.02,0-.04,0-.07.02.01.04.02.06.03,0,0,.01.02.02.03h0Z"/>
      <path d="m18.17,18.06h-.02s0,0,0,0c0,0,0,0,0-.01,0,0,.01,0,.02.01h0Z"/>
      <path d="m18.17,18.2s0,.01,0,.02c0,0-.01-.02-.02-.03,0,0,.01,0,.02,0Z"/>
      <path d="m18.17,18.2s-.01,0-.02,0c0-.01-.02-.02-.02-.03.01,0,.02,0,.03,0,0,.01,0,.03,0,.04h0Z"/>
      <path d="m18.16,18.14s0,.02,0,.02c-.01,0-.02,0-.03,0,0-.01-.02-.03-.02-.04,0,0,0,0,0-.01,0,0,0,0,0,0,.02.01.03.02.04.03h0Z"/>
      <path d="m18.16,18.09s0,0,0,0h0s0,0,0,0h0Z"/>
      <path d="m18.16,18.1s0,.03,0,.05c-.01-.01-.03-.02-.04-.03,0,0,.01,0,.02,0s.01,0,.02,0h0Z"/>
      <path d="m18.16,18.09s0,0,0,0c0,0,0,0,0-.01,0,0,0,0,0,0h0Z"/>
      <path d="m18.16,18.09h0s0,0,0,0h0Z"/>
      <path d="m18.16,18.08s0,0,0,.01h0s-.02,0-.03,0c.01,0,.02-.01.03-.02,0,0,0,0,0,0h0Z"/>
      <path d="m18.16,18.07h0s0,0,0,0c0,0,0,0,0,0Z"/>
      <path d="m18.16,18.06s0,0,0,0c0,0,0,0,0,0,0,0,0-.02-.01-.02,0,0,0,0,0,0,0,0,0,0,.01,0,0,0,0,0,0,.01h0Z"/>
      <path d="m18.15,18.04s0,0,0,.01c0,0,0,0-.01,0,0,0,0,0,0-.01,0,0,0,0,0,0h0Z"/>
      <path d="m18.14,18.05s0,.02.01.02c-.01,0-.02.02-.03.02h0s.01-.03.02-.05h0Z"/>
      <path d="m18.15,18.03s0,0,0,.01c0,0,0,0,0,0,0,0,0,0,0-.01h0Z"/>
      <path d="m18.15,18.2s-.04-.02-.06-.03h0s.03,0,.04,0c0,.01.01.02.02.03h0Z"/>
      <path d="m18.15,17.97s0,.04,0,.06c0,0,0,0,0,.01,0,0-.01,0-.02,0,0-.01-.01-.02-.02-.03,0-.01.01-.02.02-.04h0Z"/>
      <path d="m18.15,18.1s-.01,0-.02,0-.01,0-.02,0c0,0,0,0,0,0,0,0,0,0,0,0,0,0,0,0,0,0,0,0,.02,0,.03,0h0Z"/>
      <path d="m18.15,18.04s0,0,0,.01c0,0,0,0,0,0h0s.01,0,.02,0Z"/>
      <path d="m18.15,17.96h0s0,.01,0,.01c0,0,0,0,0,0,0,0,0,0,0,0h0Z"/>
      <path d="m18.15,17.95s0,0,0,0c0,0,0,0,0,0,0,0,0,0,0,0h0Z"/>
      <path d="m18.14,17.93s0,.02,0,.03c0,0,0,0,0,0,0,0-.01,0-.02.01h-.02s.04-.04.04-.04h0Z"/>
      <path d="m18.14,17.93l-.04.03s0-.08,0-.13c0-.02.02-.04.03-.05,0,.05,0,.1.01.15h0Z"/>
      <path d="m18.14,17.96s0,0,0,0c0,0-.01,0-.02,0,0,0,.01,0,.02-.01h0Z"/>
      <path d="m18.14,18.04s0,0,0,0c0,0,0,0,0,0,0,0,0,0,0,0h0Z"/>
      <path d="m18.14,18.05s-.01.03-.02.05h-.02s0-.04,0-.06c0,0,.01,0,.02,0,0,0,.01,0,.02,0,0,0,0,0,0,0h0Z"/>
      <path d="m18.14,17.97s-.02.02-.02.04c0,0-.01-.02-.01-.03,0,0,.01,0,.02,0,0,0,.01,0,.02,0h0Z"/>
      <path d="m18.13,18.04h0s-.01,0-.02,0c0,0,0,0,.01,0Z"/>
      <path d="m18.13,18.04s0,0-.01,0c0,0-.01,0-.02,0,0,0,0-.01.01-.02,0,.01.01.02.02.03h0Z"/>
      <path d="m18.11,18.12s.02.03.02.04c-.01,0-.02,0-.04,0,0,0,0,0,0,0,0,0,0-.01,0-.02,0,0,0,0,0-.01h0Z"/>
      <path d="m18.13,17.74s0,.02,0,.03c0,.02-.02.04-.03.05h0s0-.04,0-.05c0-.01.01-.02.02-.03h0Z"/>
      <path d="m18.11,17.58c0,.05.01.11.01.16,0,.01-.01.02-.02.03,0-.07,0-.13,0-.19h0Z"/>
      <path d="m18.12,18.1s0,0,0,0c0,0,0,0,0,0h0Z"/>
      <path d="m18.12,17.97s-.01,0-.02,0c0,0,0,0,0,0,0,0,0,0,0,0h.02Z"/>
      <path d="m18.12,18.1s0,0,0,0c0,0,0,0,0,0,0,0,0,0-.01,0h.02,0Z"/>
      <path d="m18.12,18.03s-.01,0-.02,0h0s0,0,0,0c0,0,.01,0,.02,0Z"/>
      <path d="m18.12,18.1s0,0,0,0c0,0,0,0,0,0,0,0,0,0,0,0Z"/>
      <path d="m18.12,18.11s0,0,0,0c0,0,0,0,0,0,0,0,0,0,0,0h0Z"/>
      <path d="m18.12,18s0,.01-.01.02c0,0,0,0,0,0,0-.02,0-.03,0-.04h0s0,.02.01.03Z"/>
      <path d="m18.12,18.11s0,0,0,0c0,0,0,0,0,0,0,0,0,0,0,0,0,0,0,0,0,0,0,0,0,0,0,0h0Z"/>
      <path d="m18.11,18.11s0,0,0,.01c0,0,0,0,0,0,0,0,0,0,0,0Z"/>
      <path d="m18.11,17.58c0,.07,0,.13,0,.19-.01.02-.02.04-.03.06,0,.01-.02.03-.03.04-.01-.03-.03-.05-.04-.08,0-.07-.01-.14-.02-.21,0-.28.02-.55.04-.82.04.27.06.54.09.81Z"/>
      <path d="m18.11,18.1s0,0,0,0c0,0,0,0,0,0,0,0,0,0,0,0h0s0,0,.01,0h0Z"/>
      <path d="m18.1,18.12s0,0,0,0c0,0,0,0,0,.01,0,0,0,.01,0,.02,0-.01,0-.02,0-.03h0s0,0,0,0Z"/>
      <path d="m18.11,18.26s-.01,0-.02-.01c0,0,0-.01,0-.02,0,0,.01.02.02.03Z"/>
      <path d="m18.11,17.78s0,.03,0,.05h0s-.03.06-.04.09c0-.01-.01-.03-.02-.04,0-.01.02-.03.03-.04.01-.02.02-.04.03-.06h0Z"/>
      <path d="m18.11,35.9l-.08.1s-.01-.01-.02-.02c.03-.03.07-.06.1-.08,0,0,0,0,0,0h0Z"/>
      <path d="m18.11,17.83s0,.08,0,.13c0,0,0,0,0,0-.01-.02-.02-.03-.03-.05.01-.03.03-.05.04-.08h0Z"/>
      <path d="m18.1,18.11s0,0,0,0h0s0,0,0,0c0,0,0,0,0,0Z"/>
      <path d="m18.1,18.02s0,0,0,0c0,0,0,0,0,0,0,0,0,0,0,0h0Z"/>
      <path d="m18.1,17.98h0s0,0,0,0c0,0,0,0,0,0Z"/>
      <path d="m18.1,17.96h0s0,.01,0,.01c0,0,0,0,0,0,0,0,0,0,0,0h0Z"/>
      <path d="m18.1,18.11s0,0,0,0c0,0,0,0,0-.01,0,0,0,0,0,0Z"/>
      <path d="m18.1,17.97s0,0,0,0c0,0,0,0,0,0h0Z"/>
      <path d="m18.1,17.98s-.01,0-.02.01c0,0-.02,0-.02.01,0,0,0,0,0,0,.01,0,.02-.02.03-.02,0,0,.01,0,.02,0,0,0,0,0,0,0,0,0,0,0,0,0h0Z"/>
      <path d="m18.08,17.99s.01,0,.02-.01c0,.02,0,.03,0,.04-.01,0-.03-.02-.04-.02,0,0,.02,0,.02-.01h0Z"/>
      <path d="m18.1,18.02s0,0,0,0h0s-.02,0-.02,0-.02,0-.03,0c0,0,0-.01-.01-.02,0,0,.01,0,.02,0,.01,0,.03.02.04.02h0Z"/>
      <path d="m18.1,18.03s-.02.03-.02.04c0-.02-.02-.03-.03-.04,0,0,.02,0,.03,0,0,0,.02,0,.02,0h0Z"/>
      <path d="m18.08,18.07s.02-.03.02-.04c0,.02,0,.04,0,.06h-.01s0-.02-.01-.03h0Z"/>
      <path d="m18.09,17.96s0,0,0,0c0,0-.01,0-.02,0,0,0,0,0,.01,0Z"/>
      <path d="m18.1,18.1s0,0,0,0c0,0,0,0,0,0,0,0,0,0,0,0h0Z"/>
      <path d="m18.03,8.74s.05.09.07.13c-.03.04-.05.09-.07.13-.02-.04-.05-.09-.07-.13.02-.04.05-.09.07-.13h0Z"/>
      <path d="m18.1,18.1s0,0,0,0c0,0,0,0,0,0h.01s0,0,0,0Z"/>
      <path d="m18.09,18.1s0,0,0,0c0,0,0,0,0,.01,0,0-.01.01-.02.01,0,0-.02,0-.03.01h0s0,0,0-.01c0-.01.01-.02.02-.03h.03Z"/>
      <path d="m18.1,18.12h0s-.01.01-.02.01c0,0,.01,0,.02-.01h0Z"/>
      <path d="m18.1,18.12s0,.02,0,.03h0s0,0-.01,0c0,0-.02,0-.03-.01,0,0,.01-.01.02-.02,0,0,.01,0,.02,0h0Z"/>
      <path d="m18,35.81s.06.06.1.08c-.03.03-.06.06-.1.08-.03-.03-.07-.06-.1-.08.03-.03.07-.06.1-.08Z"/>
      <path d="m18.1,18.15h0s0,0,0,0h0Z"/>
      <path d="m18.1,18.16h0s0,0,0,0c0,0,0,0,0,0h0Z"/>
      <path d="m18.1,18.17s0,.04,0,.07c0-.01-.01-.02-.02-.04,0-.01.01-.02.02-.03,0,0,0,0,0,0h0Z"/>
      <path d="m18.09,17.96s0,0-.01,0c-.01,0-.03,0-.04,0,0-.02.02-.04.03-.06,0,.02.02.03.03.05h0Z"/>
      <path d="m18.07,18.2s.01.02.02.04c0,0,0,.01,0,.02-.01,0-.02-.02-.03-.02,0-.01.01-.02.01-.03h0Z"/>
      <path d="m18.09,18.25s0,.06,0,.08c-.01-.02-.03-.05-.04-.07h0s.01-.03.01-.04c.01,0,.02.02.03.02h0Z"/>
      <path d="m18.09,18.09s0,0,0,0h-.03s0-.01.01-.02h.02s0,.01,0,.01Z"/>
      <path d="m18.09,18.16s0,0,0,0c0,0,0,0,0,0,0,0,0,0,.01,0h0Z"/>
      <path d="m18.09,18.16s-.01.02-.02.03c0-.01-.01-.03-.02-.04,0,0,0,0,.01,0,0,0,.01,0,.02,0,0,0,0,0,0,0h0Z"/>
      <path d="m18.05,18.27s.03.05.04.07c0,.09,0,.18-.01.27-.01-.11-.02-.23-.03-.34h0Z"/>
      <path d="m18.08,18.07s0,.01.01.02h-.02s0-.02,0-.02h0Z"/>
      <path d="m18.08,17.97s-.02.02-.03.02c0,0-.01,0-.02,0,0,0,0,0,0-.01.01,0,.03,0,.04,0h0Z"/>
      <path d="m18.08,18.16s-.01,0-.02,0c0,0,0,0-.01,0,0,0,0,0,0,0,0,0,0,0,0,0,0,0,.02,0,.03.01h0Z"/>
      <path d="m18.08,18.61c-.02.43-.07.88-.16,1.32-.22.81-.55,1.64-.99,2.47,0-.05,0-.1,0-.15,0-.04,0-.08,0-.12.38-.75.68-1.5.87-2.23.1-.48.14-.97.16-1.44.03-.06.06-.13.09-.19,0,0,0,0,0,0,.01.11.02.23.03.34h0Z"/>
      <path d="m18.08,18.13s-.01.01-.02.02c0,0,0,0,0,0,0,0,.02,0,.03-.01h0Z"/>
      <path d="m18.08,18.07s0,0,0,0c0,0-.01,0-.02-.01,0,0-.02-.01-.02-.02,0,0,0-.01,0-.02,0,0,.02,0,.02,0,0,.01.02.03.03.04h0Z"/>
      <path d="m18.07,18.2s0,.02-.01.03c0,0-.01,0-.02-.01,0-.02,0-.04,0-.06,0,0,0,0,0,0,0,0,0,0,.01,0,0,.01.01.03.02.04Z"/>
      <path d="m18.07,18.08s0,.01-.01.02c0,0-.02,0-.03,0,0,0,0-.02,0-.02,0-.01,0-.02,0-.03,0,0,.02.01.02.02,0,0,.01.01.02.01h0Z"/>
      <path d="m18.07,17.91s-.02.04-.03.06h-.02s0-.03,0-.05c.01-.02.02-.03.03-.05,0,.01.01.02.02.04h0Z"/>
      <path d="m18.06,18.23s0,.02-.01.03c0-.01,0-.03,0-.04,0,0,.01,0,.02.01h0Z"/>
      <path d="m18.03,18.1s.02,0,.03,0c0,.01-.01.02-.02.03,0,0,0,0,0-.01,0,0,0-.01,0-.02h0Z"/>
      <path d="m17.99,26.96s.05.09.07.13c-.02.04-.05.09-.07.13-.03-.04-.05-.09-.07-.13.02-.04.05-.09.07-.13Z"/>
      <path d="m18.05,18.14s0,0,0,0c0,0,0,0,0,0,0,0,0,0,0,0,0,0,0,0,0,0h0Z"/>
      <path d="m18.06,18s-.01,0-.02,0c0,0,0,0,0,0,0,0,0,0,.01,0,0,0,0,0,0,0h0Z"/>
      <path d="m18.05,18.15s0,0,0,0c0,0,0,0-.01,0,0,0,0,0,0,0h0Z"/>
      <path d="m18.05,18.14s0,0,0,0c0,0,0,0,0,0h0s0,0,0,0Z"/>
      <path d="m18.05,18.15s0,0,0,0h0s0,0,.01,0c0,0,0,0,0,0h0Z"/>
      <path d="m18.05,18.03s-.02,0-.02,0c0,0,0,0,0-.01,0,0,0,0,.01,0,0,0,0,.01.01.02h0Z"/>
      <path d="m18.05,17.99s0,0-.01,0c0,0,0,0,0-.01h0s.01,0,.02,0h0Z"/>
      <path d="m18.05,18.14s0,0-.01,0c0,0,0,0,0-.01,0,0,0,0,0,0,0,0,0,0,0,0,0,0,0,0,0,0h0Z"/>
      <path d="m18.05,18.26h0s0,0,0,0c0,0,0,0,0,0Z"/>
      <path d="m18.01,17.8s.03.05.04.08c-.01.02-.02.03-.03.05,0-.04,0-.08-.01-.12h0Z"/>
      <path d="m18.04,18.21s0,.03,0,.04c0,0,0,0,0,0-.01-.02-.03-.05-.04-.07,0,0,0,0,0,0l.04.03h0Z"/>
      <path d="m18,18.19s.03.05.04.07c-.03.06-.06.13-.09.19,0-.07,0-.14,0-.2.01-.02.02-.04.04-.06h0Z"/>
      <path d="m18.04,18.13s0,0,0,0c0,0,0,0,0,0,0,0,0,0,0,0h0Z"/>
      <path d="m18.04,18.15s0,0,0,0c0,0,0,0,0,0h0,0Z"/>
      <path d="m18.04,18.16s0,.04,0,.06l-.04-.03s0,0,0,0c0,0,0,0,.01-.01s0,0,.01-.01Z"/>
      <path d="m18.04,18.13s0,0,0,0c0,0,0,0,0,0,0,0,0,0,0-.01,0,0,0,0,0,.01h0Z"/>
      <path d="m18.04,17.97s0,.01,0,.01c0,0,0,0-.01,0h0s.02,0,.02,0h0Z"/>
      <path d="m18.03,18s0,0,0,0c0,0,0,0-.01,0,0,0,0,0,0,0h.01s0,0,0,0Z"/>
      <path d="m18.04,18.15s0,0,0,0c0,0,0,0-.01.01s0,0-.01.01c0,0,0-.02.01-.02,0,0,0,0,0,0,0,0,0,0,0,0h0Z"/>
      <path d="m18.04,18.13s0,0,0,0h0s0,0,0,0h0Z"/>
      <path d="m18.04,18.15h0s0,0,0,0c0,0,0,0,0,0h0Z"/>
      <path d="m18.03,18.14s0,0,0,.01c0,0,0,0,0,0h0s0-.01.01-.02h0Z"/>
      <path d="m18.03,18.13h0s0,.02-.01.02c-.02,0-.03,0-.05,0,0,0,0,0,0,0,0,0,0-.01,0-.02v-.02s.07.03.07.03h0Z"/>
      <path d="m18.03,18.12s0,0,0,.01l-.06-.03h0s.03,0,.04,0c0,0,0,.01.01.02h0Z"/>
      <path d="m18.03,17.99s0,0,0,.01h-.01s0,0,0,0c0,0,0,0,0-.01h0Z"/>
      <path d="m18.03,18.12s0-.01-.01-.02h0s0,.01,0,.02h0Z"/>
      <path d="m18.03,17.99h0s0,0,0,0h0s0,0,.01,0Z"/>
      <path d="m18.03,18.08s0,.02,0,.02h0s-.02-.03-.02-.04c0,0,0-.01,0-.02,0,0,.01,0,.02.01,0,.01,0,.02,0,.03h0Z"/>
      <path d="m18.02,17.98s0,0,0,.01c0,0,0,0,0,.01,0,0,0-.02,0-.02h0Z"/>
      <path d="m18.03,18.05s-.01,0-.02-.01c0,0,0,0,0,0,0,0,0,0,.01,0,0,0,0,.01,0,.02h0Z"/>
      <path d="m18.03,18.15s0,0,0,0c0,0,0,0,0,0h0Z"/>
      <path d="m18.02,18.02s0,0,0,.01c0,0,0,0-.01,0,0,0,0,0,0,0,0,0,0,0,0,0Z"/>
      <path d="m18.02,18.15s0,0,0,0c-.01,0-.02.01-.04.02,0,0,0-.02-.02-.02.02,0,.03,0,.05,0h0Z"/>
      <path d="m18.02,18.01s0,0,0,0c0,0,0,0,0,0,0,0,0,0,0,0,0,0,0,0,0,0h0Z"/>
      <path d="m18.02,18h0s0,0,0,.01c0,0,0,0,0-.01Z"/>
      <path d="m18.02,17.98s0,.02,0,.02c0,0,0,0,0,.01,0,0,0,0-.01,0,0,0,0,0,0,0h0s0,0-.01,0c0,0-.01,0-.02-.01,0,0,0,0,0,0h0s.01-.03.01-.03h.02s0,0,.01,0h0s0,0,0,0h0Z"/>
      <path d="m18.02,18.15s0,.02-.01.02c0,0,0,0,0,0,0,0,0,0,0,0,0,0,0,0,0,0,.01,0,.02-.01.04-.02h0Z"/>
      <path d="m18.02,18.1s-.03,0-.04,0c0,0,0-.01,0-.02,0,0,0-.02.01-.03,0,.01.02.03.02.04h0Z"/>
      <path d="m18.02,17.97h0s0,0,0,0c0,0,0,0,0,0h0,0Z"/>
      <path d="m18.02,17.92s0,.03,0,.05h0s-.01-.02-.02-.02c0,0,.01-.02.02-.03h0Z"/>
      <path d="m18.02,17.97s0,0,0,0c0,0,0,0-.01,0,0,0,0,0,0,0h0Z"/>
      <path d="m18.02,18.02s0,0,0,0c0,0,0,0,0,0,0,0,0,0,.01,0h0Z"/>
      <path d="m18.02,18.02s0,0,0,0c0,0,0,0,0,0,0,0,0,0,0,0,0,0,0,0,0,0h0Z"/>
      <path d="m18.02,17.92s0,.02-.02.03c0-.01-.02-.03-.02-.04,0-.03,0-.06,0-.09,0-.02,0-.04,0-.06,0,.01.01.03.02.04,0,0,0,0,0,0,0,.04,0,.08.01.12h0Z"/>
      <path d="m18.02,17.97s0,0,0,0c0,0-.01,0-.02,0,0,0,0-.01.01-.02,0,0,0,.02.02.02h0Z"/>
      <path d="m18.01,18.03s0,0,0,0c0,0,0,0,0,0,0,0,0,0,0,0h0s0,0,0,0h0Z"/>
      <path d="m18.03,8.74s-.05.09-.07.13c-.26-.47-.55-.94-.89-1.39-.7-.95-1.55-1.79-2.55-2.51.02-.04.04-.08.05-.12,1.01.74,1.88,1.59,2.6,2.55.32.43.61.88.86,1.33h0Z"/>
      <path d="m18.01,18.03s0,.01,0,.02c0,0,0-.01-.01-.02h.01s0,0,0,0Z"/>
      <path d="m18.01,18.18s0,0,0,0c0,0,0,0,0,0,0,0,0,0,0,0h0Z"/>
      <path d="m17.99,17.96s.01,0,.02,0h-.02s0,0,0,0h0Z"/>
      <path d="m17.98,17.59c0,.07.01.14.02.21,0,0,0,0,0,0,0-.01-.01-.03-.02-.04v-.16Z"/>
      <path d="m18,18.02h0s0,0,0,0c0,0,0,0,0,0h0Z"/>
      <path d="m18,18.18s0,0,0,0c0,0,0,0,0,0,0,0,0,0,0,0,0,0,0,0,0,0Z"/>
      <path d="m18,18.02s0,0,0,0c0,0,0,0,0,0,0,0,0,0,.01,0h0Z"/>
      <path d="m18,17.95s0,.01-.01.02c0,0-.01,0-.02,0,0-.02,0-.03,0-.05,0,.01.02.03.02.04h0Z"/>
      <path d="m17.99,18.18s0,0,0,0c0,0,0,0,0,0,0,0,0,0,0,0h0Z"/>
      <path d="m18,18.19s0,0,0,0c-.01.02-.02.04-.04.06,0-.01,0-.03,0-.04.01,0,.02-.02.03-.02h0Z"/>
      <path d="m18,35.81s-.06.06-.1.08c-1.44-1.27-2.58-2.87-3.36-4.69.03-.02.07-.05.1-.08.78,1.82,1.91,3.42,3.35,4.68Z"/>
      <path d="m17.99,18.04s0,.01.01.02c0,0,0,.02-.01.03,0,0,0,.01,0,.02h0s0,0,0,0c0-.02,0-.03,0-.05,0,0,.01,0,.02-.01h0Z"/>
      <path d="m18,18.03h-.01s0,0,0,0c0,0,0,0,.01,0h0Z"/>
      <path d="m18,35.98l-.02.02-.08-.1s0,0,0,0c.03.03.06.06.1.08h0Z"/>
      <path d="m18,18.03s0,0-.01,0c0,0,0,0,0,0h.01s0,0,0,0h0Z"/>
      <path d="m17.99,18.18s0,0,0,0c-.01,0-.02.01-.03.02,0-.01,0-.02,0-.03,0,0,.01,0,.02,0,0,0,0,0,0,0h0Z"/>
      <path d="m17.99,18.02h-.01s0,0,0-.01c0,0,.01,0,.02.01h0Z"/>
      <path d="m17.99,18.18s0,0,0,0c0,0,0,0,0,0,0,0,0,0,0,0h0Z"/>
      <path d="m17.97,17.96s.01,0,.02,0c0,0,0,0,0,0h-.01s0-.01,0-.02h0Z"/>
      <path d="m17.95,8.88s.05.09.07.13c-.75,1.38-1.15,2.84-1.19,4.32-.04-.07-.08-.13-.12-.19.07-1.46.48-2.9,1.24-4.26h0Z"/>
      <path d="m17.99,18.03s0,0,0,0c0,0-.01,0-.02.01h0s.02-.02.02-.02Z"/>
      <path d="m18.02,16.77c-.02.27-.03.54-.04.82-.05-.5-.1-1-.19-1.49-.19-.89-.51-1.74-.97-2.53,0-.08,0-.16,0-.24.51.85.88,1.77,1.09,2.75.04.23.08.46.1.69h0Z"/>
      <path d="m17.97,18.15s.01.02.02.02c0,0,0,0,0,0,0,0,0,0,0,0,0,0,0,0,0,0h0s0-.01,0-.01h0Z"/>
      <path d="m17.99,18.03h-.02s0-.01,0-.01c0,0,0,0,0,0,0,0,0,0,0,0h0Z"/>
      <path d="m17.98,17.59v.16c-.37-.67-.71-1.31-.9-2.02-.17-.72-.26-1.45-.26-2.17.45.79.78,1.63.97,2.53.09.49.14,1,.19,1.49h0Z"/>
      <path d="m17.98,17.97v.02s-.01-.01-.01-.02h.01Z"/>
      <path d="m17.98,18.17s-.01,0-.02,0c0,0,0-.01,0-.02,0,0,0,0,0,0,0,0,0,0,0,0h0Z"/>
      <path d="m17.98,18.02s0,0,0,0c0,0,0,0,0-.01,0,0,0,0,0,0,0,0,0,0,0,.01h0Z"/>
      <path d="m17.98,17.75s0,.04,0,.06c0,.03,0,.06,0,.09-.02-.03-.03-.05-.05-.08-.11-.18-.22-.36-.33-.54-.26-.5-.49-.99-.63-1.53-.19-.8-.28-1.61-.26-2.41.04.07.08.14.12.21,0,.72.09,1.45.26,2.17.19.71.53,1.35.89,2.02h0Z"/>
      <path d="m17.89,0l.09.09c-1.52,1.52-2.66,3.12-3.42,4.77-.03-.03-.07-.05-.11-.08.76-1.66,1.91-3.26,3.43-4.78h0Z"/>
      <path d="m17.98,18.1v.02s0-.01,0-.02c0,0,0,0,0,0,0,0,0,0,0,0Z"/>
      <path d="m17.98,17.91s0,.03,0,.05l-.04-.02s-.03-.05-.04-.08c-.1-.19-.2-.37-.3-.56.11.18.22.35.33.54.02.03.03.05.05.08h0Z"/>
      <path d="m17.98,18.1s0,0,0,0c0,0,0,0,0,0,0,0,0,0,0,0Z"/>
      <path d="m17.97,18.01s0,0,0,0c0,0,0,0,0,0,0,0,0,0,0,0h0Z"/>
      <path d="m17.97,17.96s0,.01,0,.02c0,0-.01,0-.02,0l-.02-.04.04.02Z"/>
      <path d="m17.97,17.97s0,.01,0,.02c0,0,0,0,0,0,0,0-.01-.02-.01-.02,0,0,.01,0,.02,0h0Z"/>
      <path d="m17.97,17.99h0s0,0,0,0c0,0,0,0,0,0h0Z"/>
      <path d="m17.97,18.01s0,0,0,0c0,0,0,0,0,0,0,0,0,0,0,0,0,0,0,0,0,0h0Z"/>
      <path d="m17.97,18s0,0,0,0c0,0,0,0,0,.01,0,0-.01,0-.02,0,0,0,0-.01.01-.02h0Z"/>
      <path d="m17.97,18.14s0,0,0,0c0,0,0,0,0,0,0,0,0,0,0,0Z"/>
      <path d="m17.97,18.02v.02s-.03.01-.04.02c0-.01.02-.03.02-.04,0,0,.01,0,.02,0h0Z"/>
      <path d="m17.97,18.04h0s-.02.02-.02.02c0,0-.01,0-.02.01,0,0,0,0,0,0,0,0,0,0,0,0,0,0,0-.01,0-.01.01,0,.03-.01.04-.02h0Z"/>
      <path d="m17.95,18.06l.02-.02s0,.03,0,.05c-.01,0-.03-.02-.04-.02,0,0,.01,0,.02-.01h0Z"/>
      <path d="m17.97,18.1s0,0,0,0h-.03s-.01-.02-.02-.02h0s.03.01.04.02h0Z"/>
      <path d="m17.97,18.1s0,.01,0,.02c0,0,0,0,0,.01,0-.01-.01-.02-.02-.03h.03Z"/>
      <path d="m17.97,18.12s0,.01,0,.02c0,0,0,0,0,0,0,0,0,0,0-.01h0Z"/>
      <path d="m17.97,18s0,0,0,0c-.01,0-.03-.02-.04-.03h.03s0,.02.01.02h0Z"/>
      <path d="m17.97,18.14s0,0,0,0h-.01s0,0,0-.01c0,0,0,0,0,0h0Z"/>
      <path d="m17.97,18.15h0s0,0-.01,0c0,0,0,0,0,0h.01Z"/>
      <path d="m17.97,18.16s0,.01,0,.02c-.01,0-.02.01-.03.02,0-.02.01-.03.02-.04,0,0,0,0,.01.01h0Z"/>
      <path d="m17.97,18.18s0,.02,0,.03c-.02.01-.04.03-.06.04,0-.02.02-.03.02-.05.01,0,.02-.01.03-.02h0Z"/>
      <path d="m17.97,18.21s0,.03,0,.04c-.07.11-.13.21-.2.32.05-.11.1-.21.15-.32.02-.01.04-.03.06-.04h0Z"/>
      <path d="m17.97,18s0,.01-.01.02c-.02,0-.04,0-.07,0,0-.01-.01-.02-.02-.04.02,0,.04,0,.06,0,.01.01.03.02.04.03h0Z"/>
      <path d="m17.96,18.13s0,0,0,.01c0,0,0,0-.01,0-.02-.01-.03-.02-.05-.03,0,0,0,0,0,0,.01,0,.03,0,.04,0,0,.01.01.02.02.03h0Z"/>
      <path d="m17.97,18.25c0,.07,0,.13,0,.2-.56,1.2-1.05,2.37-1.03,3.68-.04.08-.08.16-.12.24,0-.04,0-.08,0-.12-.04-1.32.42-2.48.96-3.67,0,0,0,0,0,0,.07-.11.14-.21.2-.32h0Z"/>
      <path d="m17.96,18.15s0,0,0,0c0,0,0,0,0,0,0,0,0,0,.01,0h0Z"/>
      <path d="m17.93,17.93l.02.04h-.03s-.07-.05-.1-.07c0,0,0,0,0,0,0-.01-.02-.03-.02-.04.02.01.04.02.06.03.03.01.05.03.08.04h0Z"/>
      <path d="m17.89,18.01s.04,0,.07,0c0,.01-.01.02-.02.04,0,0,0,0-.01,0l-.03-.05h0Z"/>
      <path d="m17.95,18.15s-.01.03-.02.04c-.04.02-.08.04-.12.06.02-.04.05-.08.07-.11.02,0,.04,0,.07,0,0,0,0,0,0,0h0Z"/>
      <path d="m17.96,18.45c-.02.48-.06.96-.16,1.44-.2.73-.49,1.48-.87,2.23-.02-1.31.47-2.47,1.03-3.68Z"/>
      <path d="m17.92,27.09s.05.09.07.13c-.27.49-.55.95-.83,1.36-.71.96-1.56,1.82-2.52,2.54-.02-.04-.03-.08-.05-.12.93-.72,1.76-1.55,2.46-2.5.28-.43.58-.9.86-1.42h0Z"/>
      <path d="m17.95,18.15s-.04,0-.07,0c0-.01.01-.02.02-.03.02.01.03.02.05.03h0Z"/>
      <path d="m17.94,18.1s-.03,0-.04,0c0,0,0-.01,0-.01h.02s.01,0,.02.01h0Z"/>
      <path d="m17.99,26.96s-.05.09-.07.13c-.68-1.25-1.06-2.77-1.11-4.48.04-.07.08-.15.12-.22.03,1.74.39,3.29,1.06,4.56h0Z"/>
      <path d="m17.89,17.85s.03.05.04.08c-.03-.01-.05-.03-.08-.04-.02-.01-.04-.02-.06-.03-.4-.65-.78-1.26-1.3-1.78-.54-.51-1.13-.95-1.75-1.31-.04-.07-.08-.14-.12-.21.7.38,1.36.86,1.96,1.43.4.39.71.84,1.01,1.31.09.18.19.37.3.56h0Z"/>
      <path d="m17.93,18.06s0,0,0,.01c0,0,0,0,0,0,0,0,0,0,.01,0h0Z"/>
      <path d="m17.93,18.08h0s0,0,0,0c0,0,0,0,0,0h0Z"/>
      <path d="m17.93,18.2s-.02.03-.02.05c-.06.04-.12.08-.17.12.03-.04.05-.08.07-.12.04-.02.08-.04.12-.06h0Z"/>
      <path d="m17.93,18.07s0,0,0,0h-.02s0,0,.01,0c0,0,0,0,0,0h0Z"/>
      <path d="m17.93,18.07s0,0,0,0c0,0,0,0,0,0,0,0,0,0,0,0Z"/>
      <path d="m17.92,18.06s0,0,0,0c0,0,0,0,0,0,0,0,0,0-.01,0h0s0,0,0,0Z"/>
      <path d="m17.93,17.97s-.04,0-.06,0c-.01-.03-.03-.05-.04-.07.03.03.07.05.1.07h0Z"/>
      <path d="m17.92,18.07s0,.01-.01.02c0,0-.02.01-.02.01h0s-.01,0-.02-.01c.02,0,.03-.02.05-.02,0,0,0,0,.01,0h0Z"/>
      <path d="m17.89,18.01l.03.05h0s-.07-.04-.11-.06c.03,0,.06,0,.09,0h0Z"/>
      <path d="m17.91,18.09s0,0,0,.01h-.01s.01,0,.02-.01h0Z"/>
      <path d="m17.8,18.01s.07.04.11.06c-.02,0-.03.01-.05.02-.04-.03-.08-.06-.13-.09.02,0,.04,0,.06,0h0Z"/>
      <path d="m17.9,18.1s0,0,0,0c0,0,0,0,0,0h0s.01,0,.01,0h0Z"/>
      <path d="m17.9,18.11s-.01.02-.02.03c-.01,0-.02,0-.04,0,.01-.01.03-.02.04-.03,0,0,0,0,0,0h0Z"/>
      <path d="m17.89,18.1h0s0,0,0,0h0,0Z"/>
      <path d="m17.87,17.98s.02.02.02.04c-.03,0-.06,0-.09,0,0,0,0,0,0,0-.01,0-.03-.01-.04-.02.02,0,.04,0,.07,0,.02,0,.03,0,.05,0h0Z"/>
      <path d="m17.89,18.1s-.03.02-.04.03c-.02,0-.05,0-.07,0,.02,0,.04-.02.06-.03.02,0,.04,0,.05,0,0,0,0,0,0,0h0Z"/>
      <path d="m17.89,18.1s-.04,0-.05,0c.01,0,.02-.01.03-.02,0,0,.01.01.02.01h0Z"/>
      <path d="m17.88,18.14s-.05.07-.07.11c-.12.06-.25.12-.37.17.13-.09.27-.19.41-.29.01,0,.03,0,.04,0h0Z"/>
      <path d="m17.82,17.9s.03.05.04.07c-.02,0-.03,0-.05,0-.02,0-.04,0-.07,0-.06-.03-.12-.07-.19-.1-.22-.15-.43-.31-.65-.48.24.11.48.24.72.37.06.04.13.09.19.13h0Z"/>
      <path d="m17.87,18.09s-.02.01-.03.02h-.01c-.08,0-.17,0-.25,0h0c-.27-.02-.54-.05-.8-.09.26-.02.53-.03.8-.04.06,0,.11.01.17.02.04.03.08.06.13.09h0Z"/>
      <path d="m17.83,18.1s-.04.02-.06.03c-.07,0-.13-.01-.2-.02.08,0,.17,0,.25,0h.01Z"/>
      <path d="m17.82,17.9s0,0,0,0c-.06-.04-.13-.09-.19-.13.05.03.11.06.16.09,0,.01.02.03.02.04h0Z"/>
      <path d="m17.78,18.13s.05,0,.07,0c-.14.1-.27.19-.41.29-.37.17-.76.33-1.14.47-.95.31-1.93.45-2.93.43.07-.04.14-.08.21-.12.91,0,1.81-.14,2.68-.43.52-.19,1.03-.41,1.52-.64h0Z"/>
      <path d="m17.91,18.25c-.05.11-.1.21-.15.32,0,0,0,0,0,0-.24.36-.49.72-.79,1.06-.6.6-1.3,1.15-2.1,1.64.03-.04.05-.09.07-.13.02-.03.04-.07.06-.1.71-.46,1.34-.96,1.87-1.5.33-.37.6-.77.86-1.17.06-.04.11-.08.17-.12h0Z"/>
      <path d="m17.81,18.25s-.05.08-.07.12c-1.09.76-2.09,1.53-2.73,2.67-.07.05-.15.1-.22.14.02-.03.04-.07.06-.1.61-1.14,1.56-1.91,2.6-2.65.13-.05.25-.11.37-.17Z"/>
      <path d="m17.8,18.01s-.04,0-.06,0c0,0-.02-.01-.03-.02.01,0,.03,0,.04,0,.01,0,.03.01.04.02,0,0,0,0,0,0h0Z"/>
      <path d="m17.79,17.86c-.05-.03-.11-.06-.16-.09-.4-.28-.8-.58-1.18-.9-.68-.61-1.25-1.32-1.71-2.11.62.36,1.21.8,1.75,1.31.52.52.9,1.13,1.3,1.78h0Z"/>
      <path d="m17.57,18.11c.07,0,.14.01.2.02-.5.23-1,.46-1.52.64-.87.29-1.77.43-2.68.43.62-.36,1.29-.65,2.01-.86.65-.17,1.3-.21,1.99-.23h0Z"/>
      <path d="m17.75,17.98s-.03,0-.04,0c-.05-.03-.1-.07-.15-.1.06.03.12.07.19.1h0Z"/>
      <path d="m17.71,17.98s.02.01.03.02c-.06,0-.11-.01-.17-.02h.14s0,0,0,0Z"/>
      <path d="m17.71,17.98h-.14c-.49-.04-.99-.1-1.47-.18-.89-.19-1.74-.51-2.53-.97.72,0,1.44.09,2.17.26.65.17,1.23.47,1.83.79.05.03.1.07.15.1h0Z"/>
      <path d="m16.81,22.62c.05,1.7.43,3.23,1.11,4.48-.28.52-.57.99-.86,1.42-.7.94-1.53,1.78-2.46,2.5-.53-1.26-.88-2.63-1.04-4.07-.04-.34-.06-.68-.05-1.03,1.14-.71,2.31-1.67,3.16-3.04.05-.08.09-.16.14-.25h0Z"/>
      <path d="m17.06,7.49c.34.45.64.91.89,1.39-.76,1.36-1.17,2.8-1.24,4.26-.79-1.23-1.89-2.29-3.23-3.11-.01-.52.02-1.05.08-1.59.14-1.17.45-2.32.95-3.45,1,.72,1.84,1.56,2.55,2.51h0Z"/>
      <path d="m17.64,17.77c-.24-.13-.48-.25-.72-.37-.18-.14-.37-.29-.54-.43-.75-.67-1.36-1.45-1.84-2.32.07.04.14.08.21.12.46.79,1.03,1.49,1.71,2.11.38.32.78.61,1.18.9h0Z"/>
      <path d="m17.74,18.37c-.26.4-.53.8-.86,1.17-.54.54-1.17,1.04-1.87,1.5.64-1.14,1.65-1.9,2.73-2.67h0Z"/>
      <path d="m17.57,17.88c-.6-.32-1.18-.62-1.83-.79-.72-.17-1.45-.26-2.17-.26-.07-.04-.14-.08-.21-.12.8-.02,1.6.07,2.41.26.4.11.78.26,1.15.44.21.16.43.32.65.48h0Z"/>
      <path d="m17.57,18.11c-.69.02-1.34.06-1.99.23-.71.21-1.38.5-2.01.86-.08,0-.16,0-.24,0,.68-.41,1.42-.74,2.21-.98.4-.11.81-.16,1.22-.2.27.04.54.06.8.09h0Z"/>
      <path d="m17.57,17.98c-.27,0-.54.02-.8.04-.23-.03-.46-.06-.69-.1-.98-.2-1.9-.57-2.75-1.09.08,0,.16,0,.24,0,.79.45,1.64.78,2.53.97.49.09.98.14,1.47.19h0Z"/>
      <path d="m16.93,22.24c0,.05,0,.1,0,.15-.04.07-.08.15-.12.22,0-.08,0-.17,0-.25.04-.08.08-.16.12-.24,0,.04,0,.08,0,.12h0Z"/>
      <path d="m16.83,13.33c0,.08,0,.16,0,.24-.04-.07-.08-.14-.12-.21,0-.08,0-.15,0-.23.04.06.08.13.12.19Z"/>
      <path d="m16.8,22.36c0,.08,0,.17,0,.25-.05.08-.09.16-.14.25-.85,1.37-2.02,2.33-3.16,3.04,0-.05,0-.1,0-.15h0c1.1-.7,2.22-1.64,3.05-2.96.08-.14.16-.29.24-.43h0Z"/>
      <path d="m16.71,13.13c0,.08,0,.15,0,.23-.77-1.26-1.87-2.35-3.22-3.19,0-.05,0-.1,0-.15,1.35.82,2.45,1.88,3.23,3.11Z"/>
      <path d="m15,21.04s-.04.07-.06.1c-.03.04-.05.09-.07.13-.07.04-.14.09-.22.13.04-.07.08-.15.12-.22.08-.05.15-.09.22-.14h0Z"/>
      <path d="m14.66,21.4c.07-.04.14-.09.22-.13-.84,1.52-1.31,3.04-1.36,4.48h0s-.09.05-.13.08c.04-1.42.47-2.93,1.28-4.43h0Z"/>
      <path d="m14.75,14.77c-.07-.04-.14-.08-.21-.12-.04-.07-.07-.13-.11-.2.07.03.13.07.2.11.04.07.08.14.12.21h0Z"/>
      <path d="m14.78,21.18c-.04.07-.08.15-.12.22-.08.05-.16.09-.24.14-1.42.76-2.9,1.01-4.24,1.06.03-.04.05-.09.08-.13,1.3-.06,2.73-.31,4.1-1.04.14-.08.29-.17.43-.25h0Z"/>
      <path d="m14.65,31.13s-.07.05-.1.08c-.02-.04-.03-.08-.05-.12.04-.03.07-.05.1-.08.02.04.03.08.05.12h0Z"/>
      <path d="m14.42,21.54c.08-.05.16-.09.24-.14-.8,1.5-1.24,3.01-1.28,4.43-.5.31-.99.57-1.45.8-1.08.47-2.22.78-3.38.93.18-1.57.62-3.08,1.31-4.4.1-.19.21-.38.32-.56,1.34-.05,2.82-.3,4.24-1.06h0Z"/>
      <path d="m14.63,14.56c-.07-.04-.13-.07-.2-.11-.67-1.3-1.04-2.78-1.08-4.36.04.03.09.05.13.08.05,1.59.44,3.09,1.15,4.38h0Z"/>
      <path d="m14.6,31.01s-.07.05-.1.08c-.54-1.28-.9-2.67-1.06-4.13-.04-.32-.06-.64-.05-.97.04-.03.08-.05.13-.08,0,.35.01.69.05,1.03.16,1.44.51,2.8,1.04,4.07h0Z"/>
      <path d="m14.56,4.86s-.04.08-.05.12c-.03-.03-.07-.05-.11-.08.02-.04.04-.08.05-.12.04.03.07.05.11.08Z"/>
      <path d="m14.49,31.08s.03.08.05.12c-1.57,1.18-3.43,2.01-5.45,2.44v-.06s.05-.02.05-.02c0-.02-.01-.04-.02-.05,1.99-.42,3.82-1.26,5.37-2.42h0Z"/>
      <path d="m14.41,4.9s.07.05.11.08c-.5,1.13-.82,2.28-.95,3.45-.07.54-.09,1.07-.08,1.59-.04-.03-.08-.05-.13-.08,0-.5.02-1.01.08-1.53.14-1.19.46-2.36.97-3.51h0Z"/>
      <path d="m14.43,14.45c.03.07.07.13.11.2-1.3-.71-2.76-1.09-4.34-1.13-.03-.04-.05-.08-.08-.13,1.56.02,3.01.38,4.31,1.05h0Z"/>
      <path d="m14.46,4.78s-.04.08-.05.12c-1.48-1.05-3.26-1.86-5.34-2.42l.03-.12c2.09.56,3.88,1.37,5.36,2.43h0Z"/>
      <path d="m9.06,2.48c2.08.56,3.87,1.37,5.34,2.42-.51,1.14-.83,2.32-.97,3.51-.06.52-.09,1.03-.08,1.53-.43-.26-.89-.49-1.37-.69-1.1-.48-2.28-.78-3.53-.91-.17-1.81.02-3.76.57-5.84,0,0,.03-.02.03-.02Z"/>
      <path d="m14.49,31.08c-1.55,1.16-3.38,2-5.37,2.42-.61-1.85-.8-3.87-.59-5.81,1.19-.15,2.35-.47,3.45-.95.44-.22.91-.47,1.39-.76,0,.33.02.65.05.97.16,1.46.52,2.85,1.06,4.13h0Z"/>
      <path d="m13.33,19.2c.08,0,.16,0,.24,0-.07.04-.14.08-.21.12-.07,0-.15,0-.23,0,.06-.04.13-.08.19-.12h0Z"/>
      <path d="m13.57,16.83c-.08,0-.16,0-.24,0-.07-.04-.13-.08-.19-.12.07,0,.15,0,.23,0,.07.04.14.08.21.12h0Z"/>
      <path d="m13.51,25.75c0,.05,0,.1,0,.15-.04.03-.09.05-.13.08,0-.05,0-.1,0-.15l.13-.08h0Z"/>
      <path d="m13.48,10.17s-.09-.05-.13-.08c0-.05,0-.1,0-.15.04.02.09.05.13.08,0,.05,0,.1,0,.15Z"/>
      <path d="m13.38,25.83c0,.05,0,.1,0,.15-.48.29-.95.54-1.39.76-1.1.48-2.26.79-3.45.95,0-.04,0-.09.01-.13,1.17-.15,2.31-.46,3.38-.93.46-.23.95-.49,1.45-.8h0Z"/>
      <path d="m13.35,10.09c.04,1.58.41,3.06,1.08,4.36-1.3-.67-2.75-1.03-4.31-1.05-.28-.46-.53-.95-.75-1.47-.47-1.08-.77-2.24-.9-3.46,1.22.13,2.38.43,3.46.9.5.21.97.46,1.42.73h0Z"/>
      <path d="m13.35,9.94s0,.1,0,.15c-.45-.27-.92-.51-1.42-.73-1.08-.47-2.24-.77-3.46-.9,0-.04,0-.09-.01-.13,1.25.13,2.42.43,3.53.91.48.21.94.44,1.37.69h0Z"/>
      <path d="m13.36,16.7c-.08,0-.15,0-.23,0-1.22-.78-2.27-1.86-3.08-3.19.05,0,.1,0,.15,0,.84,1.34,1.91,2.42,3.16,3.18h0Z"/>
      <path d="m13.13,16.71c.06.04.13.08.19.12-1.48.04-2.94.44-4.32,1.19-.04-.02-.09-.05-.13-.07,1.36-.75,2.8-1.17,4.26-1.24h0Z"/>
      <path d="m13.14,19.32c.07,0,.15,0,.23,0-1.25.76-2.3,1.82-3.11,3.14-.05,0-.1,0-.15,0,.8-1.31,1.82-2.37,3.04-3.16h0Z"/>
      <path d="m13.33,19.2c-.07.04-.13.08-.19.12-1.44-.07-2.89-.48-4.27-1.22.04-.02.09-.05.13-.07,1.39.74,2.87,1.14,4.33,1.17h0Z"/>
      <path d="m13.14,19.32c-1.22.78-2.24,1.84-3.04,3.16-.59.02-1.16,0-1.67-.03-1.17-.13-2.31-.43-3.4-.89.94-1.26,2.08-2.35,3.34-3.15.17-.11.33-.21.5-.3,1.37.74,2.82,1.15,4.27,1.22h0Z"/>
      <path d="m10.05,13.52c.82,1.33,1.87,2.41,3.08,3.19-1.46.07-2.9.49-4.26,1.24-.47-.26-.94-.56-1.39-.89-.93-.69-1.75-1.51-2.46-2.48,1.43-.62,2.95-.98,4.43-1.05.2,0,.4-.01.59,0h0Z"/>
      <path d="m10.25,22.47s-.05.09-.08.13c-.05,0-.1,0-.15,0,.03-.04.05-.09.08-.13.05,0,.1,0,.15,0h0Z"/>
      <path d="m10.12,13.4s.05.09.08.13c-.05,0-.1,0-.15,0-.03-.04-.05-.08-.08-.13.05,0,.1,0,.15,0Z"/>
      <path d="m10.02,22.6s.1,0,.15,0c-.11.18-.22.37-.32.56-.69,1.32-1.13,2.83-1.31,4.4-.04,0-.09.01-.13.02.18-1.59.63-3.13,1.33-4.48.09-.17.18-.34.28-.5h0Z"/>
      <path d="m10.12,13.4s-.1,0-.15,0c-.27-.45-.51-.92-.72-1.41-.48-1.1-.78-2.28-.91-3.52.04,0,.09,0,.13.01.13,1.22.43,2.38.9,3.46.22.52.47,1.01.75,1.47h0Z"/>
      <path d="m10.1,22.47s-.05.09-.08.13c-.13,0-.26,0-.38,0-.43,0-.84-.02-1.22-.04-1.19-.14-2.36-.45-3.46-.91.03-.04.05-.07.08-.11,1.09.45,2.23.75,3.4.89.51.03,1.08.05,1.67.03h0Z"/>
      <path d="m9.97,13.39s.05.08.08.13c-.2,0-.39,0-.59,0-1.48.06-2.99.43-4.43,1.05-.03-.03-.05-.07-.08-.11,1.46-.63,3-1,4.5-1.07.17,0,.35-.01.52-.01h0Z"/>
      <path d="m9.97,13.39c-.17,0-.34,0-.52.01-1.5.07-3.04.44-4.5,1.07-1.08-1.49-1.91-3.3-2.47-5.41l.02-.03c2.08-.56,4.03-.75,5.84-.57.13,1.25.43,2.42.91,3.52.21.5.45.97.72,1.41Z"/>
      <path d="m9.64,22.61c.13,0,.25,0,.38,0-.1.16-.19.33-.28.5-.7,1.35-1.15,2.88-1.33,4.48-1.92.23-3.92.04-5.86-.59.4-1.91,1.25-3.75,2.4-5.33,1.11.46,2.27.77,3.46.91.38.02.79.04,1.22.04h0Z"/>
      <path d="m9.12,33.5s.01.04.02.05l-.06.02v-.06s.02,0,.04-.01h0Z"/>
      <path d="m9.12,33.5s-.04,0-.06.01v.06s-.05.02-.05.02c-.62-1.87-.82-3.92-.61-5.89l.13-.02c-.21,1.94-.02,3.96.59,5.81h0Z"/>
      <path d="m8.91,2.47l.12.03c-.56,2.08-.75,4.03-.57,5.84-.04,0-.08-.01-.13-.01-.17-1.81.02-3.77.58-5.86Z"/>
      <path d="m9.01,18.02s-.09.05-.13.07c-.04-.02-.09-.05-.13-.07.04-.03.09-.05.13-.07.04.03.09.05.13.07h0Z"/>
      <path d="m8.74,18.03s.09.05.13.07c-.17.1-.34.2-.5.3-1.26.8-2.4,1.89-3.34,3.15-.04-.02-.08-.03-.12-.05.95-1.29,2.11-2.39,3.39-3.21.15-.09.29-.18.44-.27h0Z"/>
      <path d="m8.87,17.95s-.09.05-.13.07c-.45-.25-.9-.54-1.33-.86-.94-.7-1.78-1.54-2.5-2.53.04-.02.08-.04.12-.05.71.97,1.53,1.79,2.46,2.48.45.34.91.63,1.39.89h0Z"/>
      <path d="m8.55,27.56s-.01.09-.01.13l-.13.02s0-.08.01-.13c.04,0,.09-.01.13-.02Z"/>
      <path d="m8.45,8.34s0,.09.01.13c-.04,0-.08,0-.13-.01,0-.04-.01-.09-.01-.13.04,0,.08,0,.13.01Z"/>
      <path d="m8.74,18.03c-.15.08-.3.17-.44.27-1.28.81-2.43,1.92-3.39,3.21-1.78-.76-3.42-1.93-4.78-3.44,1.31-1.46,2.98-2.64,4.78-3.43.72.99,1.56,1.83,2.5,2.53.43.32.88.61,1.33.86h0Z"/>
      <path d="m8.42,27.58s-.01.09-.01.13c-.52.06-1.04.09-1.57.09-1.46,0-2.93-.23-4.37-.71l.02-.06h.06s0-.02.01-.04c1.93.63,3.93.82,5.86.59h0Z"/>
      <path d="m8.33,8.33s0,.09.01.13c-1.81-.18-3.76.02-5.84.57l-.03-.12c2.09-.56,4.05-.75,5.86-.58Z"/>
      <path d="m5.03,21.55s-.05.07-.08.11c-.04-.02-.08-.03-.12-.05.03-.04.05-.07.08-.11.04.02.08.03.12.05Z"/>
      <path d="m4.95,14.47s.05.07.08.11c-.04.02-.08.03-.12.05-.03-.03-.05-.07-.08-.1.04-.02.08-.04.12-.05h0Z"/>
      <path d="m4.95,14.47s-.08.03-.12.05c-1.08-1.5-1.91-3.32-2.48-5.43l.12-.03c.57,2.11,1.39,3.92,2.47,5.41h0Z"/>
      <path d="m4.84,21.61s.08.03.12.05c-1.15,1.58-2,3.42-2.4,5.33-.02,0-.04-.01-.05-.02l-.02.06h-.06c.4-1.95,1.25-3.82,2.42-5.42h0Z"/>
      <path d="m4.91,21.5s-.05.07-.08.11c-1.81-.78-3.46-1.97-4.84-3.5l.05-.04.05.04.04-.04c1.36,1.51,3,2.68,4.78,3.44h0Z"/>
      <path d="m4.83,14.53s.05.07.08.1c-1.8.79-3.47,1.97-4.78,3.43l-.04-.04-.05.04L0,18.02c1.32-1.48,3.01-2.69,4.83-3.49Z"/>
      <path d="m2.5,26.97s.04.01.05.02c0,.02,0,.04-.01.06h-.06s.02-.07.02-.07h0Z"/>
      <path d="m.09,18.02l.04.04-.04.04-.05-.04.05-.04Z"/>
    </g>
  </g>
</svg>