<svg width="91" height="91" viewBox="0 0 91 91" fill="none" xmlns="http://www.w3.org/2000/svg">
<g id="Picto Mail">
<circle id="Ellipse 16" cx="45.0309" cy="45.0309" r="45.0309" fill="#862D2D"/>
<g id="Picto mail">
<path id="Vector" d="M59.8338 34.19L30.6433 34C30.2412 34 30.2412 34.4021 30.2412 34.4021L30 55.1816C30 55.6017 30.3413 55.9422 30.7624 55.9422H59.8338C60.2549 55.9422 60.5962 55.6017 60.5962 55.1816V34.9507C60.5962 34.5306 60.2549 34.19 59.8338 34.19Z" fill="#F1E7E7" stroke="#F1E7E7" stroke-width="6" stroke-miterlimit="10"/>
<g id="Group">
<path id="Vector_2" d="M58 37.5404V53.4596C58 53.7579 57.7422 54 57.4244 54H33.5756C33.2578 54 33 53.7579 33 53.4596V37.5404C33 37.3631 33.0899 37.2055 33.2308 37.107C33.3268 37.0394 33.4467 37 33.5756 37H57.4244C57.5533 37 57.6732 37.0394 57.7692 37.1098C57.9101 37.2083 58 37.3659 58 37.5432V37.5404Z" fill="#862D2D" stroke="#F1E7E7" stroke-width="1.5" stroke-miterlimit="10"/>
<path id="Vector_3" d="M57.2503 37.4645L46.4097 47.642C45.933 48.0895 45.1625 48.0895 44.6858 47.642L33.8452 37.4645C33.9352 37.3997 34.0521 37.3632 34.172 37.3632H56.9205C57.0434 37.3632 57.1574 37.4026 57.2473 37.4673L57.2503 37.4645Z" fill="#862D2D" stroke="#F1E7E7" stroke-width="1.5" stroke-miterlimit="10"/>
</g>
</g>
</g>
</svg>
