<svg width="36" height="35" viewBox="0 0 36 35" fill="none" xmlns="http://www.w3.org/2000/svg">
<path id="Picto In" d="M7.90326 35.0065H0.583092V11.635H7.90326V35.0065ZM4.23924 8.44689C1.89899 8.44689 0 6.52465 0 4.20391C0 3.08896 0.446632 2.01968 1.24164 1.2313C2.03665 0.44291 3.11492 0 4.23924 0C5.36355 0 6.44182 0.44291 7.23683 1.2313C8.03184 2.01968 8.47847 3.08896 8.47847 4.20391C8.47847 6.52465 6.57948 8.44689 4.23924 8.44689ZM35.2928 35.0065H27.9884V23.6294C27.9884 20.918 27.9333 17.4408 24.1826 17.4408C20.3767 17.4408 19.7936 20.3866 19.7936 23.4341V35.0065H12.4813V11.635H19.5021V14.8231H19.6045C20.5816 12.9868 22.9691 11.0489 26.5307 11.0489C33.9375 11.0489 35.3007 15.8858 35.3007 22.1682V35.0065H35.2928Z" fill="#862D2D"/>
</svg>
