<svg width="53" height="40" viewBox="0 0 53 40" fill="none" xmlns="http://www.w3.org/2000/svg">
<g id="Picto mail">
<path id="Vector" d="M47.6564 4.27808L4.94136 4C4.35301 4 4.35301 4.58834 4.35301 4.58834L4 34.9954C4 35.6101 4.49947 36.1084 5.11561 36.1084H47.6564C48.2726 36.1084 48.772 35.6101 48.772 34.9954V5.39113C48.772 4.77641 48.2726 4.27808 47.6564 4.27808Z" fill="#6E6554" stroke="#6E6554" stroke-width="7.06014" stroke-miterlimit="10"/>
<path id="Vector_2" d="M40.4779 11.6645V29.4549C40.4779 29.7883 40.1866 30.0588 39.8276 30.0588H12.8875C12.5285 30.0588 12.2373 29.7883 12.2373 29.4549V11.6645C12.2373 11.4663 12.3389 11.2902 12.4981 11.1801C12.6064 11.1046 12.7419 11.0605 12.8875 11.0605H39.8276C39.9733 11.0605 40.1087 11.1046 40.2171 11.1832C40.3763 11.2933 40.4779 11.4694 40.4779 11.6676V11.6645Z" fill="#E9E8E6" stroke="#6E6554" stroke-width="1.76503" stroke-miterlimit="10"/>
<path id="Vector_3" d="M39.6313 11.5795L27.3855 22.9533C26.847 23.4535 25.9767 23.4535 25.4382 22.9533L13.1924 11.5795C13.294 11.5072 13.4261 11.4663 13.5615 11.4663H39.2588C39.3976 11.4663 39.5263 11.5103 39.6279 11.5827L39.6313 11.5795Z" fill="#E9E8E6" stroke="#6E6554" stroke-width="1.76503" stroke-miterlimit="10"/>
</g>
</svg>
