<svg width="44" height="39" viewBox="0 0 44 39" fill="none" xmlns="http://www.w3.org/2000/svg">
<g id="Picto tel">
<path id="Vector" d="M40.5039 30.237C40.3054 29.662 40.1222 29.1328 39.9492 28.8275C34.9422 19.8311 31.0495 13.328 30.2353 12.3714C29.3296 11.313 28.3221 11.1146 28.3221 11.1146C28.144 11.0789 27.9761 11.0637 27.8183 11.0637C23.2285 11.0281 17.5549 11.0637 17.5549 11.0637C17.1376 11.0688 16.4303 11.0739 15.5398 11.0637C14.9852 11.1807 13.9064 11.4911 13.0261 12.4223C12.7666 12.6971 12.5682 12.9769 12.4206 13.2263C9.1996 18.8338 5.97351 24.3853 3.07308 30.0895C2.76268 30.695 2.80848 31.4227 2.80848 32.1503C2.80848 32.9543 2.78304 33.7633 2.8441 34.5063C2.88481 34.9795 3.42418 37.3253 5.2713 37.9868C5.46466 38.058 5.68347 38.114 5.92771 38.1394C16.3438 38.1547 26.765 38.1751 37.1811 38.1903C37.6849 38.0987 38.9315 37.8087 39.7966 36.7299C40.3156 36.0837 40.5853 35.4578 40.6006 34.9184C40.6667 33.0815 40.9313 31.5142 40.5039 30.237ZM21.7732 31.2802C18.425 31.2802 15.7078 28.5629 15.7078 25.2147C15.7078 21.8665 18.425 19.1493 21.7732 19.1493C25.1214 19.1493 27.8387 21.8665 27.8387 25.2147C27.8387 28.5629 25.1214 31.2802 21.7732 31.2802Z" fill="#862D2D"/>
<path id="Vector_2" d="M1.99977 14.7889C3.62808 14.7737 5.25639 14.7533 6.87961 14.738C7.21545 14.6872 7.69377 14.5701 8.13646 14.2343C8.48757 13.9697 8.83359 13.5575 9.39332 11.7664C9.9734 9.91418 9.93269 9.30865 10.5993 8.59626C10.8232 8.3571 11.0878 8.14848 11.6577 7.84317C13.5048 6.84074 15.3265 6.54052 16.0338 6.43366C16.7818 6.32171 18.3796 6.11309 21.6718 6.13344C22.6691 6.13853 23.7784 6.18433 26.0021 6.2861C28.587 6.40313 29.9864 6.50999 31.4366 7.39538C31.5892 7.48697 31.9505 7.69052 32.3423 8.0518C32.5357 8.22481 33.0751 8.75401 33.5992 9.86329C34.3726 11.5018 33.8231 12.1175 34.454 13.237C34.7135 13.6949 35.1919 14.2903 36.1638 14.7991C37.8735 14.85 39.5883 14.9009 41.298 14.9518C41.5219 14.8958 41.7865 14.8042 42.0511 14.6515C42.967 14.1223 43.3385 13.2369 43.4606 12.8909C43.4606 11.5323 43.6336 10.1635 43.4606 8.81507C43.4403 8.65224 43.3538 8.41817 43.2113 8.15865C42.8653 7.55312 42.219 7.04428 41.8527 6.80003C39.1863 4.99871 39.3797 5.16664 38.7334 4.785C35.3038 2.78014 33.4058 2.10338 32.0675 1.66577C29.9914 0.983912 28.3275 0.704044 27.1623 0.510682C26.3277 0.373293 24.2669 0.0578131 22.0025 0.00692843C16.4663 -0.115195 12.0037 1.40626 9.53071 2.2713C9.53071 2.2713 5.10374 3.81819 0.941367 7.17149C0.574997 7.46662 0.335839 7.84317 0.335839 7.84317C0.147566 8.14848 0.0508847 8.43852 0 8.64715V13.1454C0.106858 13.3489 0.259512 13.583 0.468139 13.817C1.00243 14.4175 1.6334 14.6872 1.99468 14.8093L1.99977 14.7889Z" fill="#862D2D"/>
</g>
</svg>
