<svg width="91" height="91" viewBox="0 0 91 91" fill="none" xmlns="http://www.w3.org/2000/svg">
<g id="Picto LinkedIn">
<circle id="Ellipse 17" cx="45.0309" cy="45.0309" r="45.0309" fill="#862D2D"/>
<path id="Vector" d="M36.7165 59.75H30.4955V39.8879H36.7165V59.75ZM33.6027 37.1785C31.6138 37.1785 30 35.5449 30 33.5727C30 32.6251 30.3796 31.7164 31.0552 31.0464C31.7308 30.3764 32.6472 30 33.6027 30C34.5582 30 35.4745 30.3764 36.1502 31.0464C36.8258 31.7164 37.2054 32.6251 37.2054 33.5727C37.2054 35.5449 35.5915 37.1785 33.6027 37.1785ZM59.9933 59.75H53.7857V50.0812C53.7857 47.777 53.7388 44.8219 50.5513 44.8219C47.317 44.8219 46.8214 47.3254 46.8214 49.9152V59.75H40.6071V39.8879H46.5737V42.5973H46.6607C47.4911 41.0367 49.5201 39.3898 52.5469 39.3898C58.8415 39.3898 60 43.5004 60 48.8395V59.75H59.9933Z" fill="#F1E7E7"/>
</g>
</svg>
