<svg width="91" height="91" viewBox="0 0 91 91" fill="none" xmlns="http://www.w3.org/2000/svg">
<g id="Picto t&#195;&#169;l&#195;&#169;phone">
<circle id="Ellipse 15" cx="45.0309" cy="45.0309" r="45.0309" fill="#862D2D"/>
<g id="Picto t&#195;&#169;l&#195;&#169;phone_2">
<path id="Vector" d="M57.6798 52.6633C57.5442 52.2703 57.419 51.9087 57.3008 51.7C53.8791 45.5521 51.2189 41.108 50.6625 40.4543C50.0435 39.731 49.355 39.5954 49.355 39.5954C49.2333 39.5711 49.1186 39.5606 49.0108 39.5606C45.8742 39.5363 41.997 39.5606 41.997 39.5606C41.7118 39.5641 41.2285 39.5676 40.6199 39.5606C40.2409 39.6406 39.5037 39.8527 38.9021 40.4891C38.7248 40.6769 38.5892 40.8681 38.4883 41.0385C36.2872 44.8705 34.0825 48.6643 32.1004 52.5624C31.8883 52.9762 31.9196 53.4735 31.9196 53.9708C31.9196 54.5202 31.9022 55.0731 31.9439 55.5808C31.9718 55.9042 32.3404 57.5072 33.6026 57.9593C33.7348 58.008 33.8843 58.0462 34.0512 58.0636C41.1694 58.074 48.291 58.0879 55.4091 58.0984C55.7533 58.0358 56.6053 57.8376 57.1964 57.1004C57.5511 56.6587 57.7354 56.231 57.7459 55.8624C57.7911 54.6071 57.9719 53.5361 57.6798 52.6633ZM44.8797 53.3761C42.5916 53.3761 40.7347 51.5192 40.7347 49.2311C40.7347 46.943 42.5916 45.0861 44.8797 45.0861C47.1678 45.0861 49.0247 46.943 49.0247 49.2311C49.0247 51.5192 47.1678 53.3761 44.8797 53.3761Z" fill="#F1E7E7"/>
<path id="Vector_2" d="M31.3666 42.1063C32.4793 42.0959 33.5921 42.082 34.7014 42.0715C34.9309 42.0368 35.2578 41.9568 35.5603 41.7273C35.8002 41.5465 36.0367 41.2648 36.4192 40.0408C36.8156 38.775 36.7878 38.3612 37.2433 37.8744C37.3963 37.7109 37.5771 37.5684 37.9666 37.3597C39.2289 36.6747 40.4738 36.4695 40.9571 36.3965C41.4683 36.32 42.5602 36.1774 44.81 36.1913C45.4916 36.1948 46.2496 36.2261 47.7692 36.2957C49.5357 36.3756 50.492 36.4487 51.4831 37.0537C51.5874 37.1163 51.8343 37.2554 52.102 37.5023C52.2342 37.6205 52.6028 37.9822 52.9609 38.7402C53.4895 39.8599 53.1139 40.2807 53.5451 41.0457C53.7225 41.3587 54.0493 41.7655 54.7135 42.1133C55.8819 42.148 57.0538 42.1828 58.2222 42.2176C58.3752 42.1793 58.556 42.1167 58.7368 42.0124C59.3627 41.6508 59.6166 41.0457 59.7 40.8093C59.7 39.8808 59.8183 38.9454 59.7 38.0239C59.6861 37.9126 59.627 37.7527 59.5296 37.5753C59.2932 37.1615 58.8516 36.8138 58.6012 36.6469C56.7791 35.4159 56.9112 35.5306 56.4696 35.2698C54.1258 33.8998 52.8288 33.4373 51.9142 33.1382C50.4955 32.6723 49.3584 32.481 48.5621 32.3489C47.9918 32.255 46.5835 32.0394 45.0361 32.0046C41.2527 31.9212 38.2031 32.9609 36.5131 33.552C36.5131 33.552 33.4878 34.6091 30.6433 36.9007C30.3929 37.1024 30.2295 37.3597 30.2295 37.3597C30.1008 37.5684 30.0348 37.7666 30 37.9091V40.9831C30.073 41.1222 30.1773 41.2822 30.3199 41.4421C30.685 41.8525 31.1162 42.0368 31.3631 42.1202L31.3666 42.1063Z" fill="#F1E7E7"/>
</g>
</g>
</svg>
