<svg width="46" height="45" viewBox="0 0 46 45" fill="none" xmlns="http://www.w3.org/2000/svg">
<g id="Figma">
<path id="Vector" d="M39.5749 0.626465H5.59977C2.5071 0.626465 0 3.11762 0 6.19064V38.7576C0 41.8306 2.5071 44.3218 5.59977 44.3218H39.5749C42.6676 44.3218 45.1747 41.8306 45.1747 38.7576V6.19064C45.1747 3.11762 42.6676 0.626465 39.5749 0.626465Z" fill="white"/>
<g id="Group">
<path id="Vector_2" d="M28.3049 17.6933H23.0815V7.80396H28.3049C31.0342 7.80396 33.2694 10.025 33.2694 12.7369C33.2694 15.4489 31.0342 17.6699 28.3049 17.6699V17.6933Z" fill="#EC615A"/>
<path id="Vector_3" d="M28.0461 27.5827C25.3167 27.5827 23.0815 25.3617 23.0815 22.6497C23.0815 19.9378 25.3167 17.7168 28.0461 17.7168H28.3049C31.0342 17.7168 33.2694 19.9378 33.2694 22.6497C33.2694 25.3617 31.0342 27.5827 28.0461 27.5827Z" fill="#00B4E4"/>
<path id="Vector_4" d="M17.8581 7.80396H23.0814V17.6933H17.8581C15.1288 17.6933 12.8936 15.4723 12.8936 12.7603C12.8936 10.0484 15.1288 7.82736 17.8581 7.82736V7.80396Z" fill="#D6380D"/>
<path id="Vector_5" d="M23.0814 27.5827H17.8581C15.1288 27.5827 12.8936 25.3617 12.8936 22.6497C12.8936 19.9378 15.1288 17.7168 17.8581 17.7168H23.0814V27.6061V27.5827Z" fill="#A863EA"/>
<path id="Vector_6" d="M17.8581 37.4719C15.1288 37.4719 12.8936 35.2509 12.8936 32.5389C12.8936 29.8269 15.1288 27.606 17.8581 27.606H23.0814V32.5389C23.0814 35.0171 20.8462 37.4719 17.8581 37.4719Z" fill="#31C477"/>
</g>
</g>
</svg>
