<svg width="46" height="44" viewBox="0 0 46 44" fill="none" xmlns="http://www.w3.org/2000/svg">
<g id="Figma">
<path id="Vector" d="M39.5749 0H5.59977C2.5071 0 0 2.49115 0 5.56418V38.1311C0 41.2042 2.5071 43.6953 5.59977 43.6953H39.5749C42.6676 43.6953 45.1747 41.2042 45.1747 38.1311V5.56418C45.1747 2.49115 42.6676 0 39.5749 0Z" fill="#F1E7E7"/>
<g id="Group">
<path id="Vector_2" d="M29.2325 18.7H23.0527V7H29.2325C32.4615 7 35.106 9.62767 35.106 12.8362C35.106 16.0447 32.4615 18.6724 29.2325 18.6724V18.7Z" fill="#EC615A"/>
<path id="Vector_3" d="M28.9262 30.4002C25.6972 30.4002 23.0527 27.7725 23.0527 24.5639C23.0527 21.3554 25.6972 18.7278 28.9262 18.7278H29.2325C32.4615 18.7278 35.106 21.3554 35.106 24.5639C35.106 27.7725 32.4615 30.4002 28.9262 30.4002Z" fill="#00B4E4"/>
<path id="Vector_4" d="M16.8735 7H23.0532V18.7H16.8735C13.6445 18.7 11 16.0724 11 12.8639C11 9.65536 13.6445 7.02769 16.8735 7.02769V7Z" fill="#D6380D"/>
<path id="Vector_5" d="M23.0532 30.4002H16.8735C13.6445 30.4002 11 27.7725 11 24.5639C11 21.3554 13.6445 18.7278 16.8735 18.7278H23.0532V30.4279V30.4002Z" fill="#A863EA"/>
<path id="Vector_6" d="M16.8735 42.1001C13.6445 42.1001 11 39.4724 11 36.2639C11 33.0554 13.6445 30.4277 16.8735 30.4277H23.0532V36.2639C23.0532 39.1958 20.4088 42.1001 16.8735 42.1001Z" fill="#31C477"/>
</g>
</g>
</svg>
