<svg width="46" height="45" viewBox="0 0 46 45" fill="none" xmlns="http://www.w3.org/2000/svg">
<g id="QGIS">
<path id="Vector" d="M39.5749 0.452148H5.59978C2.5071 0.452148 0 2.94327 0 6.01629V38.7001C0 41.7732 2.5071 44.2644 5.59978 44.2644H39.5749C42.6676 44.2644 45.1747 41.7732 45.1747 38.7001V6.01629C45.1747 2.94327 42.6676 0.452148 39.5749 0.452148Z" fill="white"/>
<g id="Group">
<path id="Vector_2" d="M3.19971 21.0723C3.19971 15.251 3.19971 9.45299 3.19971 3.63162C3.19971 3.56148 3.1997 3.53809 3.29382 3.53809C16.1639 3.53809 29.0104 3.53809 41.8805 3.53809C41.9511 3.53809 41.9746 3.53811 41.9746 3.63162C41.9746 16.116 41.9746 28.577 41.9746 41.0614C41.9746 41.1316 41.9746 41.1549 41.8805 41.1549C29.0104 41.1549 16.1639 41.1549 3.29382 41.1549C3.22323 41.1549 3.19971 41.1549 3.19971 41.0614C3.19971 34.8894 3.19971 28.7407 3.19971 22.5686C3.19971 22.5686 3.19971 22.5686 3.22324 22.5686C3.22324 22.5686 3.24676 22.592 3.24676 22.6154C3.24676 22.7322 3.27029 22.8491 3.24676 22.966C3.29382 23.5505 3.3644 24.135 3.45852 24.7194C3.5291 25.0935 3.59969 25.4676 3.6938 25.8183C3.6938 25.865 3.6938 25.8884 3.6938 25.9352C3.81145 26.3326 3.90556 26.7301 4.0232 27.1042C4.0232 27.1042 4.0232 27.1509 4.0232 27.1743C4.16437 27.5717 4.30554 27.9691 4.47024 28.3666C4.5173 28.5068 4.56436 28.6237 4.63494 28.7406C4.75258 29.0212 4.89375 29.3252 5.03493 29.6057C5.1761 29.8629 5.29374 30.0966 5.43491 30.3538C5.52902 30.5174 5.62314 30.6812 5.74078 30.8448C5.81137 30.9617 5.88195 31.0786 5.95254 31.1955C6.23488 31.6397 6.56428 32.0839 6.89368 32.5047C6.91721 32.5982 7.01132 32.645 7.08191 32.7385C7.22308 32.9255 7.4113 33.1125 7.55247 33.2996C7.7407 33.4866 7.9054 33.697 8.09363 33.8606C8.09363 33.9074 8.16421 33.9308 8.21127 33.9776C8.32891 34.0945 8.44655 34.188 8.54067 34.3049C8.87007 34.6322 9.223 34.9361 9.59945 35.24C9.69357 35.3335 9.81121 35.4037 9.90532 35.4738C10.2582 35.7543 10.6347 36.0115 11.0347 36.2687C11.2229 36.3856 11.4111 36.5025 11.5994 36.6194C12.0935 36.9233 12.6111 37.2039 13.1523 37.461C13.4346 37.6013 13.6934 37.7182 13.9757 37.8351C14.0228 37.8351 14.0463 37.9052 14.0934 37.9052C14.1169 37.9052 14.1404 37.9053 14.164 37.9286C14.7757 38.1624 15.411 38.3962 16.0463 38.6066C16.0933 38.6066 16.1404 38.63 16.1874 38.6767C16.9403 38.8637 17.7168 39.0742 18.4932 39.2145C18.9167 39.2846 19.3167 39.3547 19.7402 39.4015C19.7873 39.4015 19.8108 39.4015 19.8579 39.4015C19.9285 39.4015 19.999 39.4249 20.0696 39.4249C20.0932 39.4249 20.1402 39.4249 20.1637 39.4249C20.1873 39.4249 20.2108 39.4249 20.2579 39.4249C20.2814 39.4249 20.3284 39.4249 20.352 39.4249C20.3755 39.4249 20.399 39.4249 20.4461 39.4249C20.4696 39.4249 20.5167 39.4249 20.5402 39.4249C20.5637 39.4249 20.6108 39.4249 20.6343 39.4249C20.6814 39.4249 20.7049 39.4249 20.7519 39.4249C20.799 39.4249 20.8461 39.4249 20.8696 39.4249C20.9167 39.4249 20.9637 39.4249 21.0108 39.4249C21.0578 39.4249 21.1049 39.4249 21.1519 39.4249C21.199 39.4249 21.2696 39.4249 21.3402 39.4249C21.4107 39.4249 21.4578 39.4249 21.5284 39.4249C21.6225 39.4249 21.6931 39.4249 21.7872 39.4249C21.9284 39.4249 22.046 39.4249 22.1872 39.4249C22.3048 39.4249 22.4225 39.4482 22.5401 39.4716C22.6578 39.4716 22.7754 39.4249 22.893 39.4249C23.0342 39.4249 23.1989 39.4249 23.3401 39.4249C23.4342 39.4249 23.5283 39.4249 23.6224 39.4249C23.693 39.4249 23.7401 39.4249 23.8107 39.4249C23.8812 39.4249 23.9518 39.4249 23.9989 39.4249C24.0459 39.4249 24.093 39.4249 24.1401 39.4249C24.1871 39.4249 24.2342 39.4249 24.2812 39.4249C24.3283 39.4249 24.3518 39.4249 24.3989 39.4249C24.4459 39.4249 24.493 39.4249 24.54 39.4249C24.5871 39.4249 24.6106 39.4249 24.6341 39.4249C24.6577 39.4249 24.7047 39.4249 24.7283 39.4249C24.7518 39.4249 24.7989 39.4249 24.8224 39.4249C24.8459 39.4249 24.893 39.4249 24.9165 39.4249C24.94 39.4249 24.9871 39.4249 25.0106 39.4249C25.0341 39.4249 25.0812 39.4249 25.1047 39.4249C25.1753 39.4249 25.2459 39.4248 25.3165 39.4015C25.34 39.4015 25.3871 39.4015 25.4106 39.4015C25.7165 39.3781 26.0223 39.3313 26.3282 39.2612C27.3399 39.0975 28.3281 38.8404 29.2928 38.5364C29.3398 38.5364 29.3869 38.5365 29.3869 38.4897C29.3869 38.4897 29.3869 38.4664 29.3869 38.443C29.1516 38.2326 28.9163 37.9988 28.681 37.7884C28.681 37.7884 28.634 37.7649 28.634 37.7416C28.4928 37.6013 28.3516 37.4611 28.2105 37.3442C27.9987 37.1571 27.8105 36.9701 27.5987 36.783C27.3635 36.5726 27.1517 36.3622 26.9164 36.1518C26.9164 36.1518 26.8929 36.1285 26.8694 36.1051C26.5635 35.8713 26.3047 35.5673 26.0223 35.3101C25.9282 35.24 25.8576 35.1699 25.787 35.0764C25.2929 34.6322 24.8224 34.1646 24.3283 33.7204C24.2577 33.6269 24.1636 33.5801 24.093 33.51C24.0695 33.4866 24.0224 33.51 23.9754 33.51C23.9048 33.51 23.8106 33.51 23.7401 33.5334C23.3401 33.4866 22.9636 33.5334 22.5636 33.51C22.4695 33.51 22.3989 33.5568 22.3048 33.5334C22.2342 33.5334 22.1637 33.5334 22.0695 33.5334C22.0225 33.5334 21.9519 33.5334 21.9048 33.5334C21.8578 33.5334 21.8107 33.5334 21.7637 33.5334C21.7166 33.5334 21.6696 33.5334 21.646 33.5334C21.3166 33.4866 20.9872 33.4632 20.6343 33.3931C20.352 33.3463 20.0932 33.2762 19.8108 33.2294C19.6696 33.1593 19.5049 33.1593 19.3638 33.1126C19.105 33.0424 18.8461 32.9489 18.5873 32.8554C18.3285 32.7852 18.0932 32.6683 17.8579 32.5748C17.8344 32.5748 17.8109 32.5281 17.7638 32.5047C17.7638 32.5047 17.7403 32.5047 17.7168 32.5047C17.5286 32.4579 17.3638 32.3644 17.1991 32.2709C16.8462 32.0839 16.5168 31.8968 16.211 31.6864C15.811 31.4292 15.4345 31.1253 15.0581 30.8214C14.8934 30.7279 14.7757 30.5876 14.6345 30.4707C14.3522 30.2136 14.0699 29.933 13.8111 29.6291C13.8111 29.6291 13.7875 29.6057 13.764 29.5823C13.4581 29.255 13.1758 28.8809 12.917 28.5302C12.8699 28.4835 12.8464 28.4133 12.8229 28.3666C12.564 27.9925 12.3523 27.6185 12.1405 27.221C12.1405 27.1976 12.117 27.1743 12.0935 27.1509C11.8817 26.7534 11.717 26.356 11.5523 25.9352C11.4347 25.5845 11.317 25.2572 11.2229 24.9065C11.2229 24.8364 11.2229 24.7663 11.1759 24.6961C11.0347 24.135 10.9406 23.5505 10.8935 22.966C10.8935 22.9426 10.8935 22.8959 10.8935 22.8726C10.8935 22.8258 10.8935 22.7556 10.8935 22.7089C10.8935 22.3582 10.87 22.0309 10.8935 21.6802C10.8935 21.4932 10.8935 21.3062 10.917 21.1191C10.917 21.0724 10.917 21.049 10.917 21.0022C10.9641 20.6048 11.0112 20.2074 11.0817 19.8099C11.1523 19.5527 11.1994 19.2721 11.27 19.015C11.4111 18.524 11.5523 18.0331 11.7641 17.5422C11.7641 17.4954 11.8111 17.472 11.8111 17.4252C11.8111 17.3083 11.9052 17.1914 11.9523 17.0745C12.2111 16.5602 12.4699 16.0692 12.7993 15.6017C12.8229 15.5549 12.8699 15.5315 12.8934 15.4848C13.1758 15.0873 13.4817 14.6899 13.8111 14.3158C13.9522 14.1522 14.1169 13.9886 14.2816 13.8249C14.5404 13.5677 14.8228 13.3339 15.0816 13.1001C15.1051 13.0767 15.1757 13.0534 15.1757 13.0066C15.458 12.7728 15.7639 12.5624 16.0698 12.352C16.5639 12.0247 17.0815 11.7442 17.6227 11.487C17.8815 11.3701 18.1638 11.2298 18.4462 11.1597C18.4932 11.1597 18.5167 11.1129 18.5638 11.1129C19.1285 10.9259 19.6932 10.7622 20.2814 10.6453C20.5167 10.5986 20.7284 10.5518 20.9637 10.5518C21.0343 10.5518 21.1049 10.5051 21.1519 10.5051C21.4343 10.4817 21.7166 10.4583 21.999 10.4349C22.046 10.4349 22.0931 10.4349 22.1401 10.4349C22.4931 10.4349 22.8225 10.4349 23.1754 10.4349C23.5989 10.4349 24.0224 10.4816 24.4459 10.5518C25.1283 10.6453 25.787 10.809 26.4223 11.0194C26.54 11.0895 26.6576 11.1129 26.7988 11.1597C27.3164 11.3467 27.834 11.5805 28.3046 11.861C28.5163 11.9779 28.7516 12.0948 28.9399 12.2351C29.0575 12.3052 29.1751 12.3754 29.2928 12.4689C29.6457 12.726 29.9986 13.0066 30.3516 13.2872C30.5633 13.4742 30.7751 13.6846 30.9868 13.895C31.0339 13.9418 31.0574 13.9885 31.1045 14.0353C31.5045 14.4561 31.8574 14.9237 32.1868 15.3913C32.2809 15.5315 32.375 15.6718 32.4691 15.8355C32.7985 16.3732 33.0809 16.9343 33.3162 17.5188C33.3162 17.5655 33.3162 17.6122 33.3632 17.6356C33.4338 17.7993 33.5044 17.9863 33.5514 18.15C33.6456 18.4071 33.7161 18.6877 33.7867 18.9682C33.9044 19.3657 33.975 19.7397 34.022 20.1372C34.0926 20.5346 34.1161 20.932 34.1397 21.3529C34.1397 21.4931 34.1397 21.6335 34.1632 21.7737C34.1632 22.2179 34.1632 22.6388 34.0926 23.083C34.0926 23.1297 34.0926 23.1765 34.0926 23.2232C34.0926 23.27 34.0926 23.2933 34.0926 23.3401C34.0926 23.3635 34.0926 23.3869 34.0926 23.4102C34.0926 23.4336 34.0926 23.4804 34.0926 23.5038C34.0691 23.5973 34.0691 23.7142 34.0455 23.8077C33.9985 24.0883 33.9514 24.3688 33.8808 24.6727C33.8808 24.7429 33.8573 24.813 33.8338 24.8597C33.8103 24.9532 33.8338 25.0001 33.8808 25.0702C34.3279 25.5144 34.7749 25.9352 35.222 26.3794C35.3867 26.5431 35.5514 26.6833 35.6925 26.8469C36.7278 27.8289 37.716 28.8108 38.7512 29.7927C38.9865 30.0265 39.2453 30.2603 39.4806 30.5175C39.5512 30.5876 39.5747 30.5876 39.6218 30.5175C39.8806 30.0966 40.0924 29.6524 40.3041 29.2082C40.5865 28.6004 40.8217 27.9926 41.0335 27.338C41.1041 27.1509 41.1511 26.9405 41.2217 26.7535C41.2217 26.66 41.2688 26.5898 41.2923 26.4963C41.457 25.9118 41.5747 25.3273 41.6688 24.7429C41.7158 24.4389 41.7629 24.1116 41.8099 23.8077C41.8099 23.7843 41.8099 23.761 41.8099 23.7376C41.8335 23.4804 41.857 23.2232 41.8805 22.9894C41.8805 22.6387 41.9041 22.288 41.9276 21.9373C41.9276 21.7737 41.9276 21.5867 41.9041 21.4231C41.9041 21.3296 41.9041 21.2594 41.9041 21.1659C41.9041 21.0957 41.9041 21.0256 41.9041 20.9555C41.9041 20.9087 41.9041 20.8386 41.9041 20.7918C41.9041 20.745 41.9041 20.6983 41.9041 20.6281C41.9041 20.5814 41.9041 20.558 41.9041 20.5113C41.9041 20.4645 41.9041 20.4412 41.9041 20.3944C41.9041 20.371 41.9041 20.3242 41.9041 20.3009C41.9041 20.2541 41.9041 20.2307 41.9041 20.1839C41.9041 20.1605 41.9041 20.1372 41.9041 20.0905C41.9041 20.0671 41.9041 20.0203 41.9041 19.9969C41.9041 19.9735 41.9041 19.9502 41.9041 19.9268C41.9041 19.9034 41.9041 19.8566 41.9041 19.8332C41.857 19.5059 41.8335 19.1786 41.7864 18.8747C41.7864 18.8747 41.7864 18.8513 41.7864 18.828C41.6923 18.4071 41.6217 17.963 41.5041 17.5422C41.3864 17.1213 41.2688 16.7005 41.1276 16.2797C41.057 16.0926 40.9864 15.929 40.9394 15.7419C40.7041 15.1341 40.4453 14.5262 40.1159 13.9418C40.0218 13.7547 39.9041 13.5677 39.81 13.404C39.5983 13.03 39.363 12.6559 39.1042 12.3052C39.0806 12.2585 39.0336 12.2117 38.9865 12.1649C38.9865 12.0948 38.9159 12.048 38.8689 12.0013C38.6101 11.6272 38.3277 11.2765 38.0219 10.9259C37.763 10.6687 37.5513 10.3881 37.2689 10.131C37.2219 10.0842 37.1984 10.0375 37.1513 10.0141C37.1042 9.94398 37.0337 9.8972 36.9866 9.85044C36.9395 9.80369 36.8925 9.78033 36.869 9.73358C36.6572 9.54654 36.4454 9.35946 36.2337 9.17243C36.1866 9.1023 36.0925 9.05552 36.0455 9.00876C35.8808 8.86849 35.6925 8.72823 35.5278 8.58796C35.3396 8.4243 35.1043 8.26069 34.8926 8.12042C34.822 8.07366 34.7514 8.02689 34.6808 7.95675C34.6808 7.95675 34.6338 7.93333 34.6102 7.90995C34.3514 7.74629 34.0926 7.58266 33.8338 7.41901C33.7867 7.41901 33.7632 7.37225 33.7161 7.34887C33.5985 7.27874 33.4809 7.20861 33.3397 7.13847C33.1279 7.02158 32.8926 6.88132 32.6809 6.7878C32.6809 6.7878 32.6574 6.78778 32.6338 6.7644C32.5868 6.71764 32.5162 6.71764 32.4691 6.69426C32.2809 6.60075 32.0927 6.50724 31.9044 6.41373C31.7633 6.34359 31.5986 6.27346 31.4574 6.20333C31.4339 6.15657 31.3868 6.1799 31.3398 6.15652C31.2692 6.10976 31.1986 6.10982 31.128 6.06306C31.1045 6.06306 31.081 6.06301 31.0339 6.01625C30.7751 5.92274 30.4927 5.8059 30.2339 5.71239C30.1163 5.66563 29.9986 5.64218 29.9045 5.57205C29.434 5.45515 28.9869 5.29154 28.5163 5.17464C28.234 5.10451 27.9517 5.03438 27.6693 4.96424C27.0341 4.84735 26.3988 4.70704 25.74 4.6369C25.6694 4.6369 25.5988 4.63695 25.5518 4.61357C25.5282 4.61357 25.4812 4.61357 25.4576 4.61357H25.4106C25.3871 4.61357 25.34 4.61357 25.3165 4.61357C25.3165 4.61357 25.2694 4.61357 25.2459 4.61357C25.2224 4.61357 25.1753 4.61357 25.1518 4.61357C25.1282 4.61357 25.1047 4.61357 25.0577 4.61357C25.0341 4.61357 24.9871 4.61357 24.9635 4.61357C24.94 4.61357 24.9165 4.61357 24.8694 4.61357C24.8459 4.61357 24.7989 4.61357 24.7753 4.61357C24.7518 4.61357 24.7047 4.61357 24.6812 4.61357C24.6341 4.61357 24.6106 4.61357 24.5636 4.61357C24.54 4.61357 24.493 4.61357 24.4459 4.61357C24.3989 4.61357 24.3518 4.61357 24.3048 4.61357C24.2577 4.61357 24.2106 4.61357 24.1871 4.61357C24.1401 4.61357 24.0695 4.61357 24.0224 4.61357C23.9754 4.61357 23.9048 4.61357 23.8577 4.61357C23.7871 4.61357 23.693 4.61357 23.6224 4.61357C23.5283 4.61357 23.4577 4.61357 23.3636 4.61357C23.1519 4.59019 22.9401 4.56677 22.7283 4.56677C22.5166 4.56677 22.3048 4.56679 22.1166 4.59017C20.9166 4.59017 19.7402 4.73043 18.5638 4.94084C17.7168 5.10449 16.8933 5.31493 16.0698 5.54872C15.7404 5.64223 15.4345 5.75909 15.1051 5.87599C15.011 5.89936 14.9169 5.92276 14.8463 5.96952C14.7287 6.03966 14.5875 6.08643 14.4463 6.13319C14.2581 6.20333 14.0699 6.27348 13.9052 6.367C13.8581 6.367 13.8346 6.36697 13.7875 6.41373C13.7169 6.48387 13.5993 6.50722 13.5287 6.53059C13.4817 6.57735 13.4346 6.53059 13.3875 6.60073C13.2464 6.69424 13.1052 6.7644 12.9405 6.83453C12.7523 6.92805 12.564 7.02155 12.3993 7.11507C12.3523 7.13845 12.2817 7.13845 12.2582 7.1852C11.9288 7.37224 11.6229 7.55927 11.317 7.76968C11.27 7.79306 11.2229 7.79305 11.1994 7.83981C11.0582 7.95671 10.8935 8.05026 10.7288 8.16715C10.5876 8.26067 10.47 8.35417 10.3288 8.44769C10.3288 8.44769 10.2818 8.44766 10.2818 8.49442C10.023 8.70483 9.74062 8.91529 9.48181 9.1257C9.34064 9.26597 9.17594 9.40623 9.01124 9.5465C8.94065 9.61664 8.87007 9.68682 8.79948 9.73358C8.61126 9.94399 8.3995 10.131 8.18774 10.3181C8.11716 10.4116 8.04657 10.505 7.95246 10.5752C7.83481 10.7155 7.71717 10.8558 7.576 10.9727C7.43483 11.1597 7.27013 11.3467 7.10543 11.5337C7.10543 11.5337 7.0819 11.5805 7.05838 11.6039C6.77603 11.9312 6.54075 12.3053 6.28194 12.656C6.25841 12.7027 6.23488 12.726 6.21135 12.7494C6.07018 12.9832 5.92901 13.217 5.78784 13.4274C5.64667 13.708 5.48197 13.9651 5.3408 14.2223C5.27021 14.386 5.19963 14.5263 5.10551 14.6899C4.94081 15.064 4.77611 15.4147 4.61141 15.7887C4.61141 15.7887 4.61142 15.8121 4.58789 15.8355C4.3526 16.4433 4.14085 17.0512 3.99968 17.6824C3.99968 17.7292 3.97615 17.7993 3.95262 17.846C3.8585 18.2668 3.76439 18.6644 3.6938 19.0852C3.64675 19.3891 3.59969 19.693 3.57616 19.9969C3.57616 20.0203 3.57616 20.0671 3.57616 20.0905C3.57616 20.0905 3.57616 20.1372 3.57616 20.1606C3.57616 20.184 3.57616 20.2307 3.57616 20.2541C3.57616 20.2775 3.57616 20.3008 3.57616 20.3476C3.57616 20.3943 3.57616 20.4178 3.57616 20.4645C3.57616 20.4879 3.57616 20.5112 3.57616 20.558C3.57616 20.6047 3.57616 20.6515 3.57616 20.6983C3.57616 20.7216 3.57616 20.7684 3.57616 20.8152C3.57616 20.862 3.57616 20.9087 3.57616 20.9555C3.57616 21.0022 3.57616 21.049 3.57616 21.0957C3.57616 21.1659 3.57616 21.236 3.57616 21.3061C3.57616 21.3295 3.57616 21.3763 3.5291 21.3997C3.5291 21.3997 3.5291 21.3997 3.50558 21.3997L3.19971 21.0723Z" fill="white"/>
<path id="Vector_3" d="M10.9877 22.8023C10.9877 22.8023 10.9877 22.8724 10.9877 22.8958C10.9642 22.9425 10.8936 22.9426 10.8466 22.9426C10.376 22.9426 9.90541 22.9425 9.43484 22.9659C8.96427 22.9659 8.51723 22.9659 8.04666 22.9659C7.64668 22.9659 7.2467 22.9659 6.87024 22.9659C6.4232 22.9659 5.99969 22.9659 5.55265 22.9659C5.15266 22.9659 4.75268 22.9659 4.35269 22.9659C4.02329 22.9659 3.6939 22.9659 3.3645 22.9659C3.31744 22.9659 3.24686 22.9659 3.1998 22.9192C3.1998 22.7789 3.1998 22.6387 3.17627 22.4984C3.17627 22.4282 3.17627 22.3814 3.17627 22.3113C3.17627 22.2178 3.17627 22.1477 3.17627 22.0542V21.423C3.17627 21.423 3.17627 21.2593 3.17627 21.1892C3.17627 21.1424 3.17627 21.0957 3.17627 21.0489C3.17627 21.0255 3.22332 21.0255 3.27038 21.0255H3.31744C3.90565 21.0255 4.47033 21.0255 5.05855 21.0255C5.55264 21.0255 6.04674 21.0255 6.54084 21.0255C6.9173 21.0255 7.31728 21.0255 7.69374 21.0255C8.11725 21.0255 8.56429 21.0255 8.9878 21.0255C9.38779 21.0255 9.78777 21.0255 10.1878 21.0255C10.376 21.0255 10.5642 21.0021 10.7524 21.0255C10.823 21.0255 10.8701 20.9788 10.9171 20.9788C10.9171 21.3762 10.8701 21.7736 10.8936 22.1477C10.8936 22.3347 10.8936 22.4983 10.8936 22.6854C10.8936 22.7321 10.8936 22.7789 10.8936 22.8491L10.9877 22.8023Z" fill="#7AA729"/>
<path id="Vector_4" d="M23.9522 29.5354C23.4816 29.0912 23.011 28.6237 22.5404 28.1795C21.4346 27.1274 20.3288 26.052 19.2229 25C19.1759 24.9532 19.1523 24.9064 19.1523 24.8129C19.1523 23.1296 19.1523 21.423 19.1523 19.7397C19.1523 19.6462 19.2072 19.5994 19.317 19.5994C19.317 19.5994 19.4347 19.6695 19.5053 19.7163C19.9053 20.0904 20.2817 20.4645 20.6817 20.8385C20.9876 21.1191 21.2699 21.423 21.5758 21.7035C21.8816 21.9841 22.164 22.288 22.4934 22.5685C22.7993 22.8491 23.0816 23.153 23.3875 23.4336C23.5757 23.5972 23.7404 23.7609 23.9286 23.9479C23.9757 23.9947 24.0227 24.0414 24.0227 24.1116C24.0227 25.8884 24.0227 27.6417 24.0227 29.3952C24.0227 29.4419 24.0463 29.5121 23.9757 29.5354H23.9522Z" fill="#EE7B14"/>
<path id="Vector_5" d="M13.9757 37.9285C13.6934 37.835 13.4346 37.6947 13.1758 37.5778C12.4699 37.2271 11.764 36.8296 11.1053 36.4088C11.1053 36.4088 11.0582 36.3855 11.0347 36.3621C11.0582 36.292 11.1288 36.292 11.1994 36.292C11.3876 36.292 11.5758 36.292 11.764 36.292C12.3523 36.292 12.9405 36.2919 13.5287 36.2686C13.9287 36.2686 14.3287 36.2686 14.7286 36.2686C15.1522 36.2686 15.5757 36.2686 16.0227 36.2686C16.4227 36.2686 16.8227 36.2686 17.2227 36.2686C17.6462 36.2686 18.0697 36.2686 18.4932 36.2686C18.8932 36.2686 19.3167 36.2686 19.7167 36.2686C20.1402 36.2686 20.5637 36.2686 20.9872 36.2686C21.3872 36.2686 21.7872 36.2686 22.1872 36.2686C22.6107 36.2686 23.0342 36.2686 23.4577 36.2686C23.8577 36.2686 24.2812 36.2686 24.6812 36.2686C25.1047 36.2686 25.5282 36.2686 25.9517 36.2686C26.187 36.2686 26.4223 36.2686 26.6576 36.2686C26.7282 36.2686 26.8223 36.2686 26.8929 36.292C26.987 36.3855 27.0811 36.479 27.1752 36.5491C27.4811 36.8296 27.7869 37.1336 28.0928 37.4142C28.281 37.5778 28.4457 37.7649 28.6575 37.9285C28.6575 37.9753 28.634 37.9752 28.5869 37.9752C28.5634 37.9752 28.5399 37.9752 28.5163 37.9752C28.0693 37.9752 27.5987 37.9752 27.1517 37.9752C26.5399 37.9752 25.9047 37.9753 25.2929 37.9986C24.8694 37.9986 24.4694 37.9986 24.0459 37.9986C23.6224 37.9986 23.1989 37.9986 22.7989 37.9986C22.3989 37.9986 21.9989 37.9986 21.599 37.9986C21.1754 37.9986 20.7284 37.9986 20.3049 37.9986C19.9049 37.9986 19.5049 37.9986 19.1049 37.9986C18.752 37.9986 18.3756 37.9986 18.0226 37.9986C17.8344 37.9986 17.6697 37.9986 17.4815 37.9986C16.7756 37.9986 16.0462 37.9986 15.3404 37.9986C15.011 37.9986 14.6816 37.9986 14.3522 37.9986C14.3051 37.9986 14.2345 37.9986 14.1875 37.9986H14.1404C14.1169 37.9519 14.0698 37.9518 14.0228 37.9518L13.9757 37.9285Z" fill="#609B2C"/>
<path id="Vector_6" d="M23.9755 24.0648C23.7873 23.8777 23.6226 23.6907 23.4108 23.5271C23.3403 23.457 23.2697 23.3868 23.1991 23.34C22.6815 22.8491 22.1874 22.3581 21.6697 21.8671C21.3639 21.5866 21.0815 21.2827 20.7757 21.0021C20.4698 20.7216 20.1639 20.4177 19.8581 20.1371C19.6698 19.9735 19.4816 19.7864 19.3169 19.5994C19.3404 19.5994 19.3875 19.5994 19.411 19.5994C21.2227 19.5994 23.0344 19.5994 24.8461 19.5994C24.9167 19.5994 24.9402 19.5994 24.9873 19.6462C26.4931 21.0723 27.9754 22.5218 29.4812 23.9479C29.4812 23.9479 29.5047 23.9712 29.5283 23.9946C29.5283 24.0414 29.4577 24.0414 29.4341 24.0414C29.3636 24.0414 29.3165 24.0414 29.2459 24.0414C27.5754 24.0414 25.9049 24.0414 24.2579 24.0414C24.1873 24.0414 24.0932 24.0414 24.0226 24.0414C24.0226 24.0414 23.9991 24.0414 23.9755 24.0414V24.0648Z" fill="#EE8E33"/>
<path id="Vector_7" d="M9.59966 35.2869C9.17615 34.9596 8.77616 34.5855 8.37618 34.2114C8.28207 34.1179 8.18795 34.0244 8.07031 33.9075C8.07031 33.8842 8.09384 33.8607 8.1409 33.8607C8.16442 33.8607 8.18795 33.8607 8.21148 33.8607C8.61147 33.8607 9.03498 33.8607 9.43496 33.8607C10.0702 33.8607 10.7055 33.8608 11.3172 33.8374C11.7172 33.8374 12.1407 33.8374 12.5407 33.8374C12.9642 33.8374 13.3642 33.8374 13.7877 33.8374C14.1877 33.8374 14.5877 33.8374 14.9877 33.8374C15.4112 33.8374 15.8582 33.8374 16.2817 33.8374C16.6817 33.8374 17.1052 33.8374 17.5052 33.8374C17.9287 33.8374 18.3523 33.8374 18.7522 33.8374C19.1522 33.8374 19.5757 33.8374 19.9757 33.8374C20.3992 33.8374 20.8227 33.8374 21.2463 33.8374C21.6462 33.8374 22.0698 33.8374 22.4697 33.8374C22.8933 33.8374 23.2932 33.8374 23.7167 33.8374C23.8579 33.8374 23.9756 33.8374 24.1167 33.8374C24.1873 33.8374 24.2579 33.8374 24.3285 33.8841C24.8226 34.3283 25.2932 34.7725 25.7637 35.2401C25.7637 35.3102 25.6931 35.3102 25.6226 35.3102C25.4108 35.3102 25.199 35.3102 24.9873 35.3102C24.4932 35.3102 24.0226 35.3102 23.5285 35.3102C23.1521 35.3102 22.7756 35.3102 22.3991 35.3102C21.9521 35.3102 21.4815 35.3102 21.0345 35.3102C20.658 35.3102 20.2581 35.3102 19.8816 35.3102C19.4346 35.3102 19.0111 35.3102 18.564 35.3102C18.164 35.3102 17.764 35.3102 17.3641 35.3102C16.9405 35.3102 16.517 35.3102 16.0935 35.3102C15.6935 35.3102 15.2936 35.3102 14.8936 35.3102C14.4465 35.3102 14.023 35.3102 13.576 35.3102C13.176 35.3102 12.776 35.3102 12.376 35.3102C11.9525 35.3102 11.529 35.3102 11.1055 35.3102C10.682 35.3102 10.282 35.3102 9.85848 35.3102C9.76436 35.3102 9.64672 35.3336 9.5526 35.2869H9.59966Z" fill="#639D2B"/>
<path id="Vector_8" d="M41.8335 23.644C41.81 24.0415 41.7394 24.4155 41.6688 24.813C41.5747 25.3507 41.457 25.8884 41.3159 26.4261C41.2923 26.5197 41.2688 26.6132 41.2453 26.6834C41.2218 26.7301 41.1747 26.7301 41.1276 26.7301C40.8218 26.7301 40.5159 26.7535 40.21 26.7301C39.6218 26.7301 39.0336 26.7301 38.4454 26.7301C38.0454 26.7301 37.6219 26.7301 37.2219 26.7301C36.7984 26.7301 36.3514 26.7301 35.9278 26.7301C35.8337 26.7301 35.7396 26.7535 35.6455 26.7301C35.5749 26.66 35.5043 26.5898 35.4338 26.5197C34.8926 25.982 34.3279 25.4443 33.7868 24.9299C33.7397 24.8832 33.7162 24.8364 33.7397 24.7663C33.8338 24.4156 33.9044 24.0649 33.9515 23.7142C33.9515 23.7142 33.9515 23.7142 33.9515 23.6908C34.0691 23.7142 34.1632 23.7375 34.2809 23.6908C34.3514 23.6908 34.422 23.6908 34.4926 23.6908C35.1985 23.6908 35.9043 23.6908 36.6102 23.6674C37.0102 23.6674 37.4337 23.6674 37.8337 23.6674C38.2572 23.6674 38.7042 23.6674 39.1277 23.6674C39.5277 23.6674 39.9277 23.6674 40.3277 23.6674C40.7512 23.6674 41.1747 23.6674 41.5982 23.6674C41.6688 23.6674 41.7394 23.6207 41.81 23.6674L41.8335 23.644Z" fill="#74A42B"/>
<path id="Vector_9" d="M32.5867 37.7885C32.5867 37.7885 32.5631 37.7885 32.5396 37.7651C31.3632 36.6195 30.2103 35.4973 29.0339 34.3518C29.0339 34.3518 28.9868 34.305 28.9868 34.2816C28.9868 34.2349 29.0103 34.2348 29.0574 34.2348C29.0809 34.2348 29.1045 34.2348 29.1515 34.2348C29.6691 34.2348 30.1868 34.2348 30.6809 34.2348C31.2455 34.2348 31.8338 34.2348 32.3984 34.2114C32.7984 34.2114 33.2219 34.2114 33.6219 34.2114C33.8807 34.2114 34.116 34.2114 34.3748 34.2114C34.4454 34.2114 34.516 34.2114 34.5866 34.2114C34.6336 34.2114 34.6807 34.2115 34.7042 34.2582C35.1748 34.7024 35.6454 35.1466 36.1159 35.5908C36.2571 35.7311 36.4453 35.8714 36.5865 36.0351C36.5865 36.0818 36.6571 36.1052 36.7042 36.1519C37.1277 36.5727 37.5512 36.9468 37.9747 37.3676C38.0688 37.4611 38.1864 37.5546 38.3041 37.6715C38.3511 37.7183 38.3747 37.7651 38.3041 37.7885C38.2806 37.7885 38.2335 37.7885 38.21 37.7885C37.7865 37.7885 37.3394 37.7885 36.9159 37.7885C36.3042 37.7885 35.716 37.7884 35.1042 37.8118C34.7042 37.8118 34.3043 37.8118 33.9043 37.8118C33.5513 37.8118 33.1749 37.8118 32.822 37.8118C32.7514 37.8118 32.6808 37.8118 32.6102 37.7651L32.5867 37.7885Z" fill="#619C2C"/>
<path id="Vector_10" d="M11.8584 17.4019C11.7878 17.589 11.7173 17.7994 11.6467 17.9864C11.4349 18.5475 11.2938 19.1085 11.1761 19.693C11.1761 19.7164 11.1761 19.7398 11.1761 19.7632C11.1761 19.8333 11.082 19.8333 11.0349 19.8333C10.682 19.8567 10.3056 19.8333 9.95263 19.8333C9.48206 19.8333 8.98796 19.8333 8.51739 19.8333C8.11741 19.8333 7.71742 19.8333 7.31744 19.8333C6.89393 19.8333 6.44688 19.8333 6.02337 19.8333C5.64691 19.8333 5.27046 19.8333 4.894 19.8333C4.44696 19.8333 3.99992 19.8333 3.55288 19.8333C3.50583 19.8333 3.43524 19.8333 3.38818 19.8333C3.38818 19.8333 3.38818 19.7865 3.38818 19.7632C3.38818 19.7632 3.38818 19.7164 3.38818 19.693C3.38818 19.6696 3.38818 19.6229 3.38818 19.5995C3.38818 19.3657 3.43524 19.1553 3.4823 18.9215C3.52935 18.5942 3.59994 18.2669 3.67052 17.9396C3.71758 17.7759 3.74111 17.5889 3.78817 17.4253C3.83522 17.3785 3.88228 17.3785 3.95287 17.3551C4.25874 17.3551 4.58813 17.3551 4.894 17.3551C5.45869 17.3551 6.02337 17.3552 6.61158 17.3318C7.01157 17.3318 7.41155 17.3318 7.81154 17.3318C8.23505 17.3318 8.65856 17.3318 9.1056 17.3318C9.50559 17.3318 9.90557 17.3318 10.3056 17.3318C10.7291 17.3318 11.1761 17.3318 11.5996 17.3318C11.6467 17.3318 11.7173 17.3318 11.7643 17.3318C11.8114 17.3318 11.882 17.3318 11.9055 17.3785L11.8584 17.4019Z" fill="#7EA928"/>
<path id="Vector_11" d="M7.34082 10.622C7.45846 10.4817 7.5761 10.3415 7.69375 10.2246C7.76433 10.2246 7.81139 10.2246 7.88197 10.2246C8.54077 10.2246 9.17604 10.2246 9.83484 10.2012C10.2348 10.2012 10.6348 10.2012 11.0348 10.2012C11.4818 10.2012 11.9053 10.2012 12.3524 10.2012C12.7524 10.2012 13.1288 10.2012 13.5288 10.2012C13.9523 10.2012 14.3758 10.2012 14.8229 10.2012C15.2229 10.2012 15.6464 10.2012 16.0464 10.2012C16.4699 10.2012 16.8934 10.2012 17.3404 10.2012C17.7404 10.2012 18.1639 10.2012 18.5639 10.2012C18.9639 10.2012 19.3874 10.2012 19.7874 10.2012C20.1874 10.2012 20.6109 10.2012 21.0109 10.2012C21.4344 10.2012 21.8579 10.2012 22.2814 10.2012C22.7049 10.2012 23.1049 10.2012 23.5284 10.2012C23.9519 10.2012 24.3754 10.2012 24.7754 10.2012C25.1989 10.2012 25.5989 10.2012 26.0224 10.2012C26.4459 10.2012 26.8694 10.2012 27.2694 10.2012C27.6929 10.2012 28.0929 10.2012 28.5164 10.2012C28.9164 10.2012 29.3164 10.2012 29.7164 10.2012C30.1399 10.2012 30.5399 10.2012 30.9634 10.2012C31.3869 10.2012 31.7869 10.2012 32.2104 10.2012C32.6339 10.2012 33.0574 10.2012 33.4574 10.2012C33.8809 10.2012 34.2809 10.2012 34.7044 10.2012C35.1279 10.2012 35.5279 10.2012 35.9514 10.2012C36.2338 10.2012 36.5161 10.2012 36.822 10.2012C36.8926 10.2012 36.9632 10.2011 37.0338 10.2479C37.1514 10.3648 37.269 10.4583 37.3632 10.5752C37.4808 10.7155 37.622 10.8324 37.7396 10.996C37.7867 11.0428 37.8337 11.113 37.8808 11.1597C37.8808 11.2065 37.8573 11.2299 37.8102 11.2299C37.7867 11.2299 37.7631 11.2299 37.7396 11.2299C37.3867 11.2299 37.0573 11.2532 36.7044 11.2299C36.0691 11.2299 35.4338 11.2299 34.8221 11.2533C34.4221 11.2533 34.0221 11.2533 33.6221 11.2533C33.1986 11.2533 32.7751 11.2533 32.3516 11.2533C31.9516 11.2533 31.5281 11.2533 31.1281 11.2533C30.7046 11.2533 30.2811 11.2533 29.8576 11.2533C29.4576 11.2533 29.0576 11.2533 28.6576 11.2533C28.2341 11.2533 27.8106 11.2533 27.3871 11.2533C27.1753 11.2533 26.9636 11.2533 26.7518 11.2533C26.6342 11.2533 26.5401 11.2299 26.4224 11.2299C26.046 11.113 25.693 11.0194 25.3166 10.9259C24.2107 10.6687 23.0814 10.5752 21.9285 10.6454C21.6697 10.6454 21.4108 10.6921 21.152 10.7155C20.7991 10.7155 20.4462 10.7622 20.0933 10.7622C19.4815 10.7622 18.8698 10.7622 18.258 10.7622C17.858 10.7622 17.4345 10.7622 17.0345 10.7622C16.611 10.7622 16.2111 10.7622 15.7875 10.7622C15.3876 10.7622 14.9876 10.7622 14.5876 10.7622C14.1405 10.7622 13.6935 10.7622 13.27 10.7622C12.87 10.7622 12.47 10.7622 12.0936 10.7622C11.6701 10.7622 11.2465 10.7622 10.823 10.7622C10.423 10.7622 9.99954 10.7622 9.59955 10.7622C9.17604 10.7622 8.75252 10.7622 8.32901 10.7622C8.04667 10.7622 7.76433 10.7622 7.50552 10.7622C7.45846 10.7622 7.36435 10.7622 7.38787 10.6921L7.34082 10.622Z" fill="#8CAF23"/>
<path id="Vector_12" d="M6.89362 32.5514C6.56422 32.1774 6.28188 31.7566 6.02306 31.3358C5.92895 31.1955 5.83484 31.0318 5.74072 30.8916C5.76425 30.8448 5.81131 30.8448 5.85836 30.8448C6.16423 30.8214 6.4701 30.8448 6.77597 30.8448C7.31713 30.8448 7.88181 30.8448 8.42297 30.8214C8.79942 30.8214 9.19941 30.8214 9.57586 30.8214C10.0229 30.8214 10.4699 30.8214 10.917 30.8214C11.317 30.8214 11.717 30.8214 12.1169 30.8214C12.5405 30.8214 12.964 30.8214 13.3875 30.8214C13.7875 30.8214 14.1874 30.8214 14.5874 30.8214C14.7521 30.8214 14.9168 30.798 15.0815 30.8214C15.1521 30.8448 15.1992 30.9149 15.2462 30.9383C15.6933 31.289 16.1638 31.6397 16.6579 31.9202C16.9638 32.1073 17.2932 32.2709 17.6226 32.4346C17.6697 32.4346 17.6932 32.4813 17.7167 32.5047C17.7402 32.5515 17.7167 32.5749 17.6697 32.5983C17.6461 32.5983 17.6226 32.5983 17.5755 32.5983C17.2226 32.5983 16.8462 32.5983 16.4932 32.5983C15.8344 32.5983 15.1521 32.5982 14.4933 32.6216C14.0933 32.6216 13.6698 32.6216 13.2698 32.6216C12.8463 32.6216 12.4228 32.6216 11.9993 32.6216C11.5758 32.6216 11.1758 32.6216 10.7523 32.6216C10.3288 32.6216 9.92879 32.6216 9.50528 32.6216C9.08176 32.6216 8.68178 32.6216 8.25827 32.6216C7.85828 32.6216 7.4583 32.6216 7.05832 32.6216C6.9642 32.6216 6.89362 32.6216 6.82303 32.5514H6.89362Z" fill="#689E2B"/>
<path id="Vector_13" d="M36.5633 36.035C36.281 35.7778 35.9751 35.4972 35.6928 35.2167C35.3398 34.8894 35.0104 34.562 34.6575 34.2347C34.6575 34.2347 34.6105 34.2114 34.6105 34.188C34.5163 34.1412 34.4222 34.0711 34.3281 34.0009C34.0928 33.7671 33.8575 33.5334 33.6223 33.2996C33.4811 33.1827 33.3399 33.0658 33.2223 32.9255C33.1752 32.8788 33.1517 32.832 33.2223 32.7853C33.2693 32.7619 33.3164 32.7853 33.387 32.7853C33.9517 32.7853 34.5163 32.7852 35.1046 32.7618C35.5045 32.7618 35.9281 32.7618 36.328 32.7618C36.7516 32.7618 37.1515 32.7618 37.575 32.7618C37.8809 32.7618 38.1633 32.7618 38.4691 32.7618C38.5162 32.7385 38.5397 32.7619 38.5632 32.8087C38.7044 32.9489 38.8456 33.0892 38.9868 33.2295C39.5044 33.7438 40.0455 34.2581 40.5867 34.7491C40.869 35.0062 41.1279 35.2634 41.4102 35.544C41.4572 35.5907 41.5043 35.6375 41.5514 35.6842C41.5514 35.7777 41.5514 35.8946 41.5514 35.9882C41.5514 36.0349 41.5278 36.0583 41.4808 36.0583C41.4808 36.0583 41.4337 36.0583 41.4102 36.0583C41.0102 36.0583 40.5867 36.0583 40.1867 36.0583C39.5279 36.0583 38.8691 36.0583 38.2103 36.0817C37.8103 36.0817 37.3868 36.0817 36.9868 36.0817C36.8927 36.0817 36.8221 36.0817 36.728 36.0817C36.681 36.0817 36.6339 36.0817 36.5869 36.0583L36.5633 36.035Z" fill="#7CAC4D"/>
<path id="Vector_14" d="M33.1987 32.8318C33.3398 32.9721 33.481 33.1124 33.6457 33.2527C33.9045 33.4865 34.1398 33.7437 34.3986 33.9774C34.4692 34.0476 34.5633 34.1177 34.6339 34.1878C34.3986 34.1878 34.1398 34.1878 33.9045 34.1878C33.481 34.2112 33.0575 34.1878 32.634 34.1878C32.234 34.1878 31.834 34.1878 31.434 34.1878C31.0105 34.2112 30.587 34.1878 30.1635 34.1878C29.8106 34.1878 29.4577 34.1878 29.1047 34.1878C29.0812 34.1878 29.0341 34.1878 29.0106 34.1878C28.6342 33.8138 28.2577 33.4631 27.8812 33.089C27.4107 32.6448 26.9636 32.1772 26.4931 31.733C26.4931 31.733 26.446 31.6863 26.446 31.6629C26.3754 31.4758 26.3754 31.2888 26.446 31.1018C26.4931 31.0784 26.5401 31.0784 26.6107 31.0784C27.1283 31.0784 27.646 31.0784 28.1401 31.0551C28.6106 31.0551 29.1047 31.0551 29.5753 31.0551C29.9518 31.0551 30.3282 31.0551 30.7047 31.0551C30.8694 31.0551 31.0341 31.0317 31.1988 31.0551C31.2693 31.0551 31.3399 31.0551 31.4105 31.0551C31.4576 31.0551 31.5046 31.055 31.5517 31.1018C31.7399 31.2888 31.9517 31.4525 32.1399 31.6395C32.4928 31.9902 32.8693 32.3175 33.1987 32.6448C33.2222 32.6682 33.2693 32.6916 33.2693 32.7617L33.1987 32.8318Z" fill="#669E2B"/>
<path id="Vector_15" d="M38.8453 12.0248C39.01 12.2352 39.1747 12.469 39.3159 12.7028C39.4806 12.9599 39.6218 13.2171 39.7865 13.4742C39.8571 13.5911 39.9041 13.7081 39.9747 13.8016C39.9512 13.8483 39.8806 13.8483 39.8335 13.8483C39.3394 13.8483 38.8453 13.8483 38.3748 13.8717C37.9277 13.8717 37.4572 13.8717 37.0101 13.8717C36.6337 13.8717 36.2337 13.8717 35.8572 13.8717C35.4102 13.8717 34.9631 13.8717 34.5396 13.8717C34.1396 13.8717 33.7397 13.8717 33.3397 13.8717C32.9162 13.8717 32.4691 13.8717 32.0456 13.8717C31.7868 13.8717 31.528 13.8717 31.2692 13.8717C31.1986 13.8717 31.1515 13.8717 31.1045 13.8483C30.8692 13.5911 30.6104 13.3574 30.3516 13.1236C29.928 12.7495 29.481 12.4222 29.0104 12.1183C29.0104 12.1183 28.9869 12.0949 28.9634 12.0716C28.9634 12.0014 29.034 12.0014 29.081 12.0014C29.3398 12.0014 29.5987 11.978 29.8575 12.0014C30.4927 12.0014 31.128 12.0014 31.7633 12.0014C32.1632 12.0014 32.5632 12.0014 32.9397 12.0014C33.3867 12.0014 33.8102 12.0014 34.2573 12.0014C34.6573 12.0014 35.0573 12.0014 35.4572 12.0014C35.8808 12.0014 36.3043 12.0014 36.7278 12.0014C37.1278 12.0014 37.5513 12.0014 37.9513 12.0014C38.1865 12.0014 38.4454 12.0014 38.6806 12.0014C38.7512 12.0014 38.7983 12.0014 38.8689 12.0482L38.8453 12.0248Z" fill="#87AD25"/>
<path id="Vector_16" d="M9.5997 35.2868C10.0467 35.2634 10.4938 35.2868 10.9408 35.2868C11.3643 35.2868 11.7643 35.2868 12.1878 35.2868C12.5878 35.2868 13.0113 35.2868 13.4113 35.2868C13.8348 35.2634 14.2583 35.2868 14.6583 35.2868C15.0818 35.2634 15.5053 35.2868 15.9053 35.2868C16.3053 35.2868 16.7053 35.2868 17.1053 35.2868C17.5288 35.2634 17.9523 35.2868 18.3758 35.2868C18.7758 35.2868 19.1993 35.2868 19.5993 35.2868C20.0228 35.2634 20.4463 35.2868 20.8698 35.2868C21.2698 35.2868 21.6698 35.2868 22.0463 35.2868C22.4933 35.2634 22.9168 35.2868 23.3639 35.2868C23.7638 35.2868 24.1874 35.2868 24.5873 35.2868C24.9638 35.2868 25.3167 35.2868 25.6932 35.2868C25.7167 35.2868 25.7638 35.2868 25.7873 35.2868C26.0932 35.5439 26.352 35.8245 26.6343 36.0816C26.7049 36.1518 26.8225 36.2219 26.8696 36.3154C26.8461 36.3388 26.799 36.3154 26.752 36.3154C26.1402 36.3154 25.5285 36.3154 24.8932 36.3388C24.4697 36.3388 24.0462 36.3388 23.6462 36.3388C23.2227 36.3621 22.8227 36.3388 22.3992 36.3388C21.9757 36.3621 21.5757 36.3388 21.1522 36.3388C20.7522 36.3621 20.3287 36.3388 19.9287 36.3388C19.5052 36.3621 19.0817 36.3388 18.6582 36.3388C18.2582 36.3388 17.8347 36.3388 17.4347 36.3388C17.0112 36.3621 16.5877 36.3388 16.1877 36.3388C15.7877 36.3388 15.3642 36.3388 14.9642 36.3388C14.5407 36.3621 14.1407 36.3388 13.7172 36.3388C13.2937 36.3388 12.8937 36.3388 12.4702 36.3388C12.0467 36.3621 11.6232 36.3388 11.2232 36.3388C11.1526 36.3388 11.082 36.3388 11.0114 36.3856C10.635 36.1518 10.3056 35.8946 9.95263 35.6374C9.81146 35.5439 9.69381 35.427 9.57617 35.3335L9.5997 35.2868Z" fill="#629C2C"/>
<path id="Vector_17" d="M7.95277 9.96732C8.141 9.75691 8.35275 9.56987 8.56451 9.38284C8.68215 9.35946 8.79979 9.35946 8.94097 9.38284C9.62329 9.38284 10.3291 9.38289 11.0115 9.35951C11.435 9.35951 11.835 9.35951 12.2585 9.35951C12.682 9.35951 13.1055 9.35951 13.5055 9.35951C13.9055 9.35951 14.3055 9.35951 14.7054 9.35951C15.129 9.35951 15.5289 9.35951 15.9525 9.35951C16.376 9.35951 16.7759 9.35951 17.1995 9.35951C17.623 9.35951 18.023 9.35951 18.4465 9.35951C18.87 9.35951 19.2935 9.35951 19.717 9.35951C20.117 9.35951 20.5405 9.35951 20.9405 9.35951C21.364 9.35951 21.764 9.35951 22.1875 9.35951C22.611 9.35951 23.0345 9.35951 23.458 9.35951C23.858 9.35951 24.258 9.35951 24.658 9.35951C25.0815 9.35951 25.4815 9.35951 25.905 9.35951C26.3285 9.35951 26.7285 9.35951 27.152 9.35951C27.5755 9.35951 27.999 9.35951 28.4225 9.35951C28.8461 9.35951 29.246 9.35951 29.6696 9.35951C30.0695 9.35951 30.493 9.35951 30.893 9.35951C31.3165 9.35951 31.7165 9.35951 32.14 9.35951C32.5636 9.35951 32.9871 9.35951 33.3871 9.35951C33.787 9.35951 34.2106 9.35951 34.6105 9.35951C35.0576 9.33613 35.5281 9.35951 35.9752 9.35951C36.0222 9.35951 36.0458 9.35946 36.0928 9.38284C36.3046 9.56987 36.5163 9.73358 36.7046 9.94399C36.7046 10.0141 36.634 10.0141 36.5869 10.0141C36.3046 10.0375 36.0222 10.0141 35.7164 10.0141C35.1282 10.0141 34.5635 10.0141 33.9753 10.0375C33.5753 10.0375 33.1753 10.0375 32.7753 10.0375C32.3518 10.0375 31.9048 10.0375 31.4812 10.0375C31.0813 10.0375 30.6813 10.0375 30.2813 10.0375C29.8578 10.0375 29.4343 10.0375 29.0343 10.0375C28.6343 10.0375 28.2343 10.0375 27.8343 10.0375C27.4108 10.0375 26.9873 10.0375 26.5403 10.0375C26.1168 10.0375 25.7168 10.0375 25.2933 10.0375C24.8697 10.0375 24.4462 10.0375 24.0227 10.0375C23.6227 10.0375 23.2227 10.0375 22.8228 10.0375C22.3993 10.0375 21.9757 10.0375 21.5522 10.0375C21.1522 10.0375 20.7287 10.0375 20.3287 10.0375C19.9052 10.0375 19.4817 10.0375 19.0582 10.0375C18.6347 10.0375 18.2347 10.0375 17.8112 10.0375C17.4112 10.0375 16.9877 10.0375 16.5877 10.0375C16.1642 10.0375 15.7407 10.0375 15.3407 10.0375C14.9172 10.0375 14.4937 10.0375 14.0937 10.0375C13.6702 10.0375 13.2702 10.0375 12.8467 10.0375C12.4232 10.0375 11.9997 10.0375 11.5762 10.0375C11.1762 10.0375 10.7762 10.0375 10.3762 10.0375C9.95269 10.0375 9.52918 10.0375 9.10567 10.0375C8.77627 10.0375 8.44687 10.0375 8.09394 10.0375C8.04689 10.0375 7.99983 10.0375 7.95277 10.0375C7.90571 10.0375 7.88219 10.0141 7.90572 9.96732H7.95277Z" fill="#8EB023"/>
<path id="Vector_18" d="M11.858 17.4019C11.3875 17.4253 10.9404 17.4019 10.4699 17.4019C10.1169 17.4019 9.74048 17.4019 9.38756 17.4019C8.91699 17.4019 8.46994 17.4019 7.99938 17.4019C7.59939 17.4019 7.19941 17.4019 6.79942 17.4019C6.37591 17.4253 5.9524 17.4019 5.52889 17.4019C5.1289 17.4019 4.75245 17.4019 4.35246 17.4019C4.16424 17.4019 3.97601 17.4019 3.78778 17.4486H3.74072C3.81131 17.1213 3.90542 16.794 3.99954 16.4901C4.11718 16.1394 4.23482 15.7653 4.37599 15.438C4.70539 15.438 5.01126 15.438 5.34066 15.438H5.38771C6.09357 15.438 6.79943 15.438 7.50528 15.438C7.97585 15.438 8.44641 15.438 8.91698 15.438C9.29344 15.438 9.6699 15.438 10.0464 15.438C10.4934 15.438 10.9404 15.438 11.3875 15.438C11.7639 15.438 12.1639 15.438 12.5404 15.438C12.611 15.438 12.6815 15.438 12.7757 15.438C12.8227 15.438 12.8933 15.438 12.9168 15.4848C12.658 15.8822 12.3992 16.3031 12.1639 16.7473C12.0463 16.9811 11.9522 17.2148 11.8345 17.4252L11.858 17.4019Z" fill="#83AB26"/>
<path id="Vector_19" d="M9.24658 8.77507C9.45834 8.58804 9.69362 8.40096 9.92891 8.21393C9.97596 8.19055 9.99949 8.14384 10.0466 8.12046C10.0936 8.12046 10.1407 8.12046 10.2112 8.12046C10.2583 8.12046 10.3054 8.12046 10.3524 8.12046C11.1053 8.12046 11.8582 8.12044 12.6112 8.09706C13.0111 8.09706 13.4346 8.09706 13.8346 8.09706C14.2581 8.07368 14.7052 8.09706 15.1287 8.09706C15.5287 8.09706 15.9287 8.09706 16.3287 8.09706C16.7522 8.07368 17.1757 8.09706 17.5992 8.09706C17.9992 8.07368 18.3756 8.09706 18.7756 8.09706C19.1991 8.07368 19.6462 8.09706 20.0697 8.09706C20.4226 8.09706 20.7755 8.09706 21.1049 8.09706C21.5755 8.09706 22.0696 8.09706 22.5402 8.09706C22.9402 8.09706 23.3637 8.09706 23.7637 8.09706C24.1872 8.07368 24.6107 8.09706 25.0577 8.09706C25.4342 8.09706 25.8106 8.09706 26.1871 8.09706C26.6341 8.07368 27.0812 8.09706 27.5282 8.09706C27.9517 8.09706 28.3517 8.09706 28.7752 8.09706C29.1987 8.07368 29.6222 8.09706 30.0222 8.09706C30.4457 8.07368 30.8457 8.09706 31.2692 8.09706C31.6927 8.07368 32.0927 8.09706 32.5162 8.09706C32.9398 8.07368 33.3397 8.09706 33.7633 8.09706C34.0221 8.09706 34.2809 8.09706 34.5397 8.09706C34.6103 8.09706 34.6573 8.16717 34.7279 8.21393C34.9161 8.33082 35.0808 8.47113 35.2691 8.6114C35.3161 8.65816 35.3867 8.70491 35.4102 8.75167C35.4102 8.82181 35.3397 8.8218 35.2691 8.8218C35.0573 8.8218 34.8691 8.8218 34.6573 8.8218C34.1632 8.8218 33.6927 8.8218 33.1986 8.8218C32.8221 8.8218 32.4221 8.8218 32.0457 8.8218C31.5986 8.8218 31.1751 8.8218 30.7281 8.8218C30.3281 8.8218 29.9281 8.8218 29.5281 8.8218C29.0811 8.8218 28.6576 8.8218 28.2105 8.8218C27.8105 8.8218 27.4106 8.8218 27.0106 8.8218C26.5871 8.8218 26.1636 8.8218 25.74 8.8218C25.3401 8.8218 24.9401 8.8218 24.5401 8.8218C24.1166 8.8218 23.6931 8.8218 23.246 8.8218C22.846 8.8218 22.4225 8.8218 22.0225 8.8218C21.599 8.8218 21.199 8.8218 20.7755 8.8218C20.352 8.8218 19.9285 8.8218 19.5285 8.8218C19.105 8.8218 18.705 8.8218 18.2815 8.8218C17.8815 8.8218 17.4815 8.8218 17.0816 8.8218C16.6581 8.8218 16.211 8.8218 15.7875 8.8218C15.3875 8.8218 14.9875 8.8218 14.5875 8.8218C14.164 8.8218 13.7405 8.8218 13.317 8.8218C12.917 8.8218 12.4935 8.8218 12.0935 8.8218C11.67 8.8218 11.2465 8.8218 10.823 8.8218C10.3995 8.8218 9.99949 8.8218 9.57598 8.8218C9.50539 8.8218 9.43481 8.8218 9.38775 8.8218C9.34069 8.8218 9.29364 8.82181 9.29364 8.75167L9.24658 8.77507Z" fill="#90B122"/>
<path id="Vector_20" d="M9.24638 8.77515C9.24638 8.77515 9.31697 8.82188 9.3405 8.82188C9.71695 8.77512 10.0934 8.82188 10.4699 8.82188C10.9169 8.82188 11.3639 8.82188 11.811 8.82188C12.211 8.82188 12.611 8.82188 13.0109 8.82188C13.4345 8.7985 13.858 8.82188 14.2815 8.82188C14.6815 8.82188 15.105 8.82188 15.505 8.82188C15.9285 8.7985 16.352 8.82188 16.7755 8.82188C17.1755 8.82188 17.599 8.82188 17.999 8.82188C18.4225 8.82188 18.8225 8.82188 19.246 8.82188C19.6695 8.7985 20.0695 8.82188 20.493 8.82188C20.9165 8.82188 21.3165 8.82188 21.74 8.82188C22.14 8.82188 22.5635 8.82188 22.9635 8.82188C23.387 8.7985 23.8105 8.82188 24.234 8.82188C24.6575 8.82188 25.0575 8.82188 25.481 8.82188C25.9045 8.7985 26.3045 8.82188 26.728 8.82188C27.1516 8.7985 27.5515 8.82188 27.9751 8.82188C28.3986 8.7985 28.8221 8.82188 29.2456 8.82188C29.6691 8.82188 30.0691 8.82188 30.4926 8.82188C30.9161 8.82188 31.3161 8.82188 31.7396 8.82188C32.1396 8.82188 32.5396 8.82188 32.9396 8.82188C33.3866 8.7985 33.8101 8.82188 34.2572 8.82188C34.5866 8.82188 34.9395 8.82188 35.2689 8.82188C35.3159 8.82188 35.363 8.82188 35.3865 8.82188C35.4806 8.86864 35.5512 8.93879 35.6218 8.98555C35.7865 9.10244 35.9277 9.24273 36.0688 9.35962C36.0688 9.35962 36.0688 9.35957 36.0924 9.38295C35.8571 9.40633 35.5983 9.38295 35.363 9.38295C34.7748 9.38295 34.1866 9.38297 33.5984 9.40635C33.1984 9.40635 32.7749 9.40635 32.3749 9.40635C31.9514 9.42973 31.5278 9.40635 31.1043 9.40635C30.7044 9.40635 30.3044 9.40635 29.9279 9.40635C29.5044 9.42973 29.0809 9.40635 28.6574 9.40635C28.2339 9.42973 27.8339 9.40635 27.4104 9.40635C26.9869 9.40635 26.5633 9.40635 26.1398 9.40635C25.7163 9.40635 25.3163 9.40635 24.8928 9.40635C24.4928 9.40635 24.0693 9.40635 23.6693 9.40635C23.2458 9.42973 22.8223 9.40635 22.3988 9.40635C21.9753 9.40635 21.5753 9.40635 21.1518 9.40635C20.7518 9.40635 20.3283 9.40635 19.9283 9.40635C19.5048 9.42973 19.0813 9.40635 18.6813 9.40635C18.2578 9.42973 17.8343 9.40635 17.4343 9.40635C17.0108 9.42973 16.6108 9.40635 16.1873 9.40635C15.7638 9.42973 15.3638 9.40635 14.9403 9.40635C14.5403 9.40635 14.1168 9.40635 13.7168 9.40635C13.2933 9.42973 12.8933 9.40635 12.4698 9.40635C12.0463 9.42973 11.6228 9.40635 11.2228 9.40635C10.7993 9.42973 10.3993 9.40635 9.97577 9.40635C9.52872 9.42973 9.05816 9.40635 8.61111 9.40635C8.58759 9.40635 8.56406 9.40633 8.54053 9.38295C8.75228 9.17254 8.98757 8.96218 9.22286 8.77515H9.24638Z" fill="#8EB023"/>
<path id="Vector_21" d="M31.0577 13.9652C31.0577 13.9652 31.1283 13.9652 31.1753 13.9652C31.5047 13.9652 31.8577 13.9652 32.1871 13.9652C32.8929 13.9652 33.5988 13.9652 34.3046 13.9418C34.7046 13.9418 35.1281 13.9418 35.5281 13.9418C35.9516 13.9184 36.3751 13.9418 36.7751 13.9418C37.1751 13.9418 37.5986 13.9418 37.9986 13.9418C38.4221 13.9184 38.8692 13.9418 39.2927 13.9418C39.5044 13.9418 39.7397 13.9418 39.9515 13.9418C40.1632 14.3392 40.375 14.7367 40.5397 15.1809C40.6103 15.3679 40.7044 15.5549 40.775 15.7419C40.7044 15.8121 40.6338 15.8121 40.5397 15.8121C40.3044 15.8121 40.0456 15.8121 39.8103 15.8121C39.2927 15.8121 38.775 15.8121 38.2339 15.8121C37.8574 15.8121 37.4575 15.8121 37.081 15.8121C36.634 15.8121 36.2104 15.8121 35.7634 15.8121C35.3634 15.8121 34.9634 15.8121 34.5635 15.8121C34.1399 15.8121 33.7164 15.8121 33.2929 15.8121C33.0576 15.8121 32.8223 15.8121 32.5635 15.8121C32.5165 15.8121 32.4459 15.8121 32.3988 15.7653C31.9988 15.1341 31.5518 14.5262 31.0342 13.9885L31.0577 13.9652Z" fill="#84AB26"/>
<path id="Vector_22" d="M41.8335 23.6441C41.8335 23.6441 41.7865 23.6908 41.7629 23.6908C41.7394 23.6908 41.6924 23.6908 41.6688 23.6908C40.9394 23.6908 40.2101 23.6908 39.4807 23.7142C39.0336 23.7142 38.5631 23.7142 38.116 23.7142C37.7396 23.7142 37.3631 23.7142 36.9867 23.7142C36.5396 23.7142 36.0926 23.7142 35.6455 23.7142C35.2455 23.7142 34.822 23.7142 34.422 23.7142C34.3279 23.7142 34.2338 23.7376 34.1162 23.7142C34.0691 23.7142 33.9985 23.7142 33.9985 23.6441C33.9985 23.5272 33.9985 23.4337 34.0456 23.3168C34.0456 23.2934 34.0456 23.2466 34.0456 23.2232C34.0456 23.2232 34.0456 23.1765 34.0456 23.1531C34.0456 23.1297 34.0456 23.083 34.0456 23.0596C34.0691 22.6621 34.1162 22.2413 34.1162 21.8439C34.1162 21.7738 34.1162 21.6802 34.1162 21.6101C34.1632 21.6101 34.1632 21.6568 34.1868 21.6802C34.1868 21.7504 34.2338 21.7738 34.3044 21.7738C34.4926 21.7738 34.6809 21.7738 34.8691 21.7738C34.9397 21.7738 34.9867 21.7738 35.0573 21.7738C35.7867 21.7738 36.5161 21.7737 37.2219 21.7504C37.6219 21.7504 38.0454 21.7504 38.4454 21.7504C38.8689 21.7504 39.2924 21.7504 39.7395 21.7504C40.1395 21.7504 40.563 21.7504 40.963 21.7504C41.2218 21.7504 41.4571 21.7504 41.7159 21.7504C41.8335 21.7504 41.857 21.727 41.857 21.6101C41.857 21.54 41.857 21.4698 41.857 21.3997C41.857 21.3529 41.857 21.3295 41.9041 21.3062C41.9276 21.5633 41.9041 21.7971 41.9041 22.0543C41.9041 22.592 41.8806 23.1297 41.81 23.6441H41.8335Z" fill="#77A62A"/>
<path id="Vector_23" d="M32.4224 15.7653C32.6812 15.7653 32.9635 15.7653 33.2223 15.7653H33.2694C34.0223 15.7653 34.7752 15.7653 35.5281 15.7653C35.9752 15.7653 36.3987 15.7653 36.8457 15.7653C37.2457 15.7653 37.6457 15.7653 38.0457 15.7653C38.4692 15.7419 38.8927 15.7653 39.3397 15.7653C39.7397 15.7653 40.1632 15.7653 40.5632 15.7653C40.6338 15.7653 40.7279 15.7653 40.7985 15.7653C41.0338 16.3497 41.222 16.9576 41.3867 17.5654C41.3632 17.6122 41.2926 17.6122 41.2455 17.6122C40.7279 17.6122 40.2338 17.6122 39.7162 17.6356C39.2456 17.6356 38.775 17.6356 38.2809 17.6356C37.9045 17.6356 37.528 17.6356 37.1516 17.6356C36.7045 17.6356 36.2575 17.6356 35.8105 17.6356C35.4105 17.6356 35.034 17.6356 34.634 17.6356C34.2576 17.6356 33.8811 17.6356 33.4811 17.6356C33.4341 17.6356 33.3635 17.6356 33.3164 17.6122C33.1517 17.2148 32.9635 16.8173 32.7753 16.4199C32.6576 16.2095 32.54 16.0224 32.4224 15.812V15.7653Z" fill="#82AB26"/>
<path id="Vector_24" d="M12.9169 15.438C12.4699 15.4614 12.0228 15.438 11.5758 15.438C11.1758 15.438 10.7993 15.438 10.3994 15.438C9.97584 15.4614 9.5288 15.438 9.10529 15.438C8.70531 15.438 8.30532 15.438 7.90534 15.438C7.48183 15.4614 7.05831 15.438 6.6348 15.438C6.21129 15.4614 5.78778 15.438 5.36426 15.438C5.08192 15.438 4.77605 15.438 4.49371 15.438C4.44665 15.438 4.37607 15.438 4.35254 15.3913C4.42312 15.1575 4.51724 14.947 4.63488 14.7133C4.77605 14.4093 4.91722 14.1054 5.05839 13.8015C5.05839 13.8015 5.05839 13.7781 5.08192 13.7547C5.17603 13.7313 5.24662 13.708 5.34074 13.708C6.07012 13.708 6.7995 13.7079 7.52888 13.6846C7.9524 13.6846 8.35238 13.6846 8.77589 13.6846C9.15235 13.6846 9.55233 13.6846 9.92879 13.6846C10.3758 13.6846 10.8464 13.6846 11.2934 13.6846C11.6699 13.6846 12.0463 13.6846 12.4463 13.6846C12.8934 13.6846 13.3404 13.6846 13.7875 13.6846C13.9051 13.6846 14.0463 13.6846 14.1639 13.6846C14.211 13.6846 14.258 13.6846 14.2816 13.7547C13.9522 14.082 13.6463 14.4327 13.3639 14.8068C13.2228 14.9938 13.0581 15.2043 12.9169 15.4147V15.438Z" fill="#85AC25"/>
<path id="Vector_25" d="M41.9041 21.3061C41.9041 21.423 41.9041 21.5633 41.9041 21.6802C41.9041 21.7503 41.9041 21.797 41.7865 21.797C41.1983 21.797 40.61 21.797 40.0218 21.797C39.5748 21.797 39.1277 21.797 38.6807 21.797C38.3043 21.797 37.9278 21.797 37.5749 21.797C37.1278 21.797 36.6808 21.797 36.2337 21.797C35.8102 21.797 35.4102 21.797 34.9867 21.797C34.7515 21.797 34.4926 21.797 34.2573 21.797C34.1397 21.797 34.1397 21.7971 34.1397 21.6802C34.1397 21.6568 34.1397 21.61 34.1397 21.5866C34.1397 21.0489 34.0926 20.4879 33.9985 19.9502C34.0456 19.9268 34.0926 19.9268 34.1162 19.9268C34.5867 19.9268 35.0808 19.9268 35.5514 19.9268C36.1396 19.9268 36.7278 19.9268 37.316 19.9268C37.716 19.9268 38.116 19.9268 38.516 19.9268C38.9395 19.9268 39.363 19.9268 39.763 19.9268C40.163 19.9268 40.563 19.9268 40.963 19.9268C41.1983 19.9268 41.41 19.9268 41.6453 19.9268C41.6923 19.9268 41.7394 19.9268 41.7865 19.9268C41.81 19.9268 41.81 19.9735 41.81 19.9969C41.81 20.0203 41.81 20.0437 41.81 20.0904C41.81 20.1372 41.81 20.1605 41.81 20.2073C41.81 20.2307 41.81 20.2775 41.81 20.3008C41.81 20.3476 41.81 20.3709 41.81 20.4177C41.81 20.4645 41.81 20.4879 41.81 20.5346C41.81 20.5814 41.81 20.6281 41.81 20.6982V20.8619C41.81 20.8619 41.81 21.0022 41.81 21.0723C41.81 21.1658 41.81 21.236 41.81 21.3295L41.9041 21.3061Z" fill="#7BA729"/>
<path id="Vector_26" d="M3.24707 23.0128C3.52941 23.0128 3.81176 23.0128 4.0941 23.0128C4.51761 22.9895 4.94112 23.0128 5.38816 23.0128C5.78815 23.0128 6.21166 23.0128 6.61164 23.0128C7.03516 22.9895 7.45867 23.0128 7.88218 23.0128C8.28217 23.0128 8.68215 23.0128 9.08214 23.0128C9.50565 22.9895 9.95269 23.0128 10.3762 23.0128C10.588 23.0128 10.7997 23.0128 11.0115 23.0128C11.035 23.2466 11.0585 23.457 11.1056 23.6908C11.1526 24.0181 11.2232 24.3454 11.2938 24.6727V24.7195C11.2938 24.7662 11.2938 24.7896 11.2468 24.7896C11.2232 24.7896 11.1997 24.7896 11.1762 24.7896C10.8468 24.7896 10.4938 24.7896 10.1644 24.7896C9.50565 24.7896 8.82332 24.7896 8.16452 24.813C7.76454 24.813 7.36455 24.813 6.96457 24.813C6.54106 24.813 6.09402 24.813 5.67051 24.813C5.27052 24.813 4.87054 24.813 4.47055 24.813C4.18821 24.813 3.9294 24.813 3.64705 24.813C3.6 24.813 3.52941 24.813 3.48236 24.7663C3.4353 24.6026 3.41177 24.4155 3.38824 24.2285C3.34119 23.8311 3.29413 23.457 3.2706 23.0596V23.0128H3.24707Z" fill="#76A52B"/>
<path id="Vector_27" d="M14.6347 5.61882C15.2464 5.38503 15.8817 5.17459 16.517 5.01094C16.8228 4.91743 17.1522 4.84727 17.4816 4.77714C18.2816 4.59011 19.1051 4.44985 19.9286 4.35633C20.5403 4.2862 21.1756 4.23944 21.8109 4.21606C21.8344 4.21606 21.8814 4.21606 21.905 4.21606C21.952 4.21606 21.9756 4.21606 22.0226 4.21606C22.3755 4.21606 22.752 4.21606 23.1049 4.21606C23.1285 4.21606 23.1755 4.21606 23.199 4.21606C23.2932 4.21606 23.3637 4.21606 23.4579 4.21606C23.5284 4.21606 23.6226 4.21606 23.6931 4.21606C23.7402 4.21606 23.8108 4.21606 23.8578 4.21606C23.9049 4.21606 23.9755 4.21606 24.0461 4.21606H24.1637C24.1637 4.21606 24.2578 4.21606 24.3049 4.21606C24.3519 4.21606 24.3755 4.21606 24.4225 4.21606C24.4696 4.21606 24.5166 4.21606 24.5402 4.21606C24.5637 4.21606 24.6108 4.21606 24.6343 4.21606C24.6578 4.21606 24.7049 4.21606 24.7284 4.21606C24.7519 4.21606 24.7755 4.21606 24.8225 4.21606C24.846 4.21606 24.8931 4.21606 24.9166 4.21606C24.9401 4.21606 24.9637 4.21606 25.0107 4.21606C25.0343 4.21606 25.0813 4.21606 25.1048 4.21606H25.1754C25.1754 4.21606 25.246 4.21606 25.2695 4.21606H25.3166C25.3401 4.21606 25.3872 4.21606 25.4107 4.21606C25.599 4.21606 25.7636 4.26282 25.9519 4.2862C26.1166 4.2862 26.2813 4.33295 26.4224 4.35633C26.6107 4.37971 26.7989 4.42651 26.9871 4.47327C27.5283 4.56679 28.0459 4.68367 28.5635 4.82394C28.9635 4.94084 29.387 5.05774 29.787 5.19801C29.787 5.24477 29.787 5.26815 29.74 5.26815C29.6929 5.26815 29.6223 5.29153 29.5517 5.26815C28.8694 5.26815 28.1635 5.26815 27.4812 5.26815C27.0107 5.26815 26.5401 5.26815 26.093 5.26815C25.7166 5.26815 25.3401 5.26815 24.9637 5.26815C24.4931 5.26815 24.0461 5.26815 23.5755 5.26815C23.1755 5.26815 22.7991 5.26815 22.3991 5.26815C21.9756 5.26815 21.5285 5.26815 21.105 5.26815C20.705 5.26815 20.305 5.26815 19.9051 5.26815C19.4815 5.26815 19.058 5.26815 18.611 5.26815C18.211 5.26815 17.811 5.26815 17.411 5.26815C16.9875 5.26815 16.564 5.26815 16.1405 5.26815C15.717 5.26815 15.317 5.26815 14.8935 5.26815C14.8229 5.26815 14.7758 5.26815 14.7053 5.26815C14.6582 5.26815 14.6111 5.26815 14.6347 5.19801V5.61882Z" fill="#94B320"/>
<path id="Vector_28" d="M10.9643 7.48922C11.2937 7.25543 11.6466 7.06842 11.9995 6.85801C11.9995 6.85801 12.023 6.85801 12.0466 6.85801C12.1407 6.85801 12.2583 6.83461 12.376 6.83461C12.9877 6.83461 13.5995 6.83466 14.2112 6.81128C14.6112 6.81128 15.0347 6.81128 15.4347 6.81128C15.8582 6.81128 16.2582 6.81128 16.6817 6.81128C17.1052 6.81128 17.5287 6.81128 17.9287 6.81128C18.3287 6.81128 18.7522 6.81128 19.1522 6.81128C19.5757 6.81128 19.9992 6.81128 20.3992 6.81128C20.8227 6.81128 21.2462 6.81128 21.6697 6.81128C22.0697 6.81128 22.4697 6.81128 22.8462 6.81128C23.2697 6.81128 23.7167 6.81128 24.1402 6.81128C24.5402 6.81128 24.9402 6.81128 25.3402 6.81128C25.7637 6.81128 26.2107 6.81128 26.6342 6.81128C27.0342 6.81128 27.4342 6.81128 27.8342 6.81128C28.2577 6.81128 28.7047 6.81128 29.1283 6.81128C29.5282 6.81128 29.9282 6.81128 30.3282 6.81128C30.7517 6.81128 31.1517 6.81128 31.5752 6.81128C31.6929 6.81128 31.8105 6.81128 31.9046 6.81128C32.0928 6.81128 32.2811 6.81123 32.4693 6.83461C32.8458 7.02164 33.1987 7.2087 33.5516 7.44249C33.5516 7.48924 33.5281 7.48924 33.481 7.51262C33.4104 7.51262 33.3634 7.51262 33.2928 7.51262C32.5634 7.51262 31.834 7.51264 31.1046 7.53602C30.6576 7.53602 30.2106 7.53602 29.7635 7.53602C29.3635 7.53602 28.9636 7.53602 28.5636 7.53602C28.1401 7.53602 27.7165 7.53602 27.293 7.53602C26.893 7.53602 26.4931 7.53602 26.0931 7.53602C25.6696 7.53602 25.2461 7.53602 24.8225 7.53602C24.4226 7.53602 24.0226 7.53602 23.6226 7.53602C23.1991 7.53602 22.7756 7.53602 22.352 7.53602C21.9521 7.53602 21.5286 7.53602 21.1286 7.53602C20.7051 7.53602 20.2815 7.53602 19.858 7.53602C19.458 7.53602 19.0345 7.53602 18.6346 7.53602C18.211 7.53602 17.7875 7.53602 17.3875 7.53602C16.964 7.53602 16.5405 7.53602 16.1405 7.53602C15.7405 7.53602 15.317 7.53602 14.9171 7.53602C14.4935 7.53602 14.0936 7.53602 13.67 7.53602C13.2465 7.53602 12.8465 7.53602 12.423 7.53602C11.9525 7.5594 11.5054 7.53602 11.0349 7.53602C10.9878 7.53602 10.9407 7.53603 10.9643 7.46589V7.48922Z" fill="#92B221"/>
<path id="Vector_29" d="M10.9642 7.48922C10.9642 7.48922 10.9877 7.51262 11.0112 7.51262C11.1289 7.51262 11.2465 7.51262 11.3877 7.51262C12.07 7.51262 12.7523 7.5126 13.4347 7.48922C13.8582 7.48922 14.2582 7.48922 14.6817 7.48922C15.1052 7.48922 15.5052 7.48922 15.9287 7.48922C16.3287 7.48922 16.7522 7.48922 17.1522 7.48922C17.5757 7.46584 17.9992 7.48922 18.4462 7.48922C18.8462 7.48922 19.2462 7.48922 19.6462 7.48922C20.0697 7.46584 20.4932 7.48922 20.9167 7.48922C21.3402 7.48922 21.7402 7.48922 22.1637 7.48922C22.5872 7.46584 23.0108 7.48922 23.4107 7.48922C23.8107 7.46584 24.2342 7.48922 24.6342 7.48922C25.0577 7.46584 25.4812 7.48922 25.8812 7.48922C26.2812 7.48922 26.7047 7.48922 27.1047 7.48922C27.5047 7.46584 27.9282 7.48922 28.3282 7.48922C28.7517 7.46584 29.1752 7.48922 29.5752 7.48922C29.9987 7.46584 30.4222 7.48922 30.8457 7.48922C31.2457 7.48922 31.6692 7.48922 32.0692 7.48922C32.4927 7.46584 32.9162 7.48922 33.3398 7.48922C33.4103 7.48922 33.5045 7.48924 33.575 7.44248C33.8809 7.62952 34.1633 7.81653 34.4691 8.00356C34.4691 8.05032 34.4221 8.05036 34.3985 8.05036C34.375 8.05036 34.328 8.05036 34.3044 8.05036C33.7633 8.05036 33.2221 8.05036 32.681 8.05036C32.281 8.05036 31.8575 8.05036 31.4575 8.05036C31.034 8.07374 30.6105 8.05036 30.1869 8.05036C29.7634 8.07374 29.3634 8.05036 28.9399 8.05036C28.5164 8.07374 28.0929 8.05036 27.6694 8.05036C27.2459 8.07374 26.8459 8.05036 26.4224 8.05036C25.9989 8.07374 25.5989 8.05036 25.1754 8.05036C24.7519 8.07374 24.3519 8.05036 23.9284 8.05036C23.5049 8.07374 23.0813 8.05036 22.6578 8.05036C22.2578 8.07374 21.8579 8.05036 21.4579 8.05036C21.0344 8.07374 20.5873 8.05036 20.1638 8.05036C19.7638 8.05036 19.3638 8.05036 18.9403 8.05036C18.5168 8.07374 18.0933 8.05036 17.6698 8.05036C17.2698 8.07374 16.8463 8.05036 16.4463 8.05036C16.0228 8.07374 15.6228 8.05036 15.1993 8.05036C14.7993 8.07374 14.3758 8.05036 13.9758 8.05036C13.5523 8.07374 13.1053 8.05036 12.6818 8.05036C12.3053 8.05036 11.9288 8.05036 11.5524 8.05036C11.1053 8.07374 10.6583 8.05036 10.2113 8.05036C10.1642 8.05036 10.1407 8.05036 10.0936 8.05036C10.0466 8.05036 10.023 8.05032 9.99951 8.00356C10.2819 7.79315 10.5642 7.58278 10.8701 7.39575L10.9642 7.48922Z" fill="#91B122"/>
<path id="Vector_30" d="M26.399 31.2188C26.399 31.4059 26.399 31.593 26.399 31.78C26.1637 31.5696 25.952 31.3825 25.7167 31.1721C25.152 30.6578 24.5638 30.1435 23.9991 29.6058C23.9991 29.6058 23.9991 29.6057 23.9756 29.5824C23.9756 29.5824 23.9756 29.5356 23.9756 29.5122C23.9756 27.712 23.9756 25.9352 23.9756 24.135C23.9756 24.0883 23.9991 24.0649 24.0462 24.0883C24.0462 24.0883 24.0932 24.1116 24.0932 24.135C24.4462 24.4623 24.7756 24.7896 25.105 25.0936C25.4579 25.4209 25.8108 25.7482 26.1402 26.0989C26.2108 26.169 26.2814 26.2158 26.352 26.2859C26.3755 26.3093 26.399 26.3327 26.399 26.3794C26.399 26.3794 26.399 26.3794 26.399 26.4028C26.399 26.4729 26.399 26.543 26.399 26.6132C26.399 28.0861 26.399 29.5356 26.399 31.0084C26.399 31.0786 26.399 31.1487 26.352 31.2188H26.399Z" fill="#EEE749"/>
<path id="Vector_31" d="M38.8455 12.0248C38.2573 12.0248 37.6455 12.0248 37.0573 12.0482C36.5868 12.0482 36.1397 12.0482 35.6692 12.0482C35.2692 12.0482 34.8692 12.0482 34.4692 12.0482C34.0222 12.0715 33.5751 12.0482 33.1516 12.0482C32.7516 12.0482 32.3516 12.0482 31.9516 12.0482C31.5281 12.0715 31.1046 12.0482 30.6576 12.0482C30.2341 12.0482 29.8341 12.0482 29.4106 12.0482C29.2459 12.0482 29.0576 12.0482 28.8929 12.0716C28.7518 11.9781 28.6106 11.9079 28.4694 11.8144C27.8342 11.4403 27.1754 11.1364 26.4695 10.9026C26.4695 10.9026 26.4225 10.9026 26.3989 10.8792C26.4225 10.8558 26.4695 10.8792 26.5166 10.8792C27.1283 10.8792 27.74 10.8792 28.3753 10.8558C28.7753 10.8558 29.1988 10.8558 29.5988 10.8558C30.0223 10.8324 30.4223 10.8558 30.8458 10.8558C31.2693 10.8324 31.6693 10.8558 32.0928 10.8558C32.5163 10.8324 32.9398 10.8558 33.3398 10.8558C33.7398 10.8558 34.1633 10.8558 34.5633 10.8558C34.9868 10.8324 35.4103 10.8558 35.8103 10.8558C36.2103 10.8558 36.6338 10.8558 37.0338 10.8558C37.2691 10.8558 37.5044 10.8558 37.7161 10.8558C37.7632 10.8558 37.8102 10.8558 37.8573 10.8091C38.1396 11.113 38.3749 11.4403 38.6337 11.7676C38.7043 11.8611 38.7749 11.9546 38.822 12.0482L38.8455 12.0248Z" fill="#8AAE24"/>
<path id="Vector_32" d="M26.399 26.3795C26.399 26.3795 26.2108 26.2158 26.1167 26.1457C25.5755 25.6314 25.0108 25.0936 24.4697 24.5793C24.305 24.4156 24.1403 24.2754 23.9756 24.1117C23.9756 24.065 23.9756 24.0649 24.0462 24.0649C24.0697 24.0649 24.0932 24.0649 24.1403 24.0649C25.9284 24.0649 27.6931 24.0649 29.4812 24.0649C29.4812 24.0649 29.5048 24.0649 29.5283 24.0649C29.7871 24.3221 30.0459 24.5793 30.2812 24.8365C30.2812 24.8365 30.3283 24.8832 30.3518 24.9066C30.6812 25.2339 31.0106 25.5612 31.34 25.8652C31.4812 26.0054 31.6459 26.1691 31.787 26.3094C31.8341 26.3561 31.8576 26.4029 31.787 26.4496C31.74 26.4496 31.6929 26.4496 31.6223 26.4496C29.9518 26.4496 28.2813 26.4496 26.6108 26.4496C26.5402 26.4496 26.4696 26.4496 26.399 26.4028V26.3795Z" fill="#EFEC66"/>
<path id="Vector_33" d="M18.564 11.113C18.2346 11.2533 17.9052 11.3702 17.5758 11.5338C17.1052 11.7676 16.6346 12.0248 16.1876 12.3053C16.1876 12.3053 16.1405 12.3287 16.117 12.3521C15.9523 12.3521 15.7641 12.3521 15.5994 12.3521C14.87 12.3521 14.1406 12.3521 13.4112 12.3755C12.9642 12.3755 12.5172 12.3755 12.0701 12.3755C11.6937 12.3755 11.2937 12.3755 10.9172 12.3755C10.4702 12.3755 10.0231 12.3755 9.59963 12.3755C9.19964 12.3755 8.82319 12.3755 8.4232 12.3755C7.99969 12.3755 7.55265 12.3755 7.12914 12.3755C6.82327 12.3755 6.5174 12.3755 6.21153 12.3755C6.16447 12.3755 6.14094 12.3755 6.09389 12.3755C6.04683 12.3755 6.0233 12.3755 6.04683 12.3053C6.16447 12.1183 6.28211 11.9546 6.39975 11.791C6.56445 11.5806 6.70563 11.3468 6.89385 11.1598C6.94091 11.1364 7.0115 11.113 7.05855 11.113C7.55265 11.113 8.04675 11.113 8.51732 11.113C8.94083 11.113 9.36434 11.113 9.81138 11.113C10.2114 11.113 10.6114 11.113 11.0113 11.113C11.4349 11.113 11.8819 11.113 12.3054 11.113C12.7054 11.113 13.1054 11.113 13.5054 11.113C13.9289 11.113 14.3524 11.113 14.7994 11.113C15.1994 11.113 15.5759 11.113 15.9758 11.113C16.4229 11.113 16.8699 11.113 17.317 11.113C17.6934 11.113 18.0699 11.113 18.4228 11.113C18.4934 11.113 18.564 11.113 18.611 11.1832L18.564 11.113Z" fill="#8BAF23"/>
<path id="Vector_34" d="M36.5633 36.0349C36.8221 35.9881 37.1044 35.9881 37.3632 35.9881C37.975 35.9881 38.5632 35.9881 39.1749 35.9647C39.5749 35.9647 39.9984 35.9647 40.3984 35.9647C40.7278 35.9647 41.0807 35.9647 41.4101 35.9647C41.4807 35.9647 41.5042 35.9414 41.5042 35.8712C41.5042 35.7777 41.5042 35.7075 41.5042 35.614C41.5042 35.614 41.5042 35.6608 41.5042 35.6841C41.5042 37.3674 41.5042 39.0274 41.5042 40.7107C41.5042 40.7107 41.5042 40.734 41.5042 40.7574C41.4337 40.7574 41.3866 40.734 41.3395 40.6873C41.2219 40.5938 41.1278 40.4769 41.0101 40.3833C40.7513 40.1496 40.4925 39.9158 40.2572 39.6586C40.2572 39.5885 40.1631 39.5651 40.1161 39.5417C39.7396 39.1911 39.3632 38.8169 38.9867 38.4663C38.7749 38.2558 38.5632 38.0455 38.3279 37.8584C38.3044 37.8351 38.2573 37.8116 38.2573 37.7415C38.1632 37.6246 38.0456 37.5311 37.9279 37.4376C37.4573 36.9934 37.0103 36.5492 36.5397 36.105C36.5397 36.105 36.5162 36.0816 36.4927 36.0582L36.5633 36.0349Z" fill="#78AA4F"/>
<path id="Vector_35" d="M15.1053 30.7278C15.1053 30.7278 15.0348 30.7512 15.0112 30.7746C14.6348 30.798 14.2583 30.7746 13.8819 30.7746C13.3878 30.7746 12.8701 30.7746 12.376 30.7746C11.9761 30.7746 11.5996 30.7746 11.1996 30.7746C10.7526 30.798 10.3055 30.7746 9.8585 30.7746C9.45851 30.7746 9.05853 30.7746 8.65854 30.7746C8.23503 30.798 7.81152 30.7746 7.388 30.7746C6.96449 30.7746 6.54098 30.7746 6.141 30.7746C5.99983 30.7746 5.88218 30.7746 5.74101 30.7746C5.4822 30.3772 5.24691 29.9563 5.03516 29.5355C5.10574 29.4653 5.19986 29.4653 5.27044 29.4653C5.55278 29.4653 5.83513 29.4653 6.11747 29.4653C6.58804 29.4653 7.08213 29.4653 7.5527 29.4653C7.95269 29.4653 8.32914 29.4653 8.72913 29.4653C9.15264 29.4653 9.59968 29.4653 10.0232 29.4653C10.4232 29.4653 10.7996 29.4653 11.1996 29.4653C11.6231 29.4653 12.0466 29.4653 12.4937 29.4653C12.8937 29.4653 13.2701 29.4653 13.6701 29.4653C13.7407 29.4653 13.7877 29.4654 13.8348 29.4887C14.0936 29.7459 14.3054 30.0031 14.5642 30.2369C14.7289 30.4005 14.9171 30.5408 15.0818 30.7044L15.1053 30.7278Z" fill="#6BA02B"/>
<path id="Vector_36" d="M35.6689 26.8003C35.6689 26.8003 35.8336 26.7535 35.9278 26.7535C36.6807 26.7535 37.4336 26.7535 38.1865 26.7301C38.61 26.7301 39.057 26.7301 39.4806 26.7301C39.857 26.7301 40.2335 26.7301 40.6099 26.7301C40.8217 26.7301 41.057 26.7067 41.2687 26.7301C41.1981 27.0574 41.0805 27.3847 40.9629 27.712C40.6099 28.6939 40.1864 29.6525 39.6453 30.5642C39.6453 30.5876 39.6217 30.611 39.5982 30.6578C39.4335 30.4941 39.2688 30.3305 39.1041 30.1902C37.9747 29.0914 36.8689 28.0159 35.7395 26.9171C35.7395 26.9171 35.6925 26.8704 35.6925 26.847L35.6689 26.8003Z" fill="#6DA02B"/>
<path id="Vector_37" d="M38.328 37.7182C38.328 37.7182 38.375 37.7416 38.3985 37.765C38.8691 38.2092 39.3397 38.6534 39.8103 39.0976C39.9985 39.2612 40.1867 39.4249 40.3514 39.6119C40.3514 39.6353 40.3044 39.6587 40.2808 39.6587C40.2338 39.6587 40.1867 39.6587 40.1396 39.6587C39.4573 39.6587 38.775 39.6587 38.0927 39.6587C37.5986 39.6587 37.1045 39.6587 36.6104 39.6587C36.2104 39.6587 35.8104 39.6587 35.4104 39.6587C35.1987 39.6587 35.0104 39.682 34.7987 39.6587C34.7281 39.6587 34.6575 39.6586 34.5869 39.6352C34.5869 39.6352 34.5634 39.6353 34.5399 39.6119C33.9046 38.9807 33.2458 38.3728 32.6105 37.7416C32.6105 37.7416 32.587 37.7182 32.5635 37.6948C33.3164 37.6948 34.0928 37.6948 34.8457 37.6948C35.2693 37.6948 35.6928 37.6948 36.1398 37.6948C36.5398 37.6948 36.9398 37.6948 37.3398 37.6948C37.6692 37.6948 37.9986 37.6948 38.3044 37.6948L38.328 37.7182Z" fill="#5C992D"/>
<path id="Vector_38" d="M32.4927 6.55385C32.4927 6.55385 32.4221 6.55385 32.3751 6.55385C31.7869 6.55385 31.1751 6.55387 30.5869 6.57725C30.1634 6.57725 29.7634 6.57725 29.3399 6.57725C28.9164 6.60063 28.4929 6.57725 28.0929 6.57725C27.6694 6.57725 27.2694 6.57725 26.8459 6.57725C26.4224 6.60063 25.9989 6.57725 25.5754 6.57725C25.1754 6.57725 24.7519 6.57725 24.3519 6.57725C23.9284 6.60063 23.5048 6.57725 23.1049 6.57725C22.7049 6.57725 22.2814 6.57725 21.8814 6.57725C21.4579 6.60063 21.0579 6.57725 20.6344 6.57725C20.2109 6.60063 19.7873 6.57725 19.3403 6.57725C18.9403 6.57725 18.5403 6.57725 18.1403 6.57725C17.7168 6.60063 17.2933 6.57725 16.8698 6.57725C16.4463 6.57725 16.0463 6.57725 15.6228 6.57725C15.2228 6.60063 14.8228 6.57725 14.4229 6.57725C13.9993 6.60063 13.5758 6.57725 13.1523 6.57725C12.8229 6.57725 12.47 6.57725 12.1406 6.57725C12.0935 6.57725 12.0465 6.57725 12.0229 6.57725C12.1171 6.50711 12.2112 6.46034 12.3053 6.41358C12.5876 6.27331 12.87 6.10967 13.1523 5.99278C13.4111 5.99278 13.6699 6.01616 13.9052 5.99278C13.9288 5.99278 13.9523 5.99278 13.9758 5.99278C14.164 5.99278 14.3523 5.99278 14.564 5.99278C15.1287 5.99278 15.7169 5.99275 16.2816 5.96938C16.7051 5.96938 17.1286 5.96938 17.5286 5.96938C17.9521 5.946 18.3756 5.96938 18.7991 5.96938C19.1991 5.946 19.6226 5.96938 20.0226 5.96938C20.4461 5.946 20.8461 5.96938 21.2696 5.96938C21.6931 5.946 22.1167 5.96938 22.5167 5.96938C22.9402 5.946 23.3401 5.96938 23.7637 5.96938C24.1636 5.946 24.5636 5.96938 24.9871 5.96938C25.4107 5.946 25.8342 5.96938 26.2577 5.96938C26.6812 5.946 27.0812 5.96938 27.5047 5.96938C27.9282 5.946 28.3517 5.96938 28.7517 5.96938C29.1517 5.946 29.5752 5.96938 29.9752 5.96938C30.4222 5.946 30.8693 5.96938 31.2928 5.96938C31.6928 6.13303 32.0927 6.32004 32.4692 6.53045L32.4927 6.55385Z" fill="#93B221"/>
<path id="Vector_39" d="M14.1406 37.9987C14.1406 37.9987 14.2347 37.9519 14.2818 37.9519C14.7524 37.9519 15.2229 37.9519 15.6935 37.9519C16.3288 37.9519 16.9405 37.952 17.5758 37.9286C17.9993 37.9286 18.3993 37.9286 18.8228 37.9286C19.2463 37.9286 19.6463 37.9286 20.0698 37.9286C20.4933 37.9052 20.9168 37.9286 21.3403 37.9286C21.7403 37.9286 22.1638 37.9286 22.5638 37.9286C22.9873 37.9052 23.3873 37.9286 23.8108 37.9286C24.2343 37.9052 24.6579 37.9286 25.0578 37.9286C25.4813 37.9052 25.8813 37.9286 26.3048 37.9286C26.7284 37.9052 27.1283 37.9286 27.5519 37.9286C27.9048 37.9286 28.2342 37.9286 28.5871 37.9286C28.6106 37.9286 28.6342 37.9286 28.6812 37.9286C28.7753 37.9987 28.8459 38.0689 28.94 38.139C29.1283 38.326 29.3165 38.513 29.5047 38.6767C29.4812 38.7234 29.4106 38.7235 29.3636 38.7235C28.9165 38.7469 28.493 38.7235 28.046 38.7235C27.5989 38.7235 27.1283 38.7235 26.6813 38.7235C26.3048 38.7235 25.9519 38.7235 25.5755 38.7235C25.1049 38.7235 24.6579 38.7235 24.1873 38.7235C23.8108 38.7235 23.4344 38.7235 23.0579 38.7235C22.5873 38.7235 22.1403 38.7235 21.6697 38.7235C21.2698 38.7235 20.8698 38.7235 20.4933 38.7235C20.0698 38.7235 19.6463 38.7235 19.2228 38.7235C18.8228 38.7235 18.4228 38.7235 18.0228 38.7235C17.5993 38.7235 17.1523 38.7235 16.7288 38.7235C16.5641 38.7235 16.3994 38.7235 16.2347 38.7235C15.5523 38.5131 14.87 38.2793 14.2112 37.9987H14.1406Z" fill="#5D9A2D"/>
<path id="Vector_40" d="M33.3164 17.5656C33.3164 17.5656 33.387 17.5656 33.434 17.5656C34.0693 17.5656 34.7046 17.5656 35.3398 17.5656C35.8339 17.5656 36.3516 17.5656 36.8457 17.5656C37.2457 17.5656 37.6456 17.5656 38.0456 17.5656C38.4691 17.5422 38.8927 17.5656 39.3162 17.5656C39.7162 17.5656 40.1397 17.5656 40.5396 17.5656C40.7985 17.5656 41.0808 17.5656 41.3396 17.5656C41.4573 17.9864 41.5514 18.4073 41.622 18.8515C41.622 18.8982 41.5984 18.9216 41.5514 18.9216C41.4808 18.9216 41.4102 18.9449 41.3396 18.9449C40.6102 18.9449 39.8808 18.9449 39.175 18.9683C38.728 18.9683 38.2809 18.9683 37.8339 18.9683C37.4339 18.9683 37.0574 18.9683 36.6574 18.9683C36.2339 18.9683 35.7869 18.9683 35.3634 18.9683C34.9634 18.9683 34.5399 18.9683 34.1399 18.9683C34.0693 18.9683 34.0223 18.9683 33.9517 18.9683C33.8811 18.9683 33.8105 18.9683 33.7399 18.9216C33.6223 18.4774 33.4811 18.0332 33.3164 17.589V17.5656Z" fill="#7EA928"/>
<path id="Vector_41" d="M13.8346 29.5122C13.8346 29.5122 13.7641 29.5122 13.717 29.5122C13.0111 29.5122 12.3053 29.5122 11.5994 29.5122C11.1524 29.5122 10.6818 29.5122 10.2348 29.5122C9.8348 29.5122 9.41129 29.5122 9.0113 29.5122C8.58779 29.5356 8.16428 29.5122 7.74076 29.5122C7.34078 29.5122 6.96432 29.5122 6.56434 29.5122C6.1173 29.5356 5.69379 29.5122 5.24675 29.5122C5.17616 29.5122 5.10557 29.5122 5.01146 29.5122C4.7997 29.1148 4.61148 28.694 4.44678 28.2732C4.44678 28.2732 4.49384 28.2732 4.51736 28.2732C4.54089 28.2732 4.56442 28.2732 4.58795 28.2732C5.24675 28.2732 5.88202 28.2731 6.54081 28.2498C6.98786 28.2498 7.45843 28.2498 7.90547 28.2498C8.30545 28.2498 8.68191 28.2498 9.08189 28.2498C9.52893 28.2498 9.97597 28.2498 10.423 28.2498C10.8465 28.2498 11.27 28.2498 11.6935 28.2498C12.0935 28.2498 12.4935 28.2498 12.8935 28.2498C13.1758 28.6706 13.4582 29.068 13.8111 29.4187C13.8111 29.4187 13.8111 29.4421 13.8111 29.4654L13.8346 29.5122Z" fill="#6DA02B"/>
<path id="Vector_42" d="M12.9171 28.2965C12.9171 28.2965 12.8701 28.3433 12.8465 28.3433C12.8465 28.3433 12.823 28.3433 12.7995 28.3433C12.1642 28.3433 11.5054 28.3433 10.8701 28.3433C10.376 28.3433 9.90547 28.3433 9.41137 28.3433C8.98786 28.3433 8.58787 28.3433 8.16436 28.3433C7.74085 28.3667 7.34086 28.3433 6.91735 28.3433C6.49384 28.3433 6.09385 28.3433 5.67034 28.3433C5.31741 28.3433 4.96449 28.3433 4.61156 28.3433C4.5645 28.3433 4.51745 28.3433 4.47039 28.3433C4.32922 28.016 4.21158 27.6653 4.09393 27.338C4.09393 27.2679 4.04688 27.2211 4.04688 27.1509C4.0704 27.1042 4.11746 27.1042 4.16452 27.1042C4.3998 27.1042 4.61156 27.1042 4.84684 27.1042C5.5527 27.1042 6.25855 27.1042 6.96441 27.0808C7.43497 27.0808 7.88202 27.0808 8.35259 27.0808C8.72904 27.0808 9.1055 27.0808 9.45843 27.0808C9.90547 27.0808 10.3525 27.0808 10.7995 27.0808C11.2466 27.0808 11.6936 27.0808 12.1407 27.0808C12.1407 27.0808 12.1642 27.0808 12.1877 27.0808C12.2348 27.1509 12.2583 27.2211 12.3054 27.2912C12.4936 27.6419 12.7054 27.9692 12.9171 28.2965Z" fill="#6FA12B"/>
<path id="Vector_43" d="M12.1876 27.0806C12.1876 27.0806 12.1876 27.1274 12.1406 27.1274H12.0935C11.3406 27.1274 10.5877 27.1274 9.83478 27.1508C9.38774 27.1508 8.96423 27.1508 8.51719 27.1508C8.14073 27.1508 7.7878 27.1508 7.41135 27.1508C6.96431 27.1508 6.51727 27.1508 6.07022 27.1508C5.67024 27.1508 5.27026 27.1508 4.87027 27.1508C4.58793 27.1508 4.32912 27.1508 4.04677 27.1508C3.9056 26.7299 3.78796 26.3325 3.69385 25.9117C3.69385 25.8649 3.76444 25.865 3.78796 25.865C3.90561 25.865 3.99972 25.865 4.11736 25.865C4.82322 25.865 5.5526 25.8649 6.25845 25.8416C6.65844 25.8416 7.05842 25.8416 7.4584 25.8416C7.88192 25.8416 8.30543 25.8416 8.72894 25.8416C9.12892 25.8416 9.52891 25.8416 9.92889 25.8416C10.3524 25.8416 10.7994 25.8416 11.223 25.8416C11.3171 25.8416 11.4112 25.8416 11.5053 25.8416C11.5524 25.8416 11.6229 25.8415 11.6465 25.8883C11.7406 26.1688 11.8582 26.426 11.9759 26.7066C12.0465 26.8468 12.0935 26.9871 12.1641 27.104L12.1876 27.0806Z" fill="#72A42B"/>
<path id="Vector_44" d="M16.1641 38.7235C16.1641 38.7235 16.2111 38.7001 16.2346 38.7001C16.7052 38.6767 17.1758 38.7001 17.6228 38.7001C18.0699 38.7001 18.5169 38.7001 18.9404 38.7001C19.3404 38.7001 19.7169 38.7001 20.1168 38.7001C20.5404 38.6767 20.9639 38.7001 21.4109 38.7001C21.8344 38.7001 22.2579 38.7001 22.6579 38.7001C23.0814 38.7001 23.5049 38.7001 23.9049 38.7001C24.3049 38.7001 24.7284 38.7001 25.1284 38.7001C25.5519 38.6767 25.9754 38.7001 26.3989 38.7001C26.7989 38.7001 27.1989 38.7001 27.5754 38.7001C27.9989 38.6767 28.4224 38.7001 28.8459 38.7001C29.0341 38.7001 29.2224 38.7001 29.4106 38.7001C29.4812 38.7468 29.4341 38.7468 29.4106 38.7702C28.8459 38.9339 28.2812 39.0976 27.7165 39.2378C26.9872 39.4249 26.2578 39.5651 25.5049 39.6586C25.4813 39.6586 25.4343 39.6586 25.4108 39.6586C25.3872 39.6586 25.3402 39.6586 25.3166 39.6586C25.2461 39.6586 25.1755 39.682 25.1049 39.6586C25.0814 39.6586 25.0343 39.6586 25.0108 39.6586C24.9872 39.6586 24.9637 39.6586 24.9166 39.6586C24.8931 39.6586 24.8461 39.6586 24.8225 39.6586C24.799 39.6586 24.7755 39.6586 24.7284 39.6586C24.7049 39.6586 24.6578 39.6586 24.6343 39.6586H24.5402C24.5402 39.6586 24.4461 39.6586 24.399 39.6586H24.2814C24.2814 39.6586 24.1873 39.6586 24.1402 39.6586C24.0932 39.6586 24.0461 39.6586 23.999 39.6586C23.9285 39.6586 23.8579 39.6586 23.8108 39.6586H23.6226C23.6226 39.6586 23.4344 39.6586 23.3402 39.6586C23.1991 39.6586 23.0344 39.6586 22.8932 39.6586C22.6579 39.6586 22.4226 39.6586 22.1638 39.6586C22.0227 39.6586 21.905 39.6586 21.7874 39.6586C21.6933 39.6586 21.6227 39.6586 21.5286 39.6586C21.458 39.6586 21.4109 39.6586 21.3403 39.6586C21.2933 39.6586 21.2227 39.6586 21.1521 39.6586H21.0109C21.0109 39.6586 20.9168 39.6586 20.8698 39.6586C20.8227 39.6586 20.7756 39.6586 20.7521 39.6586C20.7051 39.6586 20.6815 39.6586 20.6345 39.6586C20.5874 39.6586 20.5639 39.6586 20.5168 39.6586C20.4933 39.6586 20.4462 39.6586 20.4227 39.6586C20.3992 39.6586 20.3757 39.6586 20.3286 39.6586C20.3051 39.6586 20.258 39.6586 20.2345 39.6586H20.1404C20.1404 39.6586 20.0698 39.6586 20.0463 39.6586C19.9757 39.6586 19.9051 39.6586 19.8345 39.6586C19.811 39.6586 19.7639 39.6586 19.7404 39.6586C19.4816 39.6586 19.2463 39.6119 18.9875 39.5651C18.5169 39.495 18.0463 39.4015 17.5758 39.2846C17.1287 39.191 16.6582 39.0508 16.2111 38.9339L16.1641 38.7235Z" fill="#5C9A2D"/>
<path id="Vector_45" d="M3.31766 19.9268C3.31766 19.9268 3.38824 19.9268 3.4353 19.9268C4.21174 19.9268 4.96465 19.9268 5.74109 19.9034C6.1646 19.9034 6.58811 19.9034 6.9881 19.9034C7.41161 19.9034 7.8116 19.9034 8.23511 19.9034C8.65862 19.9034 9.05861 19.9034 9.48212 19.9034C9.90563 19.9034 10.3056 19.9034 10.7291 19.9034C10.8468 19.9034 10.9644 19.88 11.0821 19.9034C11.1056 19.9034 11.1291 19.9034 11.1526 19.8567C11.1056 20.1372 11.0585 20.4412 11.035 20.7217C11.035 20.8152 11.035 20.9321 11.0115 21.0256C11.0115 21.0958 10.9644 21.1192 10.8703 21.1192C10.3291 21.1192 9.78799 21.1192 9.27036 21.1192C8.87038 21.1192 8.44687 21.1192 8.04688 21.1192C7.62337 21.1426 7.22338 21.1192 6.79987 21.1192C6.37636 21.1426 5.97638 21.1192 5.55286 21.1192C5.12935 21.1426 4.70584 21.1192 4.30585 21.1192C3.95293 21.1192 3.6 21.1192 3.24707 21.1192V21.0724C3.24707 21.049 3.24707 21.0023 3.24707 20.9789C3.24707 20.9088 3.24707 20.8386 3.24707 20.7684C3.24707 20.7217 3.24707 20.6749 3.24707 20.6282C3.24707 20.5814 3.24707 20.5347 3.24707 20.4646C3.24707 20.4412 3.24707 20.3944 3.24707 20.371C3.24707 20.3243 3.24707 20.2775 3.24707 20.2308C3.24707 20.2074 3.24707 20.184 3.24707 20.1372C3.24707 20.0905 3.24707 20.0671 3.24707 20.0204C3.24707 19.997 3.24707 19.9736 3.24707 19.9268C3.24707 19.9268 3.24707 19.9035 3.24707 19.8801L3.31766 19.9268Z" fill="#7CA828"/>
<path id="Vector_46" d="M11.6699 25.865C11.1758 25.8884 10.6817 25.865 10.1876 25.865C9.78766 25.865 9.36414 25.865 8.96416 25.865C8.54065 25.8884 8.11714 25.865 7.71715 25.865C7.31717 25.865 6.91719 25.865 6.5172 25.865C6.09369 25.8884 5.67017 25.865 5.24666 25.865C4.82315 25.865 4.42317 25.865 3.99965 25.865C3.90554 25.865 3.7879 25.865 3.69378 25.865C3.59967 25.4676 3.50555 25.0701 3.4585 24.6493C3.69378 24.6493 3.90554 24.6493 4.14082 24.6493C4.58787 24.6259 5.01138 24.6493 5.45842 24.6493C5.81134 24.6493 6.1878 24.6493 6.54073 24.6493C7.0113 24.6493 7.48187 24.6493 7.95244 24.6493C8.35242 24.6493 8.7524 24.6493 9.15239 24.6493C9.5759 24.6259 10.0229 24.6493 10.4465 24.6493C10.7053 24.6493 10.9641 24.6493 11.2229 24.6493C11.27 24.6493 11.317 24.6493 11.317 24.6025C11.3641 24.7662 11.3876 24.9298 11.4582 25.0935C11.5288 25.3039 11.5993 25.5143 11.6699 25.7248C11.6699 25.7715 11.6935 25.8183 11.717 25.865H11.6699Z" fill="#74A42B"/>
<path id="Vector_47" d="M33.7399 18.8746C34.0693 18.8512 34.4222 18.8746 34.7516 18.8746C35.2928 18.8746 35.8575 18.8746 36.3986 18.8746C36.7986 18.8746 37.2221 18.8746 37.6221 18.8746C38.0456 18.8512 38.4691 18.8746 38.8691 18.8746C39.2691 18.8746 39.6926 18.8746 40.0926 18.8746C40.5161 18.8512 40.9396 18.8746 41.3867 18.8746C41.4808 18.8746 41.5749 18.8746 41.6455 18.8279C41.6925 19.0383 41.7161 19.2253 41.7396 19.4358C41.7396 19.576 41.7867 19.7163 41.7867 19.8566C41.7867 19.8799 41.7867 19.9267 41.7867 19.9501C41.7867 19.9501 41.7867 19.9969 41.7867 20.0202C41.7867 20.0202 41.7867 20.067 41.7867 20.0904C41.1749 20.0904 40.5632 20.0903 39.9514 20.1137C39.5515 20.1137 39.1279 20.1137 38.728 20.1137C38.3045 20.1371 37.9045 20.1137 37.4809 20.1137C37.0574 20.1371 36.6575 20.1137 36.2339 20.1137C35.8104 20.1371 35.3869 20.1137 34.9399 20.1137C34.6575 20.1137 34.3517 20.1137 34.0693 20.1137C34.0223 20.1137 33.9752 20.1137 33.9282 20.1137C33.8576 19.7163 33.787 19.3188 33.6929 18.9447L33.7399 18.8746Z" fill="#7CA828"/>
<path id="Vector_48" d="M24.352 33.6737C18.9404 33.7439 13.5054 33.8374 8.0938 33.9075C7.90557 33.7205 7.74087 33.5334 7.57617 33.3464C7.57617 33.2996 7.5997 33.2996 7.64676 33.2763C7.71734 33.2763 7.78793 33.2529 7.85852 33.2763C8.5879 33.2763 9.31728 33.2763 10.0231 33.2529C10.4702 33.2529 10.9172 33.2529 11.3643 33.2529C11.7407 33.2529 12.1172 33.2529 12.4701 33.2529C12.9171 33.2529 13.3642 33.2529 13.8112 33.2529C14.1877 33.2529 14.5877 33.2529 14.9641 33.2529C15.4112 33.2529 15.8582 33.2529 16.3052 33.2529C16.7052 33.2529 17.1052 33.2529 17.4817 33.2529C17.9052 33.2529 18.3522 33.2529 18.7757 33.2529C19.0345 33.2529 19.2934 33.2529 19.5522 33.2529C19.6228 33.2529 19.7169 33.2763 19.7875 33.2529C20.0227 33.2997 20.2815 33.3464 20.5168 33.3932C20.8933 33.4633 21.2462 33.5101 21.6227 33.5335C21.6697 33.5335 21.7168 33.5335 21.7403 33.5335C21.7874 33.5335 21.8344 33.5335 21.8815 33.5335C21.9285 33.5335 21.9991 33.5335 22.0462 33.5335C22.1168 33.5335 22.1874 33.5335 22.2579 33.5335C22.3756 33.5335 22.4697 33.5335 22.5873 33.5335C22.9403 33.5335 23.2932 33.5335 23.6461 33.5335C23.6697 33.5335 23.7167 33.5335 23.7402 33.5335C23.7873 33.5335 23.8344 33.5335 23.8579 33.5335C23.9991 33.4633 24.0932 33.5334 24.1873 33.6503C24.2343 33.6971 24.2814 33.7438 24.3049 33.7906L24.352 33.6737Z" fill="#659E2C"/>
<path id="Vector_49" d="M19.8346 33.1125C19.8346 33.1125 19.764 33.1593 19.6934 33.1593C19.0817 33.1593 18.47 33.1593 17.8582 33.1827C17.4112 33.1827 16.9641 33.1827 16.5171 33.1827C16.1171 33.1827 15.7171 33.1827 15.3171 33.1827C14.8936 33.2061 14.4466 33.1827 14.0231 33.1827C13.6231 33.1827 13.1996 33.1827 12.7996 33.1827C12.3996 33.1827 11.9761 33.1827 11.5761 33.1827C11.1526 33.2061 10.7291 33.1827 10.3056 33.1827C9.90559 33.1827 9.48208 33.1827 9.0821 33.1827C8.65859 33.2061 8.23507 33.1827 7.83509 33.1827C7.74098 33.1827 7.64686 33.1827 7.57627 33.2294C7.34099 32.9722 7.10571 32.7151 6.91748 32.4345C7.01159 32.4813 7.10571 32.4813 7.22335 32.4813C7.36452 32.4813 7.50569 32.4813 7.64686 32.4813C8.23507 32.4813 8.82329 32.4812 9.4115 32.4579C9.81148 32.4579 10.2115 32.4579 10.6115 32.4579C11.035 32.4345 11.4585 32.4579 11.882 32.4579C12.282 32.4579 12.682 32.4579 13.0819 32.4579C13.5055 32.4345 13.9525 32.4579 14.376 32.4579C14.7525 32.4579 15.1289 32.4579 15.5289 32.4579C15.9759 32.4345 16.423 32.4579 16.87 32.4579C17.1524 32.4579 17.4347 32.4579 17.6935 32.4579C17.7406 32.4579 17.7876 32.4579 17.8112 32.4111C17.8112 32.4111 17.8347 32.4111 17.8582 32.4111C17.8582 32.4579 17.9053 32.4579 17.9523 32.4579C18.5876 32.7384 19.2229 32.9255 19.8817 33.1125H19.8346Z" fill="#669E2B"/>
<path id="Vector_50" d="M7.95257 9.96729C7.95257 9.96729 8.02315 10.0141 8.04668 10.0141C8.32902 10.0141 8.63489 10.0141 8.91723 10.0141C9.31722 9.99071 9.7172 10.0141 10.1172 10.0141C10.5407 10.0141 10.9642 10.0141 11.3642 10.0141C11.7642 10.0141 12.1877 10.0141 12.5877 10.0141C13.0112 9.99071 13.4347 10.0141 13.8582 10.0141C14.2817 10.0141 14.6817 10.0141 15.1052 10.0141C15.5287 9.99071 15.9522 10.0141 16.3758 10.0141C16.7757 10.0141 17.1757 10.0141 17.5757 10.0141C17.9992 9.99071 18.3992 10.0141 18.8227 10.0141C19.2462 9.99071 19.6462 10.0141 20.0697 10.0141C20.4932 9.99071 20.9168 10.0141 21.3167 10.0141C21.7403 9.99071 22.1402 10.0141 22.5637 10.0141C22.9637 10.0141 23.3872 10.0141 23.7872 10.0141C24.1872 9.99071 24.6107 10.0141 25.0107 10.0141C25.4342 9.99071 25.8577 10.0141 26.3048 10.0141C26.7048 10.0141 27.1283 10.0141 27.5283 10.0141C27.9518 9.99071 28.3753 10.0141 28.7988 10.0141C29.1988 10.0141 29.5988 10.0141 29.9752 10.0141C30.3987 9.99071 30.8223 10.0141 31.2458 10.0141C31.6457 10.0141 32.0693 10.0141 32.4692 10.0141C32.8928 9.99071 33.3163 10.0141 33.7398 10.0141C34.1633 10.0141 34.5633 10.0141 34.9868 10.0141C35.4103 9.99071 35.8338 10.0141 36.2573 10.0141C36.3985 10.0141 36.5397 10.0141 36.6808 9.99069C36.775 10.0842 36.8926 10.1777 36.9867 10.2946C36.4691 10.2946 35.975 10.2946 35.4574 10.2946C34.8692 10.2946 34.2574 10.2946 33.6692 10.318C33.2692 10.318 32.8457 10.318 32.4457 10.318C32.0222 10.3414 31.5987 10.318 31.1752 10.318C30.7517 10.318 30.3517 10.318 29.9282 10.318C29.5282 10.318 29.1047 10.318 28.7047 10.318C28.2812 10.3414 27.8812 10.318 27.4577 10.318C27.0342 10.3414 26.6342 10.318 26.2107 10.318C25.7872 10.3414 25.3872 10.318 24.9637 10.318C24.5401 10.3414 24.1166 10.318 23.7166 10.318C23.2931 10.3414 22.8932 10.318 22.4696 10.318C22.0461 10.3414 21.6226 10.318 21.2226 10.318C20.7991 10.3414 20.3991 10.318 19.9756 10.318C19.5756 10.318 19.1757 10.318 18.7757 10.318C18.3522 10.3414 17.9522 10.318 17.5287 10.318C17.1051 10.3414 16.6816 10.318 16.2816 10.318C15.8581 10.3414 15.4346 10.318 15.0346 10.318C14.6111 10.3414 14.1876 10.318 13.7876 10.318C13.3876 10.318 12.9877 10.318 12.5877 10.318C12.1642 10.3414 11.7407 10.318 11.3171 10.318C10.8936 10.318 10.4936 10.318 10.0701 10.318C9.67015 10.318 9.24664 10.318 8.84665 10.318C8.51725 10.318 8.16432 10.318 7.83493 10.318C7.78787 10.318 7.74081 10.318 7.71729 10.2712C7.78787 10.1777 7.88198 10.1076 7.95257 10.0141V9.96729Z" fill="#8DAF23"/>
<path id="Vector_51" d="M14.3051 13.8014C14.3051 13.8014 14.0933 13.778 13.9992 13.8014C13.5992 13.8248 13.2228 13.8014 12.8228 13.8014C12.3993 13.8014 11.9523 13.8014 11.5287 13.8014C11.1288 13.8014 10.7052 13.8014 10.3053 13.8014C9.88175 13.8248 9.45824 13.8014 9.03472 13.8014C8.63474 13.8014 8.23476 13.8014 7.83477 13.8014C7.41126 13.8248 6.98774 13.8014 6.56423 13.8014C6.14072 13.8014 5.74074 13.8014 5.31723 13.8014C5.24664 13.8014 5.17605 13.8482 5.10547 13.8014C5.19958 13.5676 5.34075 13.3572 5.45839 13.1468C5.48192 13.1001 5.50545 13.0533 5.55251 13.0065C5.59957 13.0065 5.64662 13.0065 5.69368 13.0065C5.97602 13.0299 6.25837 12.9364 6.54071 12.9831C6.77599 13.0065 7.0348 13.0065 7.27009 12.9831C7.43479 12.9831 7.62301 12.9364 7.78771 12.9597C8.023 12.9831 8.25829 12.9831 8.49357 12.9597C8.65827 12.9597 8.8465 12.913 9.0112 12.9364C9.24648 12.9598 9.48176 12.9598 9.71705 12.9364C9.88175 12.9364 10.07 12.8896 10.2347 12.913C10.47 12.9364 10.7288 12.913 10.9641 12.913C11.1288 12.913 11.2935 12.8662 11.4817 12.8896C11.717 12.913 11.9758 12.913 12.2111 12.8896C12.3758 12.8896 12.5405 12.8429 12.7287 12.8663C12.964 12.8897 13.2228 12.8663 13.4581 12.8663C13.6228 12.8663 13.811 12.8195 13.9757 12.8429C14.211 12.8663 14.4463 12.8429 14.658 12.8429C14.7757 12.8429 14.8933 12.7961 15.011 12.7961C15.058 12.7961 15.1286 12.7961 15.1521 12.8663C14.9168 13.0767 14.658 13.2871 14.4463 13.4975C14.3757 13.5676 14.3286 13.6143 14.258 13.6845L14.3051 13.8014Z" fill="#87AC25"/>
<path id="Vector_52" d="M18.5639 11.1129C18.1403 11.0895 17.7404 11.0895 17.3169 11.1129C17.2933 11.1129 17.2463 11.1129 17.2227 11.1129C16.4698 11.1129 15.7169 11.1128 14.964 11.1362C14.564 11.1362 14.164 11.1362 13.7641 11.1362C13.3405 11.1596 12.917 11.1362 12.4935 11.1362C12.0935 11.1362 11.67 11.1362 11.27 11.1362C10.8465 11.1596 10.3995 11.1362 9.97597 11.1362C9.57598 11.1362 9.176 11.1362 8.77601 11.1362C8.3525 11.1596 7.92899 11.1362 7.50548 11.1362C7.29372 11.1362 7.08196 11.1362 6.84668 11.1362C7.01138 10.9258 7.17608 10.7154 7.3643 10.505C7.38783 10.5518 7.43489 10.5518 7.48195 10.5518C8.11722 10.5518 8.75249 10.5518 9.38775 10.5284C9.6701 10.5284 9.92891 10.5284 10.2113 10.5284C10.7759 10.5284 11.3171 10.5284 11.8818 10.505C12.2818 10.505 12.6582 10.505 13.0582 10.505C13.5052 10.4816 13.9288 10.505 14.3758 10.505C14.7758 10.505 15.1993 10.505 15.5993 10.505C16.0228 10.4816 16.4228 10.505 16.8463 10.505C17.2463 10.505 17.6463 10.505 18.0462 10.505C18.4697 10.4816 18.8933 10.505 19.3403 10.505C19.7403 10.505 20.1638 10.505 20.5638 10.505C20.6814 10.505 20.7991 10.505 20.9167 10.505C21.0108 10.505 21.1049 10.505 21.1991 10.505C20.9638 10.5518 20.705 10.5751 20.4697 10.6219C19.8579 10.7388 19.2462 10.9025 18.658 11.1129C18.658 11.1129 18.6109 11.1129 18.5874 11.1129H18.5639Z" fill="#8CAF23"/>
<path id="Vector_53" d="M14.6347 5.61886C14.6347 5.61886 14.6817 5.66564 14.7053 5.64226C15.0817 5.5955 15.4347 5.64226 15.8111 5.64226C16.2581 5.64226 16.7287 5.64226 17.1758 5.64226C17.5757 5.64226 17.9757 5.64226 18.3757 5.64226C18.7992 5.61888 19.2227 5.64226 19.6698 5.64226C20.0698 5.64226 20.4933 5.64226 20.8933 5.64226C21.3168 5.61888 21.7403 5.64226 22.1403 5.64226C22.5403 5.64226 22.9638 5.64226 23.3637 5.64226C23.7873 5.61888 24.2108 5.64226 24.6578 5.64226C25.0813 5.64226 25.4813 5.64226 25.9048 5.64226C26.3283 5.61888 26.7283 5.64226 27.1518 5.64226C27.5753 5.61888 27.9753 5.64226 28.3988 5.64226C28.7988 5.64226 29.1988 5.64226 29.5988 5.64226C29.6694 5.64226 29.7635 5.64222 29.8341 5.59546C30.2105 5.73573 30.587 5.87599 30.9635 6.01626C30.9635 6.06302 30.9634 6.08642 30.8929 6.1098C30.8693 6.1098 30.8458 6.1098 30.8223 6.1098C30.4694 6.1098 30.0929 6.1098 29.74 6.1098C29.0341 6.1098 28.3047 6.10982 27.5989 6.1332C27.1989 6.1332 26.7754 6.1332 26.3754 6.1332C25.9519 6.1332 25.5284 6.1332 25.1049 6.1332C24.7049 6.1332 24.3049 6.1332 23.9049 6.1332C23.4814 6.1332 23.0579 6.1332 22.6108 6.1332C22.1873 6.1332 21.7873 6.1332 21.3638 6.1332C20.9638 6.1332 20.5403 6.1332 20.1403 6.1332C19.7168 6.1332 19.2933 6.1332 18.8698 6.1332C18.4698 6.1332 18.0698 6.1332 17.6699 6.1332C17.2463 6.1332 16.8228 6.1332 16.3993 6.1332C15.9993 6.1332 15.5758 6.1332 15.1758 6.1332C14.7523 6.1332 14.3523 6.1332 13.9288 6.1332C13.8582 6.1332 13.7877 6.1332 13.6935 6.1332C13.6465 6.1332 13.5994 6.13318 13.623 6.03967C13.9759 5.87601 14.3288 5.73573 14.6817 5.59546L14.6347 5.61886Z" fill="#94B321"/>
<path id="Vector_54" d="M15.1991 12.9833C15.0579 12.9833 14.9403 12.9833 14.7991 12.9833C14.5638 13.0067 14.305 12.9833 14.0462 12.9833C13.8815 12.9833 13.7403 12.9599 13.5756 12.9833C13.5286 12.9833 13.5051 12.9833 13.458 12.9833C13.1757 12.9833 12.8933 12.9833 12.6345 12.9833C12.3051 12.9833 11.9992 13.0301 11.6698 13.0067C11.5287 13.0067 11.364 12.9599 11.2228 13.0067C10.964 13.0535 10.6816 13.03 10.4228 13.03C10.2581 13.03 10.0934 12.9833 9.95225 13.03C9.7405 13.0768 9.55227 13.03 9.34051 13.0534C9.15228 13.0534 8.94053 13.0067 8.7523 13.0534C8.46996 13.1002 8.21115 13.0768 7.92881 13.0768C7.76411 13.0768 7.62293 13.0301 7.45823 13.0768C7.19942 13.1236 6.94061 13.1002 6.65827 13.1002C6.49357 13.1002 6.32887 13.0534 6.18769 13.1002C5.99947 13.1469 5.83477 13.1002 5.64654 13.1236C5.59948 13.1236 5.55243 13.1236 5.50537 13.0768C5.64654 12.843 5.78771 12.6092 5.92888 12.3988C5.92888 12.4456 5.99947 12.4456 6.023 12.4456C6.70532 12.4456 7.38765 12.4456 8.06998 12.4222C8.35232 12.4222 8.63466 12.4222 8.917 12.4222C9.45815 12.4222 10.0228 12.4222 10.564 12.3988C10.964 12.3988 11.364 12.3988 11.7639 12.3988C12.1875 12.3754 12.611 12.3988 13.0345 12.3988C13.458 12.3988 13.858 12.3988 14.2815 12.3988C14.705 12.3754 15.1285 12.3988 15.5285 12.3988C15.6226 12.3988 15.7167 12.3988 15.8108 12.3988C15.8814 12.3988 15.952 12.3988 16.0226 12.4456C15.7167 12.656 15.4344 12.8664 15.1285 13.1002L15.1991 12.9833Z" fill="#88AE24"/>
<path id="Vector_55" d="M34.6104 39.7287C34.6104 39.7287 34.6809 39.7287 34.728 39.7287C35.2691 39.7287 35.8338 39.7287 36.375 39.7287C36.7985 39.7287 37.222 39.7287 37.6455 39.7287C38.0455 39.7287 38.4455 39.7287 38.8455 39.7287C39.2925 39.7053 39.716 39.7287 40.1631 39.7287C40.2337 39.7287 40.3042 39.7287 40.3513 39.7287C40.7042 40.056 41.0572 40.3832 41.4101 40.7339C41.4571 40.7807 41.5042 40.8275 41.5513 40.8509C41.5277 40.8742 41.5042 40.8509 41.4571 40.8509C39.5513 40.8509 37.6455 40.8509 35.7397 40.8509C35.6927 40.8509 35.6691 40.8508 35.6221 40.8275C35.2927 40.5002 34.9398 40.1729 34.6104 39.8222V39.7287Z" fill="#5A982E"/>
<path id="Vector_56" d="M13.576 6.06295C13.576 6.06295 13.6466 6.10968 13.6937 6.10968C14.0701 6.06293 14.4466 6.10968 14.823 6.10968C15.2701 6.10968 15.7171 6.10968 16.1406 6.10968C16.5641 6.10968 16.9641 6.10968 17.3876 6.10968C17.8111 6.10968 18.2111 6.10968 18.6346 6.10968C19.0582 6.08631 19.4581 6.10968 19.8816 6.10968C20.3052 6.08631 20.7287 6.10968 21.1287 6.10968C21.5286 6.10968 21.9286 6.10968 22.3286 6.10968C22.7756 6.08631 23.1992 6.10968 23.6462 6.10968C24.0462 6.10968 24.4462 6.10968 24.8462 6.10968C25.2697 6.08631 25.6932 6.10968 26.1167 6.10968C26.5167 6.08631 26.9402 6.10968 27.3402 6.10968C27.7637 6.08631 28.1872 6.10968 28.6107 6.10968C29.0107 6.10968 29.4107 6.10968 29.8107 6.10968C30.1401 6.10968 30.493 6.10968 30.8224 6.10968C30.8694 6.10968 30.9165 6.10971 30.94 6.06295C31.0341 6.10971 31.1518 6.13308 31.2459 6.20322C31.2459 6.27336 31.1753 6.24995 31.1283 6.24995C30.8224 6.24995 30.5165 6.24995 30.2342 6.24995C29.8107 6.27333 29.3871 6.24995 28.9636 6.24995C28.5637 6.24995 28.1401 6.24995 27.7402 6.24995C27.3166 6.27333 26.8931 6.24995 26.4696 6.24995C26.0696 6.27333 25.6461 6.24995 25.2461 6.24995C24.8226 6.27333 24.3991 6.24995 23.9756 6.24995C23.5756 6.24995 23.1521 6.24995 22.7521 6.24995C22.3286 6.27333 21.9051 6.24995 21.4816 6.24995C21.0816 6.27333 20.6581 6.24995 20.2581 6.24995C19.8581 6.27333 19.4346 6.24995 19.0346 6.24995C18.6111 6.27333 18.1876 6.24995 17.7641 6.24995C17.3406 6.27333 16.9171 6.24995 16.4935 6.24995C16.07 6.27333 15.6465 6.24995 15.2465 6.24995C14.823 6.24995 14.423 6.24995 13.9995 6.24995C13.8113 6.24995 13.5995 6.24995 13.4113 6.24995C13.3643 6.24995 13.3172 6.24996 13.3407 6.17982C13.4348 6.13306 13.5054 6.08631 13.5995 6.03955L13.576 6.06295Z" fill="#94B320"/>
<path id="Vector_57" d="M10.0936 8.09702C10.0936 8.09702 10.1407 8.09702 10.1642 8.09702C10.376 8.07365 10.5877 8.09702 10.823 8.09702C11.4112 8.09702 12.023 8.097 12.6112 8.07362C13.0347 8.07362 13.4347 8.07362 13.8582 8.07362C14.2817 8.05024 14.7052 8.07362 15.1287 8.07362C15.5287 8.07362 15.9287 8.07362 16.3287 8.07362C16.7522 8.05024 17.1757 8.07362 17.5992 8.07362C17.9992 8.07362 18.3992 8.07362 18.7992 8.07362C19.2227 8.05024 19.6462 8.07362 20.0697 8.07362C20.4932 8.07362 20.8932 8.07362 21.3167 8.07362C21.7402 8.05024 22.1637 8.07362 22.5637 8.07362C22.9637 8.07362 23.3637 8.07362 23.7637 8.07362C24.1872 8.05024 24.6107 8.07362 25.0577 8.07362C25.4577 8.07362 25.8577 8.07362 26.2577 8.07362C26.6812 8.05024 27.1047 8.07362 27.5282 8.07362C27.9517 8.07362 28.3517 8.07362 28.7752 8.07362C29.1988 8.05024 29.6223 8.07362 30.0222 8.07362C30.4458 8.07362 30.8457 8.07362 31.2693 8.07362C31.6928 8.05024 32.0928 8.07362 32.5163 8.07362C32.9163 8.07362 33.3398 8.07362 33.7397 8.07362C33.9515 8.07362 34.1633 8.07362 34.3985 8.07362C34.4221 8.07362 34.4456 8.07362 34.4691 8.07362C34.4691 8.07362 34.5162 8.09705 34.5162 8.12043C34.4927 8.16718 34.4456 8.14376 34.3985 8.14376C33.8339 8.14376 33.2692 8.14378 32.7045 8.16716C32.281 8.16716 31.8575 8.16716 31.434 8.16716C31.0575 8.16716 30.6575 8.16716 30.2811 8.16716C29.834 8.19054 29.387 8.16716 28.9399 8.16716C28.54 8.16716 28.14 8.16716 27.74 8.16716C27.3165 8.19054 26.893 8.16716 26.4459 8.16716C26.0459 8.16716 25.646 8.16716 25.246 8.16716C24.8225 8.19054 24.3989 8.16716 23.9754 8.16716C23.5519 8.16716 23.1519 8.16716 22.7284 8.16716C22.3049 8.16716 21.9049 8.16716 21.4814 8.16716C21.0579 8.19054 20.6344 8.16716 20.2109 8.16716C19.7874 8.16716 19.3874 8.16716 18.9639 8.16716C18.5403 8.16716 18.1404 8.16716 17.7169 8.16716C17.2933 8.19054 16.8934 8.16716 16.4698 8.16716C16.0699 8.16716 15.6463 8.16716 15.2464 8.16716C14.8228 8.19054 14.4229 8.16716 13.9994 8.16716C13.5758 8.19054 13.1523 8.16716 12.7053 8.16716C12.3053 8.16716 11.9288 8.16716 11.5289 8.16716C11.1053 8.19054 10.6583 8.16716 10.2348 8.16716C10.1877 8.16716 10.1642 8.16716 10.1172 8.16716C10.0701 8.16716 10.023 8.16718 9.99951 8.12043C9.99951 8.12043 9.99951 8.09702 10.0466 8.09702H10.0936Z" fill="#91B122"/>
<path id="Vector_58" d="M13.3172 6.20326C13.3172 6.20326 13.3878 6.22666 13.4113 6.22666C13.9524 6.22666 14.5171 6.22666 15.0583 6.22666C15.3406 6.22666 15.5994 6.22666 15.8818 6.22666C16.4465 6.22666 17.0111 6.22664 17.5758 6.20326C17.9758 6.20326 18.3758 6.20326 18.7758 6.20326C19.1993 6.17988 19.6228 6.20326 20.0463 6.20326C20.4228 6.20326 20.7992 6.20326 21.1522 6.20326C21.6227 6.20326 22.0698 6.20326 22.5403 6.20326C22.9403 6.20326 23.3403 6.20326 23.7403 6.20326C24.1638 6.17988 24.5873 6.20326 25.0108 6.20326C25.4343 6.20326 25.8343 6.20326 26.2578 6.20326C26.6813 6.17988 27.1049 6.20326 27.5519 6.20326C27.9519 6.20326 28.3519 6.20326 28.7518 6.20326C29.1754 6.17988 29.5989 6.20326 30.0224 6.20326C30.3988 6.20326 30.7753 6.20326 31.1282 6.20326C31.1753 6.20326 31.1988 6.20326 31.2459 6.20326C31.2929 6.20326 31.3165 6.22662 31.3635 6.24999C31.3165 6.27337 31.2929 6.29677 31.2459 6.2734C30.6341 6.2734 30.0224 6.2734 29.3871 6.2734C28.846 6.2734 28.2813 6.2734 27.7401 6.2734C27.3401 6.2734 26.9166 6.2734 26.5166 6.2734C26.0931 6.29677 25.6461 6.2734 25.2226 6.2734C24.8226 6.2734 24.4461 6.2734 24.0462 6.2734C23.6226 6.29677 23.1991 6.2734 22.7756 6.2734C22.3521 6.2734 21.9521 6.2734 21.5286 6.2734C21.1051 6.29677 20.6816 6.2734 20.2816 6.2734C19.8816 6.2734 19.4581 6.2734 19.0581 6.2734C18.6346 6.29677 18.2111 6.2734 17.8111 6.2734C17.3876 6.29677 16.9641 6.2734 16.5641 6.2734C16.1406 6.29677 15.7171 6.2734 15.2936 6.2734C14.8936 6.2734 14.4936 6.2734 14.0936 6.2734C13.8583 6.2734 13.5995 6.2734 13.3642 6.2734C13.3172 6.2734 13.2701 6.27337 13.2466 6.24999C13.2936 6.24999 13.3407 6.20326 13.3878 6.20326H13.3172Z" fill="#94B321"/>
<path id="Vector_59" d="M23.9757 24.0648C23.9757 24.1116 23.9757 24.1583 23.9757 24.2051C23.9757 25.9585 23.9757 27.712 23.9757 29.442C23.9757 29.4654 23.9757 29.5121 23.9757 29.5355C23.9757 29.5355 23.9757 29.5356 23.9521 29.5122C23.9521 29.4888 23.9521 29.442 23.9521 29.3952C23.9521 27.6184 23.9521 25.8183 23.9521 24.0415L23.9757 24.0648Z" fill="#CA7C15"/>
<path id="Vector_60" d="M17.8814 32.4573C17.8814 32.4573 17.7638 32.5267 17.7873 32.4111C17.8343 32.4111 17.8579 32.4342 17.8814 32.4573Z" fill="#689E2B"/>
<path id="Vector_61" d="M13.9761 37.9286C13.9761 37.9286 14.0937 37.905 14.0937 37.9756C14.0467 37.9756 13.9996 37.9521 13.9761 37.9286Z" fill="#5D9A2D"/>
<path id="Vector_62" d="M34.9395 29.3485C35.1277 29.4887 35.2689 29.6524 35.4336 29.8161C35.6689 30.0499 35.9042 30.2836 36.163 30.5174C36.4218 30.7512 36.6571 31.0084 36.9159 31.2421C37.2218 31.5227 37.5276 31.85 37.857 32.1306C38.0688 32.3176 38.257 32.528 38.4688 32.715C38.4688 32.7618 38.3982 32.7384 38.3746 32.7384C37.7629 32.7384 37.1512 32.7384 36.563 32.7618C36.1394 32.7618 35.7395 32.7618 35.3159 32.7618C34.916 32.7618 34.4925 32.7618 34.0925 32.7618C33.8337 32.7618 33.5748 32.7618 33.316 32.7618C33.269 32.7618 33.2454 32.7618 33.1984 32.7618C33.1984 32.7618 33.1513 32.7384 33.1513 32.715C32.7043 32.2942 32.2572 31.8734 31.8102 31.4292C31.669 31.3123 31.5514 31.1954 31.4102 31.0551C31.3396 31.0318 31.269 30.985 31.222 30.9149C30.7985 30.4941 30.3514 30.0966 29.9279 29.6758C29.8573 29.6057 29.7632 29.5589 29.7162 29.4887C29.6691 29.442 29.6456 29.4186 29.6926 29.3485C29.7162 29.3017 29.7868 29.3017 29.8338 29.3017C30.0926 29.3017 30.3279 29.3017 30.5867 29.3017C31.3161 29.3017 32.022 29.3017 32.7278 29.2783C33.1984 29.2783 33.6454 29.2783 34.116 29.2783C34.3277 29.2783 34.516 29.2783 34.7277 29.2783C34.8219 29.2783 34.8924 29.2783 34.9866 29.2783L34.9395 29.3485Z" fill="#81AF4D"/>
<path id="Vector_63" d="M29.6927 29.4887C29.6927 29.4887 29.8574 29.6524 29.9515 29.7225C30.0927 29.8628 30.2339 29.9796 30.3515 30.1199C30.6809 30.4238 31.0103 30.7278 31.3397 31.0551C31.3633 31.0785 31.3868 31.1018 31.4338 31.1486C30.8927 31.1486 30.328 31.1486 29.7868 31.172C29.3633 31.172 28.9398 31.172 28.5163 31.172C28.0928 31.1954 27.6693 31.172 27.2693 31.172C26.987 31.172 26.7281 31.172 26.4458 31.172C26.4458 31.1486 26.4458 31.1018 26.4458 31.0785C26.4458 29.5354 26.4458 27.9924 26.4458 26.4261C26.4458 26.4027 26.4458 26.3559 26.4458 26.3325C26.4929 26.3325 26.5164 26.3326 26.5634 26.3793C26.5634 26.3793 26.5634 26.3793 26.587 26.4027C26.987 26.8001 27.4105 27.1976 27.834 27.595C28.2104 27.9691 28.5869 28.3197 28.9633 28.6704C29.1751 28.8808 29.3869 29.0679 29.5986 29.2783C29.6457 29.3251 29.6927 29.3718 29.6927 29.4186V29.4887Z" fill="#6CA02B"/>
<path id="Vector_64" d="M29.6928 29.4888C29.6928 29.4888 29.6458 29.4654 29.6458 29.442C29.1752 28.9978 28.7046 28.5302 28.234 28.086C27.9046 27.7587 27.5753 27.4314 27.2223 27.1275C26.9635 26.8937 26.7047 26.6132 26.4224 26.3794C28.1635 26.3794 29.9281 26.3794 31.6692 26.3794C31.7163 26.3794 31.7633 26.3794 31.8104 26.3794C32.3045 26.847 32.7986 27.3379 33.3162 27.8055C33.6691 28.1328 33.9985 28.4835 34.3515 28.7874C34.5632 28.9745 34.7514 29.1848 34.9632 29.3485C34.9632 29.3953 34.8926 29.3719 34.8691 29.3719C34.2809 29.3719 33.6691 29.3719 33.0809 29.3952C32.6574 29.3952 32.2339 29.3952 31.8104 29.3952C31.4104 29.3952 31.0104 29.3952 30.6104 29.3952C30.3516 29.3952 30.0928 29.3952 29.8105 29.3952C29.7869 29.3952 29.7399 29.3953 29.7163 29.442L29.6928 29.4888Z" fill="#85B04A"/>
</g>
</g>
</svg>
